<?xml version="1.0" encoding="UTF-8"?>
<svg
   width="53.7937339mm"
   height="22.9652931mm"
   viewBox="1.3229057 1.8520827 53.7937339 22.9652931"
   version="1.1"
   xmlns="http://www.w3.org/2000/svg">
  <defs>
    <clipPath
    clipPathUnits="userSpaceOnUse"
    id="clipPath963">
    <path
    d="M 0,0 H 1920 V 1080 H 0 Z"
    transform="translate(-1101.669,-932.52053)"
    id="path963" />
    </clipPath>
  </defs>
  <g id="akai_logo">
    <path
    id="path962"
    d="m 0,0 c -0.3,0.197 0.2,0.295 0.6,0.59 0.299,0 0.6,0.099 0.7,0.099 0.3,0 1.501,0.197 1.9,0.394 0.601,0.098 1,0.393 1.2,-0.099 C 4.501,1.083 4.4,0.295 4.301,-0.197 4.2,-1.574 3.9,-2.853 3.9,-4.132 c 0,-0.296 0,-0.296 0.101,-0.296 0.199,0 0.199,0.099 0.3,0.099 0.3,0.787 0.3,0.492 0.599,1.377 0.701,1.083 1.601,2.854 2.702,3.542 0.7,0.689 1.6,0.984 2.4,0.493 0.7,-0.197 1.101,-0.689 1.2,-1.378 0.5,-2.952 -0.5,-6.396 -2.1,-8.364 -0.5,-0.491 -1.1,-0.984 -1.8,-1.377 -0.7,-0.394 -1.402,-0.59 -2.402,-0.886 0,0 -0.599,0.197 -0.7,0.296 -0.099,0.098 0.2,0.196 0.7,0.393 0.901,0.492 1.501,0.984 1.902,1.574 1.4,2.165 1.7,5.314 1.8,6.003 0,0.59 0,1.771 -0.6,1.771 -0.4,0.196 -0.8,0 -1.101,-0.394 -0.699,-0.984 -1.4,-1.968 -1.9,-3.05 -1.801,-3.542 -2.5,-8.167 -3.301,-12.398 0,-0.098 0,-0.197 -0.301,-0.295 -0.199,-0.098 -0.5,-0.197 -0.699,-0.197 -0.301,0 -0.4,0.197 -0.4,0.394 0.099,0.787 0.3,2.361 0.5,4.231 0.3,3.64 0.8,8.658 0.9,12.397 C 1.7,-0.098 1.8,0 1.2,0 0.8,0 0.1,0.197 0,0 m 16.704,0.492 c 0,-1.377 -0.4,-3.148 -0.301,-4.723 0,-0.098 0,0 0.101,-0.098 0.399,0.197 1.5,3.444 2.6,4.919 0.3,0.394 1.701,0.099 1.8,0.099 0.301,-0.59 0,-1.673 0,-2.165 -0.099,-0.393 -0.5,-0.393 -0.599,-0.59 -0.3,0.197 -0.5,0.295 -1,0.197 -0.3,-0.197 -0.5,-0.295 -0.701,-0.492 -0.099,-0.295 -0.201,-0.394 -0.3,-0.591 -0.401,-0.295 -0.8,-1.082 -1.1,-1.771 -0.4,-1.082 -0.9,-2.361 -1.1,-3.05 -0.3,-0.886 -0.4,-1.673 -0.701,-2.657 -0.099,-0.295 -0.201,-0.393 -0.4,-0.492 -0.801,0 -1.601,0.099 -1.5,0.492 0.1,1.87 0.199,2.46 0.3,4.133 0.201,2.657 0.301,4.329 0.201,5.412 0,0.885 -0.901,0.294 -1.701,0.393 -0.2,0.099 -0.3,0.197 -0.101,0.394 0.2,0.098 0.5,0.197 0.901,0.197 0.5,0.098 0.901,0.098 1.299,0.196 0.402,0 1.001,0.394 1.402,0.492 0.2,0.197 0.5,0.197 0.7,-0.098 0.1,0.197 0.2,-0.197 0.2,-0.197 m 5.7,-11.217 c -2,1.279 -1.699,4.133 -1.199,6.297 0.5,2.46 2.001,4.822 4.7,5.314 1.402,-0.099 3.402,0 4.002,-0.394 0.3,-0.295 0.601,-0.689 0.801,-0.984 0.399,-1.082 0.399,-2.066 0.399,-3.247 -0.1,-1.082 -0.2,-1.476 -0.501,-2.361 -0.098,-0.787 -0.799,-2.067 -1,-2.46 -1.5,-2.165 -3.1,-2.263 -5.001,-2.362 -0.5,0 -0.599,-0.098 -1.099,0.099 -0.8,0.098 -0.901,0 -1.102,0.098 M 33.508,0.984 c 0.8,1.476 1.1,3.444 2.701,4.92 1.1,0.885 2.801,1.18 4.001,0.688 0.3,-0.295 0.1,-1.279 0,-1.475 -0.101,-0.394 -0.4,-0.394 -0.7,-0.296 -0.3,0.099 -0.401,-0.098 -0.5,0.492 -0.101,0.788 -0.601,0.492 -0.801,0.296 -0.199,0 -0.5,-0.394 -0.601,-0.689 -0.5,-0.787 -0.599,-1.574 -0.799,-2.165 -0.3,-1.082 -0.201,-1.869 -0.201,-2.066 0.301,-0.984 2.101,-0.394 2.602,-0.886 0.1,0 0.199,-0.688 0,-0.688 -0.2,-0.099 -2.102,0 -2.401,0 -0.201,0 -0.5,-0.099 -0.5,-0.492 -0.9,-2.46 -1.6,-6.986 -2.301,-10.135 -0.3,-1.279 -0.5,-2.361 -0.601,-3.444 -0.199,-0.59 -0.199,-0.984 -0.5,-1.968 0,-0.098 0,-0.098 -0.099,-0.196 -0.1,-0.099 -0.6,-0.296 -1,-0.197 -0.201,0.098 -0.201,0.492 -0.1,1.181 0.1,0.688 0.1,0.787 0.199,1.574 0.301,2.361 0.601,4.919 0.901,7.478 0,0.098 0.2,1.476 0.2,1.673 0.099,1.574 0.099,0.492 0.3,2.951 0.099,0.787 0,0.787 0.099,1.377 0.101,0.591 -0.5,0.492 -1.3,0.591 -0.399,0.197 -0.299,1.082 0.201,1.082 0.599,0 1.099,0 1.2,0.394 m 5.702,-4.132 c 0.5,1.279 1.5,3.148 3.101,3.837 1.6,0.787 3.401,0.787 4.501,-0.59 0.7,-0.69 0.6,-1.968 0.4,-2.952 -0.101,-0.59 -0.2,-0.984 -0.4,-1.181 -0.5,-0.984 -3.601,-1.082 -4.903,-0.787 -0.199,0 -0.199,-0.098 -0.399,-0.197 -0.2,0 -0.101,0 -0.2,-0.098 -0.3,-0.394 -0.3,-0.886 -0.3,-1.279 0,-0.788 0,-1.87 0.399,-2.362 0.301,-0.393 0.7,-0.689 1.102,-0.886 0.4,-0.393 1.099,-0.393 1.599,-0.295 1.101,0.295 1.901,1.083 2.202,2.165 0.099,0.295 0.799,0.393 0.7,-0.197 -0.402,-1.377 -1.402,-2.263 -2.701,-2.853 -0.3,0 -0.5,0.098 -0.701,-0.099 -2.4,-0.393 -4.701,0.492 -5.001,2.362 -0.1,0.492 -0.2,1.279 0,2.755 0.1,0.394 0.201,0.886 0.3,1.377 0.101,0.197 0.101,0.689 0.301,1.28 m 16.103,1.672 c -0.099,-0.295 -0.299,-0.393 -0.5,-0.197 -0.399,0 -0.099,0.886 -0.399,1.378 0,0 -0.302,0.492 -0.101,0.197 -0.099,0.197 -0.3,0.295 -0.3,0.393 -0.901,0.394 -2.3,0.295 -2.7,-0.688 -0.4,-1.083 0,-1.968 0.6,-2.46 0.6,-0.492 1.6,-0.886 2.199,-1.476 0.701,-0.59 1.402,-1.476 1.402,-2.362 0,-0.098 0,-0.393 -0.1,-0.689 0,-0.196 0,-0.491 -0.101,-0.688 0,-0.197 0,-0.492 -0.099,-0.591 -0.401,-0.984 -1.301,-1.869 -2.602,-2.361 -1.099,-0.197 -2.299,-0.098 -3.2,0.394 -0.301,0 -0.5,0.098 -0.801,0.196 -0.299,0.197 -0.699,0.197 -0.699,0.787 0,0.197 0,0.689 0.1,1.28 0.099,0.393 0.099,0.492 0.2,0.885 0.1,0.197 0.2,0.591 0.3,0.591 0.099,0.196 0.4,0.196 0.599,0.295 0,-0.197 0,-0.197 0.101,-0.492 0,0.098 -0.101,-0.492 -0.101,-0.886 0,-0.885 0.301,-1.771 1,-2.165 0.802,-0.393 1.902,-0.196 2.702,0.197 0.9,0.689 0.9,2.264 0,2.854 -1,0.787 -2.301,1.082 -3,2.263 -0.901,1.181 -1.001,2.755 -0.301,4.132 0.2,0.492 0.5,0.886 0.801,1.083 1.6,1.18 3.5,1.18 5,0.098 0,-0.197 0.101,-0.295 0.201,-0.295 v -0.689 c -0.1,-0.295 -0.201,-0.591 -0.201,-0.984 m 8.103,0 c -0.101,-0.295 -0.4,-0.393 -0.5,-0.295 -0.401,0 -0.101,0.984 -0.401,1.378 0,0.098 -0.3,0.492 -0.1,0.295 -0.101,0.197 -0.301,0.295 -0.301,0.295 -0.899,0.492 -2.199,0.295 -2.599,-0.689 -0.5,-0.984 0,-1.869 0.599,-2.46 0.601,-0.491 1.5,-0.885 2.101,-1.476 0.701,-0.491 1.401,-1.476 1.401,-2.263 V -7.38 c 0,-0.196 -0.1,-0.491 -0.1,-0.688 -0.1,-0.295 -0.1,-0.591 -0.201,-0.886 -0.399,-0.787 -1.3,-1.672 -2.6,-2.066 -1,-0.295 -2.2,-0.098 -3.201,0.098 -0.3,0.296 -0.5,0.296 -0.8,0.394 -0.401,0 -0.8,0.197 -0.8,0.59 0,0.394 0.1,0.984 0.199,1.476 0.101,0.492 0.101,0.591 0.2,0.886 0.101,0.196 0.101,0.689 0.3,0.689 0.101,0.196 0.401,0.196 0.5,0 0.101,0 0.101,0 0.101,-0.296 0.099,0.099 0,-0.393 0,-0.787 0,-0.885 0.3,-1.771 1.1,-2.263 0.8,-0.295 1.901,-0.197 2.601,0.295 0.899,0.689 0.899,2.264 -0.101,2.854 -0.899,0.689 -2.1,1.082 -2.9,1.968 -0.9,1.476 -1,3.05 -0.4,4.329 0.299,0.492 0.6,0.984 1.001,1.181 1.599,1.082 3.4,1.082 4.901,0.098 0.1,-0.197 0.2,-0.295 0.3,-0.393 v -0.591 c -0.1,-0.492 -0.2,-0.688 -0.3,-0.984 m 5.7,4.92 c -0.3,-0.197 -0.899,-0.492 -1.3,-0.492 -0.2,0.197 -0.399,0.098 -0.7,0.295 -0.2,0.197 -0.3,0.492 -0.399,0.591 -0.3,0.787 -0.201,1.377 0.199,1.967 0.501,0.689 1.301,1.181 2.101,0.689 0.5,-0.295 0.9,-0.787 0.9,-1.574 0,-0.492 -0.301,-1.082 -0.801,-1.476 m -4.4,-3.837 c -0.2,0.787 0.2,0.59 0.7,0.787 0.3,0 0.7,0 0.801,0.098 0.5,0.098 0.8,0 1.2,0.197 0.699,0.295 1.6,0.492 1.699,-0.492 -0.3,-2.952 -0.8,-6.199 -1.399,-9.446 -0.101,-0.197 -0.2,-0.59 -0.2,-0.984 -0.201,-0.393 -0.5,-0.393 -1.001,-0.492 -0.4,-0.197 -1,-0.393 -1.1,-0.295 -0.3,0 -0.2,0.689 -0.101,0.984 0.101,1.476 0.5,2.853 0.701,4.526 0.201,1.476 0.299,2.952 0.201,4.821 0,0.591 -1.402,-0.196 -1.501,0.296 m 16.603,-9.938 c -0.099,0.196 -0.099,0.393 -0.099,0.787 0.4,2.755 1.099,5.707 1.301,8.56 0,0.295 0.099,0.689 -0.202,0.591 -0.5,0.196 -1.099,0 -1.599,0.196 0,0 -0.1,0.099 0,0.296 0,0.098 0.3,0.196 2,0.295 1.1,0.393 1.6,0.885 2.401,0.59 0.199,0.197 0.3,-0.492 0.199,-0.59 -0.099,-0.099 -0.299,-0.985 -0.5,-1.968 -0.099,-0.886 -0.399,-1.968 -0.399,-2.854 0,-0.098 0,-0.393 0.1,-0.491 l 0.1,0.098 c 0.199,0.098 0.3,0.492 1.1,1.279 1.001,1.378 2.6,3.641 3.501,4.132 0.4,0.296 0.599,0.099 1.101,0.099 0.299,-0.197 0.699,-0.197 0.9,-0.295 0.1,0 0.299,-0.099 0.299,-0.394 0,0.099 -0.099,0 -0.099,-0.197 -0.1,-0.688 -0.2,-1.082 -0.3,-1.476 -0.501,-2.656 -1.001,-4.821 -1.201,-7.674 0,-0.099 0.3,-0.197 0.401,-0.296 0.599,0.099 1.1,0.296 1.699,0.197 0.101,-0.098 0.101,-0.197 0,-0.492 0,0 -0.099,-0.098 -0.699,-0.098 -0.1,0 -1.601,-0.295 -2.201,-0.59 -0.4,-0.296 -0.801,-0.394 -1.101,-0.492 -0.2,-0.197 -0.799,-0.099 -0.799,0.295 -0.1,0.197 0,0.295 0,0.295 0,0.197 0.099,0.492 0.099,0.393 0.301,1.968 0.7,4.231 1,6.298 0,0.59 0.101,1.476 0.101,1.771 -0.2,0.295 -1,-0.394 -1.7,-1.279 -0.201,-0.295 -0.402,-0.689 -0.701,-0.984 -0.1,-0.099 -0.5,-0.689 -0.6,-0.787 -0.4,-0.689 -0.8,-1.378 -1.101,-1.87 -0.099,-0.295 -0.299,-0.688 -0.399,-0.787 -0.2,-0.394 -0.3,-0.984 -0.4,-1.279 -0.201,-0.394 -0.201,-0.591 -0.3,-0.689 -0.1,-0.295 -0.2,-0.394 -0.3,-0.492 -0.101,-0.393 -0.4,-0.295 -0.701,-0.295 -0.1,0.098 -0.7,0 -0.901,0.197 m -9.801,-0.591 c -2.001,1.181 -1.801,4.428 -1.301,6.593 0.6,2.46 2.1,4.821 4.702,4.919 1.399,0.296 3.5,0.099 4.001,-0.295 0.399,-0.295 0.6,-0.688 0.8,-0.984 0.4,-0.885 0.5,-2.066 0.4,-3.05 -0.1,-1.279 -0.2,-1.672 -0.4,-2.558 -0.2,-0.59 -0.8,-2.066 -1,-2.46 -1.501,-1.869 -3.201,-2.361 -5.102,-2.361 -0.5,0 -0.6,0 -1,0.196 -1,0.099 -1,0.099 -1.1,0 m 21.105,1.378 c -0.3,1.574 0.3,3.345 0.899,4.625 0.5,1.082 1,2.066 1.602,2.755 0.399,0.491 0.8,0.984 1.3,1.279 0.399,0.393 0.7,0.688 1,0.885 0.099,0 0.3,0.197 0.5,0.295 0.399,0 0.7,0.295 1.201,0.197 0.8,0.394 2,0.394 2.8,0.295 0.2,-0.098 0.4,-0.393 0.4,-0.492 0.1,-0.098 0,-0.295 0,-0.688 -0.1,-0.591 -0.5,-2.755 -0.801,-5.018 -0.099,-1.476 -0.399,-2.952 -0.299,-4.133 0,-0.591 1.6,0.098 2.3,0.098 0.201,-0.098 0.201,-0.689 0,-0.689 -1.2,0 -2.501,-0.393 -3.1,-0.59 -0.3,-0.197 -0.5,-0.393 -0.901,-0.59 -0.099,-0.098 -0.599,0 -0.599,0.492 -0.102,0.885 0.2,1.771 0.3,4.132 0,0.197 0.1,0.099 0,0.394 0,0.098 -0.1,0 -0.201,-0.098 -0.201,-0.197 -0.8,-1.279 -1.4,-2.165 -0.301,-0.492 -0.601,-0.886 -0.9,-1.083 -0.8,-0.885 -2.1,-1.869 -3.101,-1.475 -0.601,0.098 -0.9,0.885 -1,1.574 m 11.603,-1.181 c 0,1.476 0.2,4.428 0.599,6.986 0.2,0.984 0.301,1.771 0.601,3.05 0.7,3.149 1.6,6.888 2.001,6.888 0,0.098 0.099,0.197 0.2,0.197 1.1,0 2,-0.099 3,-0.295 0.1,0 0.201,0.098 0.201,-0.197 0,0 -0.101,0.098 -0.201,-0.099 -0.3,0 -0.9,-0.295 -1.2,-0.492 -0.401,-0.393 -0.7,-0.885 -0.8,-1.574 -1,-3.837 -1.8,-7.084 -2.102,-11.512 -0.098,-0.689 0,-1.279 0.102,-1.87 0,-0.295 0.099,-0.295 0.2,-0.295 0.699,0.099 1.8,0.492 2,0.099 0,0 0,-0.296 -0.2,-0.394 -1.101,-0.197 -2.501,-0.393 -3.602,-0.885 -0.399,-0.295 -0.799,-0.099 -0.799,0.393 M 26.006,0.099 c -0.7,-0.394 -1,-0.984 -1.3,-1.575 -0.301,-0.688 -0.5,-1.279 -0.7,-2.164 -0.101,-0.591 -0.3,-1.87 -0.401,-2.657 -0.099,-1.181 -0.099,-1.574 0.101,-2.558 0.1,-0.886 1.199,-1.673 2.199,-1.28 0.701,0.197 1.201,0.886 1.402,1.476 0.5,1.575 0.799,2.46 0.799,3.936 0.101,1.083 0.201,2.362 0,3.543 0,0.295 -0.199,0.688 -0.399,0.983 -0.4,0.394 -1,0.394 -1.701,0.296 M 45.11,-0.492 c 0,0.099 -0.099,0.295 -0.099,0.492 -0.2,0.492 -0.8,0.59 -1.401,0.492 -0.099,0 -0.299,-0.098 -0.5,-0.393 -0.199,-0.197 -0.3,-0.197 -0.399,-0.591 -0.4,-0.393 -0.501,-0.984 -0.602,-1.181 -0.099,-0.491 -0.299,-0.59 -0.399,-1.082 -0.2,-0.885 -0.2,-0.984 -0.2,-1.377 0.099,0 0.2,-0.197 0.3,0 0.501,-0.197 1,-0.099 1.601,0.098 0.4,0.197 0.699,0.295 1,0.492 0.3,0.59 0.3,0.59 0.5,1.082 0.199,0.492 0.3,1.673 0.199,1.968 m 30.008,0.394 c -0.7,-0.394 -1.1,-0.787 -1.4,-1.378 -0.3,-0.688 -0.5,-1.574 -0.6,-2.361 -0.2,-0.591 -0.4,-1.87 -0.4,-2.558 -0.2,-0.985 -0.1,-1.378 0,-2.46 0.099,-1.083 1.3,-1.968 2.301,-1.575 0.7,0.295 1.099,0.984 1.299,1.771 0.5,1.378 0.701,2.264 0.8,3.74 0.2,1.082 0.2,2.361 0,3.542 0,0.197 -0.099,0.59 -0.399,0.885 -0.3,0.394 -1,0.689 -1.601,0.394 m 23.705,-0.197 c -0.098,0 -0.098,0.098 -0.199,-0.197 -0.1,0.197 -0.301,-0.099 -0.7,-0.393 -0.3,0 -0.5,-0.295 -0.7,-0.492 -0.6,-0.689 -1.201,-1.476 -1.701,-2.165 0,-0.295 -0.099,-0.295 -0.099,-0.492 -0.2,-0.098 -0.401,-0.787 -0.601,-1.377 -0.301,-0.886 -0.5,-1.772 -0.199,-2.756 0.299,-0.688 1.199,-0.492 1.699,0.197 1,0.886 1.401,1.181 2.102,2.263 0.398,0.394 0.599,0.886 0.8,1.476 0.4,1.083 0.799,2.362 0.7,3.346 -0.1,0.196 -0.2,0.492 -0.3,0.59 -0.2,0.197 -0.5,0.295 -0.802,0"
    style="display:inline;fill:#e41f26;fill-opacity:1;fill-rule:evenodd;stroke:none"
    transform="matrix(0.35277776,0,0,-0.35277776,16.018986,18.698771)"
    clip-path="url(#clipPath963)" />
    <path
    style="display:inline;fill:#e41f26;fill-opacity:1;fill-rule:evenodd;stroke:none;stroke-width:0.352778"
    d="m 53.257749,5.1147497 v 7.8792883 c 0,0.833261 0.21837,1.006828 1.054806,1.006828 v 1.423105 h -6.037086 v -1.423105 c 0.909108,0 1.090788,-0.173567 1.090788,-1.006828 V 5.1147497 c 0,-0.867481 -0.18168,-1.0414 -1.090788,-1.0414 v -1.214967 h 6.037086 v 1.214967 c -0.836436,0 -1.054806,0.138994 -1.054806,1.0414"
    id="path2891" />
    <path
    id="path2890"
    style="display:inline;fill:#e41f26;fill-opacity:1;fill-rule:evenodd;stroke:none;stroke-width:0.352778"
    d="m 40.128804,1.8520827 -3.418912,1.423169 1.018026,2.290816 -3.309359,7.4631073 c -0.363714,0.832908 -1.018143,0.971517 -1.490864,0.971517 h -0.690914 v 1.423169 h 5.127851 v -1.423169 c -0.727427,0 -1.273085,-0.0692 -1.054716,-0.659391 0.18168,-0.416278 0.508496,-1.145149 0.508496,-1.145149 h 3.855579 c 0,0 0.363641,0.797648 0.436666,1.006139 0.327377,0.694266 -0.509353,0.833024 -1.200444,0.833024 v 1.388546 h 7.019211 v -1.423169 h -0.545187 c -0.618419,-0.0695 -1.091274,-0.485942 -1.273307,-0.867647 z m -1.382344,5.9701768 1.346171,3.0545925 h -2.691309 z" />
    <path
    style="display:inline;fill:#e41f26;fill-opacity:1;fill-rule:evenodd;stroke:none;stroke-width:0.352778"
    d="m 23.908049,14.000866 c 0.872773,0 0.691092,-0.416631 0.436739,-0.763411 l -2.03729,-2.811992 v 2.568575 c 0,0.833261 0.182386,1.006828 1.09114,1.006828 v 1.423105 h -6.000396 v -1.423105 c 0.836435,0 1.054452,-0.173567 1.054452,-1.006828 V 5.1147497 c 0,-0.867481 -0.218017,-1.0414 -1.054452,-1.0414 v -1.214967 h 6.037085 v 1.214967 c -0.909107,0 -1.09114,0.173919 -1.09114,1.0414 v 2.6034988 l 2.982382,-2.7770658 c 0.218369,-0.277636 0.145344,-0.867833 -0.472722,-0.867833 h -0.40005 v -1.214967 h 6.037085 v 1.214967 c -0.872772,0 -1.709208,-0.104069 -2.327627,0.5207 l -3.237089,3.0892738 4.182533,5.6927735 c 0.473075,0.555272 1.054806,0.590197 1.673225,0.590197 v 1.457677 h -6.873875 z"
    id="path2889" />
    <path
    id="path964"
    style="display:inline;fill:#e41f26;fill-opacity:1;fill-rule:evenodd;stroke:none;stroke-width:0.352778"
    d="m 9.1787562,1.8520827 -3.3822218,1.423169 0.981852,2.290816 -3.3093589,7.4631073 c -0.400402,0.832908 -1.019175,0.971517 -1.4552081,0.971517 H 1.3229057 v 1.423169 h 5.0555057 v -1.423169 c -0.690738,0 -1.2365579,-0.0692 -0.981852,-0.659391 0.145344,-0.416278 0.472322,-1.145149 0.472322,-1.145149 h 3.8555778 c 0,0 0.3636678,0.797648 0.4723228,1.006139 0.255058,0.694266 -0.5090268,0.833024 -1.2727908,0.833024 v 1.388546 h 7.0558998 v -1.423169 h -0.545703 c -0.618066,-0.0695 -1.091272,-0.485942 -1.236617,-0.867647 z m -1.381827,5.9701768 1.345137,3.0545925 H 6.4512744 Z" />
  </g>
</svg>

