<svg class="size-6" fill="none" stroke="currentColor" stroke-width="1.5" version="1.1" viewBox="0 0 24 24" xmlns="http://www.w3.org/2000/svg">
 <path d="m3.75 3a0.75 0.75 0 0 0-0.53125 0.21875 0.75 0.75 0 0 0 0 1.0625l3.9688 3.9688h-2.6875a0.75 0.75 0 0 0-0.75 0.75 0.75 0.75 0 0 0 0.75 0.75h4.5a0.75 0.75 0 0 0 0.53125-0.21875 0.75 0.75 0 0 0 0.19336-0.46875 0.75 0.75 0 0 0 0.025391-0.0625v-4.5a0.75 0.75 0 0 0-0.75-0.75 0.75 0.75 0 0 0-0.75 0.75v2.6875l-3.9688-3.9688a0.75 0.75 0 0 0-0.53125-0.21875zm16.5 0a0.75 0.75 0 0 0-0.53125 0.21875l-3.9688 3.9688v-2.6875a0.75 0.75 0 0 0-0.75-0.75 0.75 0.75 0 0 0-0.75 0.75v4.5a0.75 0.75 0 0 0 0.21875 0.53125 0.75 0.75 0 0 0 0.53125 0.21875h4.5a0.75 0.75 0 0 0 0.75-0.75 0.75 0.75 0 0 0-0.75-0.75h-2.6875l3.9688-3.9688a0.75 0.75 0 0 0 0-1.0625 0.75 0.75 0 0 0-0.53125-0.21875zm-15.75 11.25a0.75 0.75 0 0 0-0.75 0.75 0.75 0.75 0 0 0 0.75 0.75h2.6875l-3.9688 3.9688a0.75 0.75 0 0 0 0 1.0625 0.75 0.75 0 0 0 1.0625 0l3.9688-3.9688v2.6875a0.75 0.75 0 0 0 0.75 0.75 0.75 0.75 0 0 0 0.75-0.75v-4.5a0.75 0.75 0 0 0-0.025391-0.12891 0.75 0.75 0 0 0-0.019531-0.097656 0.75 0.75 0 0 0-0.011719-0.060547 0.75 0.75 0 0 0-0.16211-0.24414 0.75 0.75 0 0 0-0.53125-0.21875zm10.5 0a0.75 0.75 0 0 0-0.75 0.75v4.5a0.75 0.75 0 0 0 0.75 0.75 0.75 0.75 0 0 0 0.75-0.75v-2.6875l3.9688 3.9688a0.75 0.75 0 0 0 1.0625 0 0.75 0.75 0 0 0 0-1.0625l-3.9688-3.9688h2.6875a0.75 0.75 0 0 0 0.75-0.75 0.75 0.75 0 0 0-0.75-0.75z" fill="#000" stroke="none"/>
</svg>
