<?xml version="1.0" encoding="UTF-8" standalone="no"?>
<!-- Created with Inkscape (http://www.inkscape.org/) -->

<svg
   width="210mm"
   height="297mm"
   viewBox="0 0 210 297"
   version="1.1"
   id="svg1"
   inkscape:version="1.3.2 (091e20e, 2023-11-25)"
   sodipodi:docname="big_key.svg"
   xmlns:inkscape="http://www.inkscape.org/namespaces/inkscape"
   xmlns:sodipodi="http://sodipodi.sourceforge.net/DTD/sodipodi-0.dtd"
   xmlns="http://www.w3.org/2000/svg"
   xmlns:svg="http://www.w3.org/2000/svg">
  <sodipodi:namedview
     id="namedview1"
     pagecolor="#ffffff"
     bordercolor="#000000"
     borderopacity="0.25"
     inkscape:showpageshadow="2"
     inkscape:pageopacity="0.0"
     inkscape:pagecheckerboard="0"
     inkscape:deskcolor="#d1d1d1"
     inkscape:document-units="mm"
     showguides="false"
     inkscape:zoom="4.5772571"
     inkscape:cx="34.518489"
     inkscape:cy="18.242366"
     inkscape:window-width="1440"
     inkscape:window-height="798"
     inkscape:window-x="0"
     inkscape:window-y="25"
     inkscape:window-maximized="1"
     inkscape:current-layer="layer1" />
  <defs
     id="defs1">
    <mask
       id="mask25_1_2"
       maskUnits="userSpaceOnUse"
       x="-76"
       y="-1"
       width="9677"
       height="5444">
      <path
         d="M -75.5906,-1.83105e-4 H 9600 V 5442.52 H -75.5906 Z"
         fill="#ffffff"
         id="path56" />
    </mask>
    <mask
       id="mask26_1_2"
       maskUnits="userSpaceOnUse"
       x="-76"
       y="-1"
       width="9677"
       height="5444">
      <path
         d="M -75.5906,-1.83105e-4 H 9600 V 5442.52 H -75.5906 Z"
         fill="#ffffff"
         id="path58" />
    </mask>
    <mask
       id="mask27_1_2"
       maskUnits="userSpaceOnUse"
       x="-76"
       y="-1"
       width="9677"
       height="5444">
      <path
         d="M -75.5906,-1.83105e-4 H 9600 V 5442.52 H -75.5906 Z"
         fill="#ffffff"
         id="path60" />
    </mask>
    <mask
       id="mask28_1_2"
       maskUnits="userSpaceOnUse"
       x="-76"
       y="-1"
       width="9677"
       height="5444">
      <path
         d="M -75.5906,-1.83105e-4 H 9600 V 5442.52 H -75.5906 Z"
         fill="#ffffff"
         id="path62" />
    </mask>
    <mask
       id="mask28_1_2-8"
       maskUnits="userSpaceOnUse"
       x="-76"
       y="-1"
       width="9677"
       height="5444">
      <path
         d="M -75.5906,-1.83105e-4 H 9600 V 5442.52 H -75.5906 Z"
         fill="#ffffff"
         id="path62-2" />
    </mask>
  </defs>
  <g
     inkscape:label="Layer 1"
     inkscape:groupmode="layer"
     id="layer1">
    <path
       d="m 428.95,84.0429 h -67.66 c -0.864,0 -1.565,-0.701 -1.565,-1.566 V 32.3316 c 0,-0.865 0.701,-1.564 1.565,-1.564 h 67.66 c 0.864,0 1.565,0.699 1.565,1.564 v 50.1453 c 0,0.865 -0.701,1.566 -1.565,1.566 z"
       fill="#1a1a1a"
       id="path57"
       transform="matrix(0.26458333,0,0,0.26458333,-92.531406,-5.7259127)" />
    <path
       d="m 425.52,81.463 h -60.792 c -0.866,0 -1.566,-0.702 -1.566,-1.566 V 34.9206 c 0,-0.864 0.7,-1.565 1.566,-1.565 h 60.792 c 0.864,0 1.565,0.701 1.565,1.565 V 79.897 c 0,0.864 -0.701,1.566 -1.565,1.566 z"
       fill="#cac2b2"
       id="path59"
       transform="matrix(0.26458333,0,0,0.26458333,-92.531406,-5.7259127)" />
    <path
       d="m 422.08,78.8829 h -53.924 c -0.865,0 -1.565,-0.6999 -1.565,-1.5649 V 37.5085 c 0,-0.864 0.7,-1.564 1.565,-1.564 h 53.924 c 0.864,0 1.565,0.7 1.565,1.564 V 77.318 c 0,0.865 -0.701,1.5649 -1.565,1.5649 z"
       fill="#fcffe9"
       id="path61"
       transform="matrix(0.26458333,0,0,0.26458333,-92.531406,-5.7259127)"
       style="font-variation-settings:normal;opacity:1;vector-effect:none;fill:#fcffe9;fill-opacity:1;stroke-width:1;stroke-linecap:butt;stroke-linejoin:miter;stroke-miterlimit:4;stroke-dasharray:none;stroke-dashoffset:0;stroke-opacity:1;-inkscape-stroke:none;stop-color:#000000;stop-opacity:1" />
    <path
       id="path61-3"
       style="font-variation-settings:normal;vector-effect:none;fill:#ffffff;fill-opacity:1;stroke-width:0.264583;stroke-linecap:butt;stroke-linejoin:miter;stroke-miterlimit:4;stroke-dasharray:none;stroke-dashoffset:0;stroke-opacity:1;-inkscape-stroke:none;stop-color:#000000"
       d="M 4.8767049 3.7842651 C 4.6478406 3.7842651 4.4622599 3.9695936 4.4622599 4.1981934 L 4.4622599 14.730884 C 4.4622599 14.933429 4.6077045 15.101023 4.799707 15.137061 C 4.7970323 15.118027 4.7940226 15.09896 4.7940226 15.079183 L 4.7940226 4.5464925 C 4.7940226 4.3178927 4.9790866 4.1325643 5.2079508 4.1325643 L 19.475297 4.1325643 C 19.501584 4.1325643 19.527365 4.1356334 19.552295 4.1403158 C 19.523829 3.9394603 19.352775 3.7842651 19.144051 3.7842651 L 4.8767049 3.7842651 z " />
  </g>
</svg>
