<?xml version="1.0" encoding="UTF-8" standalone="no"?>
<!-- Created with Inkscape (http://www.inkscape.org/) -->

<svg
   width="210mm"
   height="297mm"
   viewBox="0 0 210 297"
   version="1.1"
   id="svg1"
   inkscape:version="1.3.2 (091e20e, 2023-11-25)"
   sodipodi:docname="big_key_red.svg"
   xmlns:inkscape="http://www.inkscape.org/namespaces/inkscape"
   xmlns:sodipodi="http://sodipodi.sourceforge.net/DTD/sodipodi-0.dtd"
   xmlns="http://www.w3.org/2000/svg"
   xmlns:svg="http://www.w3.org/2000/svg">
  <sodipodi:namedview
     id="namedview1"
     pagecolor="#ffffff"
     bordercolor="#000000"
     borderopacity="0.25"
     inkscape:showpageshadow="2"
     inkscape:pageopacity="0.0"
     inkscape:pagecheckerboard="0"
     inkscape:deskcolor="#d1d1d1"
     inkscape:document-units="mm"
     showguides="false"
     inkscape:zoom="4.5772571"
     inkscape:cx="29.712117"
     inkscape:cy="18.023895"
     inkscape:window-width="1440"
     inkscape:window-height="798"
     inkscape:window-x="0"
     inkscape:window-y="25"
     inkscape:window-maximized="1"
     inkscape:current-layer="layer1" />
  <defs
     id="defs1">
    <mask
       id="mask25_1_2"
       maskUnits="userSpaceOnUse"
       x="-76"
       y="-1"
       width="9677"
       height="5444">
      <path
         d="M -75.5906,-1.83105e-4 H 9600 V 5442.52 H -75.5906 Z"
         fill="#ffffff"
         id="path56" />
    </mask>
    <mask
       id="mask26_1_2"
       maskUnits="userSpaceOnUse"
       x="-76"
       y="-1"
       width="9677"
       height="5444">
      <path
         d="M -75.5906,-1.83105e-4 H 9600 V 5442.52 H -75.5906 Z"
         fill="#ffffff"
         id="path58" />
    </mask>
    <mask
       id="mask27_1_2"
       maskUnits="userSpaceOnUse"
       x="-76"
       y="-1"
       width="9677"
       height="5444">
      <path
         d="M -75.5906,-1.83105e-4 H 9600 V 5442.52 H -75.5906 Z"
         fill="#ffffff"
         id="path60" />
    </mask>
    <mask
       id="mask28_1_2"
       maskUnits="userSpaceOnUse"
       x="-76"
       y="-1"
       width="9677"
       height="5444">
      <path
         d="M -75.5906,-1.83105e-4 H 9600 V 5442.52 H -75.5906 Z"
         fill="#ffffff"
         id="path62" />
    </mask>
    <mask
       id="mask28_1_2-8"
       maskUnits="userSpaceOnUse"
       x="-76"
       y="-1"
       width="9677"
       height="5444">
      <path
         d="M -75.5906,-1.83105e-4 H 9600 V 5442.52 H -75.5906 Z"
         fill="#ffffff"
         id="path62-2" />
    </mask>
  </defs>
  <g
     inkscape:label="Layer 1"
     inkscape:groupmode="layer"
     id="layer1">
    <path
       d="m 3.0597616,2.4148397 c -0.2285996,0 -0.4139283,0.1845473 -0.4139283,0.4134114 V 16.096175 c 0,0.228864 0.1853287,0.414445 0.4139283,0.414445 H 20.961511 c 0.2286,0 0.413928,-0.185581 0.413928,-0.414445 V 2.8282511 c 0,-0.2288641 -0.185328,-0.4134114 -0.413928,-0.4134114 z M 3.9697835,3.0995524 H 20.054073 c 0.228599,0 0.413928,0.1853289 0.413928,0.4139282 V 15.413529 c 0,0.2286 -0.185329,0.414445 -0.413928,0.414445 H 3.9697835 c -0.2291284,0 -0.414445,-0.185845 -0.414445,-0.414445 V 3.5134806 c 0,-0.2285993 0.1853166,-0.4139282 0.414445,-0.4139282 z"
       style="fill:#1a1a1a"
       id="path4" />
    <path
       d="m 3.9697835,3.0995524 c -0.2291287,0 -0.414445,0.1853287 -0.414445,0.4139282 V 15.413529 c 0,0.2286 0.1853163,0.414445 0.414445,0.414445 H 20.054073 c 0.2286,0 0.413928,-0.185845 0.413928,-0.414445 V 3.5134806 c 0,-0.2285995 -0.185328,-0.4139282 -0.413928,-0.4139282 z M 4.8767049,3.7842651 H 19.144051 c 0.02684,0 0.05318,0.00285 0.07855,0.00775 0.0119,0.0023 0.02311,0.00653 0.03462,0.00982 0.01346,0.00387 0.02695,0.00723 0.03979,0.012402 0.01372,0.00547 0.02633,0.01279 0.03927,0.019637 0.0089,0.00473 0.01789,0.00912 0.02636,0.014469 0.0135,0.00845 0.02584,0.018001 0.03824,0.027905 0.0073,0.00587 0.01484,0.011224 0.0217,0.01757 0.01248,0.011421 0.02362,0.023832 0.03462,0.03669 0.0042,0.00498 0.0084,0.00981 0.0124,0.014986 0.01215,0.015626 0.02323,0.031795 0.03307,0.049093 0.002,0.00355 0.0038,0.00724 0.0057,0.010852 0.01009,0.019021 0.01878,0.038791 0.02584,0.059428 3e-4,8.815e-4 7.39e-4,0.0017 0.001,0.00258 4.47e-4,0.00134 5.99e-4,0.00279 0.001,0.00413 0.0071,0.02204 0.01267,0.044729 0.01602,0.068213 0,0 0,5.168e-4 0,5.168e-4 0.0027,0.019128 0.0057,0.038002 0.0057,0.057878 V 14.730884 c 0,0.228864 -0.185329,0.414445 -0.413928,0.414445 H 4.8767049 c -0.050539,0 -0.098358,-0.01031 -0.1431437,-0.02687 -0.00138,-5.07e-4 -0.00276,-0.001 -0.00413,-0.0015 -0.016181,-0.0062 -0.031374,-0.01362 -0.046509,-0.0217 -0.00801,-0.0042 -0.016087,-0.0082 -0.023771,-0.01292 -0.012132,-0.0075 -0.023369,-0.01609 -0.034623,-0.0248 -0.00907,-0.007 -0.017902,-0.01403 -0.026355,-0.0217 -0.0092,-0.0084 -0.017943,-0.01715 -0.026355,-0.02635 -0.00925,-0.01006 -0.017611,-0.02058 -0.025838,-0.03152 -0.0067,-0.0089 -0.013146,-0.0179 -0.01912,-0.02739 -0.00744,-0.01178 -0.013912,-0.02415 -0.020154,-0.03669 -0.00519,-0.01046 -0.010674,-0.02058 -0.014986,-0.03152 -0.00494,-0.01248 -0.00816,-0.02571 -0.011886,-0.03876 -0.00338,-0.01191 -0.0075,-0.02333 -0.00982,-0.03566 -0.00474,-0.02505 -0.00775,-0.05054 -0.00775,-0.077 V 4.1981934 c 0,-0.2285992 0.1855814,-0.4139283 0.414445,-0.4139283 z"
       style="fill:#6e2621"
       id="path3" />
    <path
       d="m 19.222599,3.7920166 c 0.01198,0.00231 0.02305,0.00649 0.03462,0.00982 -0.01151,-0.00329 -0.02272,-0.00752 -0.03462,-0.00982 z m 0.07441,0.022221 c 0.01364,0.00549 0.02641,0.012772 0.03927,0.019637 -0.01295,-0.00685 -0.02556,-0.014169 -0.03927,-0.019637 z m 0.06563,0.034106 c 0.01339,0.00846 0.02595,0.017999 0.03824,0.027905 -0.0124,-0.0099 -0.02474,-0.019456 -0.03824,-0.027905 z m 0.05994,0.045475 c 0.01242,0.01148 0.02368,0.023771 0.03462,0.03669 -0.011,-0.012858 -0.02215,-0.025269 -0.03462,-0.03669 z m 0.04703,0.051676 c 0.01201,0.015621 0.02334,0.031818 0.03307,0.049093 -0.0098,-0.017298 -0.02093,-0.033467 -0.03307,-0.049093 z m 0.03876,0.059945 c 0.01,0.01895 0.01885,0.038892 0.02584,0.059428 -0.0071,-0.020637 -0.01575,-0.040407 -0.02584,-0.059428 z m 0.02791,0.066146 c 0.0071,0.02207 0.01266,0.044713 0.01602,0.068213 -0.0034,-0.023484 -0.0089,-0.046173 -0.01602,-0.068213 z M 5.2079508,4.1325643 c -0.2288637,0 -0.4139282,0.1853289 -0.4139282,0.4139282 V 15.079183 c 0,0.01978 0.00301,0.03884 0.00568,0.05788 -0.022754,-0.0043 -0.044864,-0.0108 -0.066146,-0.0186 0.044785,0.01657 0.092605,0.02687 0.1431437,0.02687 H 19.144051 c 0.2286,0 0.413928,-0.185581 0.413928,-0.414445 V 4.1981934 c 0,-0.019876 -0.003,-0.038749 -0.0057,-0.057878 -0.02493,-0.00468 -0.05071,-0.00775 -0.077,-0.00775 z M 4.4700114,14.807882 c 0.00232,0.01232 0.00644,0.02374 0.00982,0.03566 -0.00338,-0.01184 -0.0075,-0.0234 -0.00982,-0.03566 z m 0.021704,0.07441 c 0.00431,0.01094 0.00979,0.02106 0.014986,0.03152 -0.00515,-0.01035 -0.010702,-0.0207 -0.014986,-0.03152 z m 0.03514,0.06821 c 0.00597,0.0095 0.012418,0.01844 0.01912,0.02739 -0.00672,-0.0089 -0.013132,-0.01791 -0.01912,-0.02739 z m 0.044958,0.05891 c 0.00841,0.0092 0.017152,0.01794 0.026355,0.02635 -0.00921,-0.0084 -0.01793,-0.0172 -0.026355,-0.02635 z m 0.05271,0.04806 c 0.011254,0.0087 0.022491,0.01727 0.034623,0.0248 -0.012133,-0.0075 -0.023364,-0.01616 -0.034623,-0.0248 z m 0.058394,0.03772 c 0.015134,0.0081 0.030328,0.01552 0.046509,0.0217 -0.016153,-0.0061 -0.031394,-0.0137 -0.046509,-0.0217 z"
       style="opacity:1;vector-effect:none;fill:#ae3f37;stop-color:#000000;stop-opacity:1"
       id="path2" />
    <path
       d="m 4.8767049,3.7842651 c -0.2288641,0 -0.414445,0.1853287 -0.414445,0.4139283 V 14.730884 c 0,0.202545 0.1454448,0.370139 0.3374471,0.406177 -0.00267,-0.01903 -0.00568,-0.0381 -0.00568,-0.05788 V 4.5464925 c 0,-0.2285996 0.1850643,-0.4139282 0.4139282,-0.4139282 H 19.475297 c 0.02629,0 0.05207,0.00307 0.077,0.00775 -0.02847,-0.2008553 -0.19952,-0.3560507 -0.408244,-0.3560507 z"
       style="vector-effect:none;fill:#e6e6e6;stroke-width:0.264583;stop-color:#000000"
       id="path1" />
  </g>
</svg>
