<svg xmlns="http://www.w3.org/2000/svg" viewBox="0 0 210 297">
  <path d="m 425.52,81.463 h -60.792 c -0.866,0 -1.566,-0.702 -1.566,-1.566 V 34.9206 c 0,-0.864 0.7,-1.565 1.566,-1.565 h 60.792 c 0.864,0 1.565,0.701 1.565,1.565 V 79.897 c 0,0.864 -0.701,1.566 -1.565,1.566 z" fill="#cac2b2" transform="matrix(0.26458333,0,0,0.26458333,-92.531406,-5.7259127)"/>
  <path d="m 422.08,78.8829 h -53.924 c -0.865,0 -1.565,-0.6999 -1.565,-1.5649 V 37.5085 c 0,-0.864 0.7,-1.564 1.565,-1.564 h 53.924 c 0.864,0 1.565,0.7 1.565,1.564 V 77.318 c 0,0.865 -0.701,1.5649 -1.565,1.5649 z" fill="#fcffe9" transform="matrix(0.26458333,0,0,0.26458333,-92.531406,-5.7259127)"/>
  <path d="M 4.8767049 3.7842651 C 4.6478406 3.7842651 4.4622599 3.9695936 4.4622599 4.1981934 L 4.4622599 14.730884 C 4.4622599 14.933429 4.6077045 15.101023 4.799707 15.137061 C 4.7970323 15.118027 4.7940226 15.09896 4.7940226 15.079183 L 4.7940226 4.5464925 C 4.7940226 4.3178927 4.9790866 4.1325643 5.2079508 4.1325643 L 19.475297 4.1325643 C 19.501584 4.1325643 19.527365 4.1356334 19.552295 4.1403158 C 19.523829 3.9394603 19.352775 3.7842651 19.144051 3.7842651 L 4.8767049 3.7842651 z" fill="#ffffff"/>
</svg>
