<svg width="594mm" height="420mm" version="1.1" viewBox="0 0 594 420" xmlns="http://www.w3.org/2000/svg">
 <g fill="#e6eee9" stroke-width=".26458">
  <path d="m386.44 342.56c-55.697 1.2807-111.39 1.899-167.09 1.8567-17.501-0.0132-35.002-0.0935-52.503-0.2377 17.502 0.14428 35.004 0.2253 52.505 0.23874 55.694 0.0429 111.39-0.57635 167.09-1.8578z"/>
  <path d="m447.89 325.18-0.11833 0.32297h-3e-3c-1.8766 5.1853-3.7526 10.374-5.6327 15.56 0-3e-5 3e-3 3e-5 3e-3 0 1.9164-5.2945 3.8341-10.589 5.7505-15.883z"/>
  <path d="m1.609 15.008v325.66h-1.609 1.7144l446.22-0.0585v3e-3l0.55234-325.61z"/>
 </g>
 <path d="m447.93 324.71v0.34105l-0.16587 0.45114c-1.3e-4 0 0 0 0 0h3e-3l0.16586-0.4532v-0.34002z" fill="#968f81" stroke-width=".26458"/>
 <path d="m1.6102 340.49v0.12555l-0.00124 0.11368v3.0339h446.32l-1e-4 -3.1476v-0.0673z" fill="#d3dbcf" stroke-width=".11731"/>
 <path d="m1.609 1.599v13.942h446.88v-13.942z" fill="#d4d9d7"/>
 <path d="m447.93 340.7-446.32 0.0248v-0.235l446.32 0.0574z" fill="#968f81 icc-color(sRGB-IEC61966-2, 0.1, 0.58799744, 0.56098938, 0.5059967)"/>
</svg>
