<?xml version="1.0" encoding="UTF-8" standalone="no"?>
<!-- Created with Inkscape (http://www.inkscape.org/) -->

<svg
   width="210mm"
   height="297mm"
   viewBox="0 0 210 297"
   version="1.1"
   id="svg1"
   sodipodi:docname="display.svg"
   inkscape:version="1.3.2 (091e20e, 2023-11-25)"
   xmlns:inkscape="http://www.inkscape.org/namespaces/inkscape"
   xmlns:sodipodi="http://sodipodi.sourceforge.net/DTD/sodipodi-0.dtd"
   xmlns:xlink="http://www.w3.org/1999/xlink"
   xmlns="http://www.w3.org/2000/svg"
   xmlns:svg="http://www.w3.org/2000/svg">
  <sodipodi:namedview
     id="namedview1"
     pagecolor="#ffffff"
     bordercolor="#000000"
     borderopacity="0.25"
     inkscape:showpageshadow="2"
     inkscape:pageopacity="0.0"
     inkscape:pagecheckerboard="0"
     inkscape:deskcolor="#d1d1d1"
     inkscape:document-units="mm"
     inkscape:zoom="0.70577483"
     inkscape:cx="280.54273"
     inkscape:cy="173.5681"
     inkscape:window-width="1440"
     inkscape:window-height="798"
     inkscape:window-x="0"
     inkscape:window-y="25"
     inkscape:window-maximized="1"
     inkscape:current-layer="layer1" />
  <defs
     id="defs1">
    <linearGradient
       id="linearGradient27"
       inkscape:collect="always">
      <stop
         style="stop-color:#000000;stop-opacity:1;"
         offset="0.24600638"
         id="stop26" />
      <stop
         style="stop-color:#292929;stop-opacity:0.23;"
         offset="0.87539929"
         id="stop28" />
      <stop
         style="stop-color:#343434;stop-opacity:0.22981369;"
         offset="1"
         id="stop27" />
    </linearGradient>
    <linearGradient
       x1="0"
       y1="0"
       x2="1"
       y2="0"
       gradientUnits="userSpaceOnUse"
       gradientTransform="matrix(0,20.478027,-20.478027,0,703.86597,994.52496)"
       spreadMethod="pad"
       id="linearGradient21"
       inkscape:label="foo">
      <stop
         style="stop-color:#333333;stop-opacity:0;"
         offset="0"
         id="stop17" />
      <stop
         style="stop-opacity:1;stop-color:#020300"
         offset="0.41330301"
         id="stop18" />
      <stop
         style="stop-opacity:1;stop-color:#020300"
         offset="0.455307"
         id="stop19" />
      <stop
         style="stop-opacity:1;stop-color:#020300"
         offset="0.799447"
         id="stop20" />
      <stop
         style="stop-opacity:1;stop-color:#020300"
         offset="1"
         id="stop21" />
    </linearGradient>
    <linearGradient
       x1="0"
       y1="0"
       x2="1"
       y2="0"
       gradientUnits="userSpaceOnUse"
       gradientTransform="matrix(0,20.478027,-20.478027,0,703.86597,994.52496)"
       spreadMethod="pad"
       id="linearGradient2015"
       inkscape:label="foo">
      <stop
         style="stop-opacity:1;stop-color:#333333"
         offset="0"
         id="stop12" />
      <stop
         style="stop-opacity:1;stop-color:#020300"
         offset="0.41330301"
         id="stop13" />
      <stop
         style="stop-opacity:1;stop-color:#020300"
         offset="0.455307"
         id="stop14" />
      <stop
         style="stop-opacity:1;stop-color:#020300"
         offset="0.799447"
         id="stop15" />
      <stop
         style="stop-opacity:1;stop-color:#020300"
         offset="1"
         id="stop16" />
    </linearGradient>
    <linearGradient
       id="linearGradient4"
       inkscape:collect="always">
      <stop
         style="stop-color:#000000;stop-opacity:1;"
         offset="0"
         id="stop4" />
      <stop
         style="stop-color:#000000;stop-opacity:1;"
         offset="0.5519855"
         id="stop9" />
      <stop
         style="stop-color:#000000;stop-opacity:0;"
         offset="1"
         id="stop5" />
    </linearGradient>
    <clipPath
       clipPathUnits="userSpaceOnUse"
       id="clipPath1984">
      <path
         d="M 0,1080 H 1920 V 0 H 0 Z"
         id="path1984" />
    </clipPath>
    <clipPath
       clipPathUnits="userSpaceOnUse"
       id="clipPath1986">
      <path
         d="M 0,1080 H 1920 V 0 H 0 Z"
         id="path1986" />
    </clipPath>
    <clipPath
       clipPathUnits="userSpaceOnUse"
       id="clipPath1988">
      <path
         d="M 0,1080 H 1920 V 0 H 0 Z"
         transform="translate(-973.86625,-852.17722)"
         id="path1988" />
    </clipPath>
    <clipPath
       clipPathUnits="userSpaceOnUse"
       id="clipPath1990">
      <path
         d="M 0,1080 H 1920 V 0 H 0 Z"
         transform="translate(-973.86625,-981.37302)"
         id="path1990" />
    </clipPath>
    <clipPath
       clipPathUnits="userSpaceOnUse"
       id="clipPath1992">
      <path
         d="M 478.823,840.829 H 937.758 V 820.351 H 478.823 Z"
         id="path1992" />
    </clipPath>
    <linearGradient
       x1="0"
       y1="0"
       x2="1"
       y2="0"
       gradientUnits="userSpaceOnUse"
       gradientTransform="matrix(0,-20.477966,-20.477966,0,708.29053,840.8291)"
       spreadMethod="pad"
       id="linearGradient1997">
      <stop
         style="stop-opacity:1;stop-color:#000000"
         offset="0"
         id="stop1992" />
      <stop
         style="stop-opacity:1;stop-color:#f3f3f3"
         offset="0.41513823"
         id="stop1993" />
      <stop
         style="stop-opacity:1;stop-color:#f3f3f3"
         offset="0.455307"
         id="stop1994" />
      <stop
         style="stop-opacity:1;stop-color:#ffffff"
         offset="0.61935583"
         id="stop1995" />
      <stop
         style="stop-opacity:1;stop-color:#ffffff"
         offset="0.799447"
         id="stop1996" />
      <stop
         style="stop-opacity:1;stop-color:#ffffff"
         offset="1"
         id="stop1997" />
    </linearGradient>
    <clipPath
       clipPathUnits="userSpaceOnUse"
       id="clipPath1998">
      <path
         d="M 478.823,840.829 H 937.758 V 820.351 H 478.823 Z"
         id="path1998" />
    </clipPath>
    <linearGradient
       x1="0"
       y1="0"
       x2="1"
       y2="0"
       gradientUnits="userSpaceOnUse"
       gradientTransform="matrix(0,-20.477966,-20.477966,0,708.29053,840.82898)"
       spreadMethod="pad"
       id="linearGradient2002">
      <stop
         style="stop-opacity:1;stop-color:#333333"
         offset="0"
         id="stop1998" />
      <stop
         style="stop-opacity:1;stop-color:#020300"
         offset="0.41330301"
         id="stop1999" />
      <stop
         style="stop-opacity:1;stop-color:#020300"
         offset="0.455307"
         id="stop2000" />
      <stop
         style="stop-opacity:1;stop-color:#020300"
         offset="0.799447"
         id="stop2001" />
      <stop
         style="stop-opacity:1;stop-color:#020300"
         offset="1"
         id="stop2002" />
    </linearGradient>
    <clipPath
       clipPathUnits="userSpaceOnUse"
       id="clipPath2016">
      <path
         d="M 0,1080 H 1920 V 0 H 0 Z"
         transform="matrix(1.3333333,0,0,-1.3333333,0,1440)"
         id="path2016" />
    </clipPath>
    <mask
       maskUnits="userSpaceOnUse"
       x="0"
       y="0"
       width="1"
       height="1"
       id="mask2003">
      <path
         id="path2004"
         d="M 474.399,1015.003 H 933.333 V 994.525 H 474.399 Z"
         style="fill:#000000;fill-opacity:1;fill-rule:nonzero;stroke:none"
         transform="matrix(1.3333333,0,0,-1.3333333,0,1440)"
         clip-path="url(#clipPath2005)" />
      <path
         d="M 474.399,1015.003 H 933.333 V 994.525 H 474.399 Z"
         transform="matrix(1.3333333,0,0,-1.3333333,0,1440)"
         style="fill:url(#linearGradient2010);stroke:none"
         opacity="1"
         id="path2010"
         clip-path="url(#clipPath2011)" />
    </mask>
    <clipPath
       clipPathUnits="userSpaceOnUse"
       id="clipPath2005">
      <path
         d="M 474.399,1015 H 933.333 V 994.525 H 474.399 Z"
         id="path2005" />
    </clipPath>
    <linearGradient
       x1="0"
       y1="0"
       x2="1"
       y2="0"
       gradientUnits="userSpaceOnUse"
       gradientTransform="matrix(0,20.478027,-20.478027,0,703.86572,994.5249)"
       spreadMethod="pad"
       id="linearGradient2010">
      <stop
         style="stop-opacity:1;stop-color:#000000"
         offset="0"
         id="stop2005" />
      <stop
         style="stop-opacity:1;stop-color:#f3f3f3"
         offset="0.41513823"
         id="stop2006" />
      <stop
         style="stop-opacity:1;stop-color:#f3f3f3"
         offset="0.455307"
         id="stop2007" />
      <stop
         style="stop-opacity:1;stop-color:#ffffff"
         offset="0.61935583"
         id="stop2008" />
      <stop
         style="stop-opacity:1;stop-color:#ffffff"
         offset="0.799447"
         id="stop2009" />
      <stop
         style="stop-opacity:1;stop-color:#ffffff"
         offset="1"
         id="stop2010" />
    </linearGradient>
    <clipPath
       clipPathUnits="userSpaceOnUse"
       id="clipPath2011">
      <path
         d="M 474.399,1015 H 933.333 V 994.525 H 474.399 Z"
         id="path2011" />
    </clipPath>
    <linearGradient
       x1="0"
       y1="0"
       x2="1"
       y2="0"
       gradientUnits="userSpaceOnUse"
       gradientTransform="matrix(0,20.478027,-20.478027,0,703.86597,994.52496)"
       spreadMethod="pad"
       id="linearGradient2015-1">
      <stop
         style="stop-opacity:1;stop-color:#333333"
         offset="0"
         id="stop2011" />
      <stop
         style="stop-opacity:1;stop-color:#020300"
         offset="0.41330301"
         id="stop2012" />
      <stop
         style="stop-opacity:1;stop-color:#020300"
         offset="0.455307"
         id="stop2013" />
      <stop
         style="stop-opacity:1;stop-color:#020300"
         offset="0.799447"
         id="stop2014" />
      <stop
         style="stop-opacity:1;stop-color:#020300"
         offset="1"
         id="stop2015" />
    </linearGradient>
    <clipPath
       clipPathUnits="userSpaceOnUse"
       id="clipPath2020">
      <path
         d="M 0,1080 H 1920 V 0 H 0 Z"
         transform="translate(-973.8652,-847.59962)"
         id="path2020" />
    </clipPath>
    <clipPath
       clipPathUnits="userSpaceOnUse"
       id="clipPath2035">
      <path
         d="m 927.445,1021.789 c -2.74,0 -4.969,-2.16 -4.969,-4.83 v 0 -29.222 c 0,2.672 2.229,4.841 4.969,4.841 v 0 h 41.461 c 2.738,0 4.961,-2.169 4.961,-4.841 v 0 29.222 c 0,2.67 -2.223,4.83 -4.961,4.83 v 0 z"
         transform="matrix(1.3333333,0,0,-1.3333333,0,1440)"
         id="path2035" />
    </clipPath>
    <mask
       maskUnits="userSpaceOnUse"
       x="0"
       y="0"
       width="1"
       height="1"
       id="mask2022">
      <path
         id="path2023"
         d="m 922.476,1021.789 h 51.39 v -34.051 h -51.39 z"
         style="fill:#000000;fill-opacity:1;fill-rule:nonzero;stroke:none"
         transform="matrix(1.3333333,0,0,-1.3333333,0,1440)"
         clip-path="url(#clipPath2024)" />
      <path
         d="m 922.476,1021.789 h 51.39 v -34.051 h -51.39 z"
         transform="matrix(1.3333333,0,0,-1.3333333,0,1440)"
         style="fill:url(#linearGradient2029);stroke:none"
         opacity="1"
         id="path2029"
         clip-path="url(#clipPath2030)" />
    </mask>
    <clipPath
       clipPathUnits="userSpaceOnUse"
       id="clipPath2024">
      <path
         d="m 922.476,1021.79 h 51.39 v -34.052 h -51.39 z"
         id="path2024" />
    </clipPath>
    <linearGradient
       x1="0"
       y1="0"
       x2="1"
       y2="0"
       gradientUnits="userSpaceOnUse"
       gradientTransform="matrix(0,34.05096,-34.05096,0,948.1709,987.73779)"
       spreadMethod="pad"
       id="linearGradient2029">
      <stop
         style="stop-opacity:1;stop-color:#000000"
         offset="0"
         id="stop2024" />
      <stop
         style="stop-opacity:1;stop-color:#f3f3f3"
         offset="0.41513823"
         id="stop2025" />
      <stop
         style="stop-opacity:1;stop-color:#f3f3f3"
         offset="0.455307"
         id="stop2026" />
      <stop
         style="stop-opacity:1;stop-color:#ffffff"
         offset="0.61935583"
         id="stop2027" />
      <stop
         style="stop-opacity:1;stop-color:#ffffff"
         offset="0.799447"
         id="stop2028" />
      <stop
         style="stop-opacity:1;stop-color:#ffffff"
         offset="1"
         id="stop2029" />
    </linearGradient>
    <clipPath
       clipPathUnits="userSpaceOnUse"
       id="clipPath2030">
      <path
         d="m 922.476,1021.79 h 51.39 v -34.052 h -51.39 z"
         id="path2030" />
    </clipPath>
    <linearGradient
       x1="0"
       y1="0"
       x2="1"
       y2="0"
       gradientUnits="userSpaceOnUse"
       gradientTransform="matrix(0,34.050964,-34.050964,0,948.17102,987.73791)"
       spreadMethod="pad"
       id="linearGradient2034">
      <stop
         style="stop-opacity:1;stop-color:#333333"
         offset="0"
         id="stop2030" />
      <stop
         style="stop-opacity:1;stop-color:#020300"
         offset="0.41330301"
         id="stop2031" />
      <stop
         style="stop-opacity:1;stop-color:#020300"
         offset="0.455307"
         id="stop2032" />
      <stop
         style="stop-opacity:1;stop-color:#020300"
         offset="0.799447"
         id="stop2033" />
      <stop
         style="stop-opacity:1;stop-color:#020300"
         offset="1"
         id="stop2034" />
    </linearGradient>
    <clipPath
       clipPathUnits="userSpaceOnUse"
       id="clipPath2048">
      <path
         d="m 438.836,1021.789 c -2.739,0 -4.969,-2.16 -4.969,-4.83 v 0 -29.222 c 0,2.672 2.23,4.841 4.969,4.841 v 0 h 41.461 c 2.739,0 4.96,-2.169 4.96,-4.841 v 0 29.222 c 0,2.67 -2.221,4.83 -4.96,4.83 v 0 z"
         transform="matrix(1.3333333,0,0,-1.3333333,0,1440)"
         id="path2048" />
    </clipPath>
    <mask
       maskUnits="userSpaceOnUse"
       x="0"
       y="0"
       width="1"
       height="1"
       id="mask2035">
      <path
         id="path2036"
         d="m 433.867,1021.789 h 51.39 v -34.051 h -51.39 z"
         style="fill:#000000;fill-opacity:1;fill-rule:nonzero;stroke:none"
         transform="matrix(1.3333333,0,0,-1.3333333,0,1440)"
         clip-path="url(#clipPath2037)" />
      <path
         d="m 433.867,1021.789 h 51.39 v -34.051 h -51.39 z"
         transform="matrix(1.3333333,0,0,-1.3333333,0,1440)"
         style="fill:url(#linearGradient2042);stroke:none"
         opacity="1"
         id="path2042"
         clip-path="url(#clipPath2043)" />
    </mask>
    <clipPath
       clipPathUnits="userSpaceOnUse"
       id="clipPath2037">
      <path
         d="m 433.867,1021.79 h 51.39 v -34.052 h -51.39 z"
         id="path2037" />
    </clipPath>
    <linearGradient
       x1="0"
       y1="0"
       x2="1"
       y2="0"
       gradientUnits="userSpaceOnUse"
       gradientTransform="matrix(0,34.05096,-34.05096,0,459.56201,987.73779)"
       spreadMethod="pad"
       id="linearGradient2042">
      <stop
         style="stop-opacity:1;stop-color:#000000"
         offset="0"
         id="stop2037" />
      <stop
         style="stop-opacity:1;stop-color:#f3f3f3"
         offset="0.41513823"
         id="stop2038" />
      <stop
         style="stop-opacity:1;stop-color:#f3f3f3"
         offset="0.455307"
         id="stop2039" />
      <stop
         style="stop-opacity:1;stop-color:#ffffff"
         offset="0.61935583"
         id="stop2040" />
      <stop
         style="stop-opacity:1;stop-color:#ffffff"
         offset="0.799447"
         id="stop2041" />
      <stop
         style="stop-opacity:1;stop-color:#ffffff"
         offset="1"
         id="stop2042" />
    </linearGradient>
    <clipPath
       clipPathUnits="userSpaceOnUse"
       id="clipPath2043">
      <path
         d="m 433.867,1021.79 h 51.39 v -34.052 h -51.39 z"
         id="path2043" />
    </clipPath>
    <linearGradient
       x1="0"
       y1="0"
       x2="1"
       y2="0"
       gradientUnits="userSpaceOnUse"
       gradientTransform="matrix(0,34.050964,-34.050964,0,459.56195,987.73791)"
       spreadMethod="pad"
       id="linearGradient2047">
      <stop
         style="stop-opacity:1;stop-color:#333333"
         offset="0"
         id="stop2043" />
      <stop
         style="stop-opacity:1;stop-color:#020300"
         offset="0.41330301"
         id="stop2044" />
      <stop
         style="stop-opacity:1;stop-color:#020300"
         offset="0.455307"
         id="stop2045" />
      <stop
         style="stop-opacity:1;stop-color:#020300"
         offset="0.799447"
         id="stop2046" />
      <stop
         style="stop-opacity:1;stop-color:#020300"
         offset="1"
         id="stop2047" />
    </linearGradient>
    <clipPath
       clipPathUnits="userSpaceOnUse"
       id="clipPath2050">
      <path
         d="M 0,1080 H 1920 V 0 H 0 Z"
         transform="translate(-485.25681,-847.62112)"
         id="path2050" />
    </clipPath>
    <clipPath
       clipPathUnits="userSpaceOnUse"
       id="clipPath2053">
      <path
         d="M 0,1080 H 1920 V 0 H 0 Z"
         transform="translate(-584.68751,-865.20702)"
         id="path2053" />
    </clipPath>
    <clipPath
       clipPathUnits="userSpaceOnUse"
       id="clipPath2055">
      <path
         d="M 0,1080 H 1920 V 0 H 0 Z"
         transform="translate(-626.11622,-871.91802)"
         id="path2055" />
    </clipPath>
    <clipPath
       clipPathUnits="userSpaceOnUse"
       id="clipPath2057">
      <path
         d="M 0,1080 H 1920 V 0 H 0 Z"
         transform="translate(-632.88572,-865.17772)"
         id="path2057" />
    </clipPath>
    <clipPath
       clipPathUnits="userSpaceOnUse"
       id="clipPath2059">
      <path
         d="M 0,1080 H 1920 V 0 H 0 Z"
         transform="translate(-674.63332,-871.91802)"
         id="path2059" />
    </clipPath>
    <clipPath
       clipPathUnits="userSpaceOnUse"
       id="clipPath2061">
      <path
         d="M 0,1080 H 1920 V 0 H 0 Z"
         transform="translate(-682.29881,-870.32032)"
         id="path2061" />
    </clipPath>
    <clipPath
       clipPathUnits="userSpaceOnUse"
       id="clipPath2063">
      <path
         d="M 0,1080 H 1920 V 0 H 0 Z"
         transform="translate(-722.10842,-871.91802)"
         id="path2063" />
    </clipPath>
    <clipPath
       clipPathUnits="userSpaceOnUse"
       id="clipPath2065">
      <path
         d="M 0,1080 H 1920 V 0 H 0 Z"
         transform="translate(-731.97562,-869.53562)"
         id="path2065" />
    </clipPath>
    <clipPath
       clipPathUnits="userSpaceOnUse"
       id="clipPath2067">
      <path
         d="M 0,1080 H 1920 V 0 H 0 Z"
         transform="translate(-770.76954,-871.91802)"
         id="path2067" />
    </clipPath>
    <clipPath
       clipPathUnits="userSpaceOnUse"
       id="clipPath2069">
      <path
         d="M 0,1080 H 1920 V 0 H 0 Z"
         transform="translate(-781.59129,-871.36332)"
         id="path2069" />
    </clipPath>
    <clipPath
       clipPathUnits="userSpaceOnUse"
       id="clipPath2071">
      <path
         d="M 0,1080 H 1920 V 0 H 0 Z"
         transform="translate(-819.064,-871.91802)"
         id="path2071" />
    </clipPath>
    <clipPath
       clipPathUnits="userSpaceOnUse"
       id="clipPath2073">
      <path
         d="M 0,1080 H 1920 V 0 H 0 Z"
         transform="translate(-829.68902,-867.37792)"
         id="path2073" />
    </clipPath>
    <clipPath
       clipPathUnits="userSpaceOnUse"
       id="clipPath2075">
      <path
         d="M 0,1080 H 1920 V 0 H 0 Z"
         id="path2075" />
    </clipPath>
    <clipPath
       clipPathUnits="userSpaceOnUse"
       id="clipPath2077">
      <path
         d="M 0,1080 H 1920 V 0 H 0 Z"
         transform="translate(-554.85161,-963.87552)"
         id="path2077" />
    </clipPath>
    <clipPath
       clipPathUnits="userSpaceOnUse"
       id="clipPath2079">
      <path
         d="M 0,1080 H 1920 V 0 H 0 Z"
         transform="translate(-562.44581,-969.37703)"
         id="path2079" />
    </clipPath>
    <clipPath
       clipPathUnits="userSpaceOnUse"
       id="clipPath2081">
      <path
         d="M 0,1080 H 1920 V 0 H 0 Z"
         transform="translate(-569.38282,-966.77292)"
         id="path2081" />
    </clipPath>
    <clipPath
       clipPathUnits="userSpaceOnUse"
       id="clipPath2083">
      <path
         d="M 0,1080 H 1920 V 0 H 0 Z"
         transform="translate(-575.72071,-964.15092)"
         id="path2083" />
    </clipPath>
    <clipPath
       clipPathUnits="userSpaceOnUse"
       id="clipPath2085">
      <path
         d="M 0,1080 H 1920 V 0 H 0 Z"
         transform="translate(-577.84571,-967.15823)"
         id="path2085" />
    </clipPath>
    <clipPath
       clipPathUnits="userSpaceOnUse"
       id="clipPath2087">
      <path
         d="M 0,1080 H 1920 V 0 H 0 Z"
         transform="translate(-585.43991,-966.44342)"
         id="path2087" />
    </clipPath>
    <clipPath
       clipPathUnits="userSpaceOnUse"
       id="clipPath2089">
      <path
         d="M 0,1080 H 1920 V 0 H 0 Z"
         transform="translate(-588.65722,-969.37703)"
         id="path2089" />
    </clipPath>
    <clipPath
       clipPathUnits="userSpaceOnUse"
       id="clipPath2091">
      <path
         d="M 0,1080 H 1920 V 0 H 0 Z"
         transform="translate(-595.59421,-966.77292)"
         id="path2091" />
    </clipPath>
    <clipPath
       clipPathUnits="userSpaceOnUse"
       id="clipPath2093">
      <path
         d="M 0,1080 H 1920 V 0 H 0 Z"
         transform="translate(-597.81592,-964.50833)"
         id="path2093" />
    </clipPath>
    <clipPath
       clipPathUnits="userSpaceOnUse"
       id="clipPath2095">
      <path
         d="M 0,1080 H 1920 V 0 H 0 Z"
         transform="translate(-606.29831,-967.15823)"
         id="path2095" />
    </clipPath>
    <clipPath
       clipPathUnits="userSpaceOnUse"
       id="clipPath2097">
      <path
         d="M 0,1080 H 1920 V 0 H 0 Z"
         transform="translate(-611.49662,-970.05572)"
         id="path2097" />
    </clipPath>
    <clipPath
       clipPathUnits="userSpaceOnUse"
       id="clipPath2099">
      <path
         d="M 0,1080 H 1920 V 0 H 0 Z"
         transform="translate(-618.33692,-963.87552)"
         id="path2099" />
    </clipPath>
    <clipPath
       clipPathUnits="userSpaceOnUse"
       id="clipPath2101">
      <path
         d="M 0,1080 H 1920 V 0 H 0 Z"
         transform="translate(-623.67971,-969.37703)"
         id="path2101" />
    </clipPath>
    <clipPath
       clipPathUnits="userSpaceOnUse"
       id="clipPath2103">
      <path
         d="M 0,1080 H 1920 V 0 H 0 Z"
         transform="translate(-628.08502,-970.05572)"
         id="path2103" />
    </clipPath>
    <clipPath
       clipPathUnits="userSpaceOnUse"
       id="clipPath2105">
      <path
         d="M 0,1080 H 1920 V 0 H 0 Z"
         transform="translate(-639.03221,-966.58982)"
         id="path2105" />
    </clipPath>
    <clipPath
       clipPathUnits="userSpaceOnUse"
       id="clipPath2107">
      <path
         d="M 0,1080 H 1920 V 0 H 0 Z"
         transform="translate(-648.84772,-966.58982)"
         id="path2107" />
    </clipPath>
    <clipPath
       clipPathUnits="userSpaceOnUse"
       id="clipPath2109">
      <path
         d="M 0,1080 H 1920 V 0 H 0 Z"
         transform="translate(-654.21971,-966.44342)"
         id="path2109" />
    </clipPath>
    <clipPath
       clipPathUnits="userSpaceOnUse"
       id="clipPath2111">
      <path
         d="M 0,1080 H 1920 V 0 H 0 Z"
         transform="translate(-661.35011,-964.07712)"
         id="path2111" />
    </clipPath>
    <clipPath
       clipPathUnits="userSpaceOnUse"
       id="clipPath2113">
      <path
         d="M 0,1080 H 1920 V 0 H 0 Z"
         transform="translate(-663.24322,-970.05572)"
         id="path2113" />
    </clipPath>
    <clipPath
       clipPathUnits="userSpaceOnUse"
       id="clipPath2115">
      <path
         d="M 0,1080 H 1920 V 0 H 0 Z"
         id="path2115" />
    </clipPath>
    <clipPath
       clipPathUnits="userSpaceOnUse"
       id="clipPath2117">
      <path
         d="M 0,1080 H 1920 V 0 H 0 Z"
         transform="translate(-671.01071,-963.87552)"
         id="path2117" />
    </clipPath>
    <clipPath
       clipPathUnits="userSpaceOnUse"
       id="clipPath2119">
      <path
         d="M 0,1080 H 1920 V 0 H 0 Z"
         transform="translate(-680.74022,-966.77292)"
         id="path2119" />
    </clipPath>
    <clipPath
       clipPathUnits="userSpaceOnUse"
       id="clipPath2121">
      <path
         d="M 0,1080 H 1920 V 0 H 0 Z"
         transform="translate(-685.71532,-969.08352)"
         id="path2121" />
    </clipPath>
    <clipPath
       clipPathUnits="userSpaceOnUse"
       id="clipPath2123">
      <path
         d="M 0,1080 H 1920 V 0 H 0 Z"
         transform="translate(-692.16941,-965.82863)"
         id="path2123" />
    </clipPath>
    <clipPath
       clipPathUnits="userSpaceOnUse"
       id="clipPath2125">
      <path
         d="M 0,1080 H 1920 V 0 H 0 Z"
         transform="translate(-696.97072,-964.48103)"
         id="path2125" />
    </clipPath>
    <clipPath
       clipPathUnits="userSpaceOnUse"
       id="clipPath2127">
      <path
         d="M 0,1080 H 1920 V 0 H 0 Z"
         id="path2127" />
    </clipPath>
    <clipPath
       clipPathUnits="userSpaceOnUse"
       id="clipPath2129">
      <path
         d="M 0,1080 H 1920 V 0 H 0 Z"
         transform="translate(-704.91262,-969.37703)"
         id="path2129" />
    </clipPath>
    <clipPath
       clipPathUnits="userSpaceOnUse"
       id="clipPath2131">
      <path
         d="M 0,1080 H 1920 V 0 H 0 Z"
         transform="translate(-711.36622,-964.50833)"
         id="path2131" />
    </clipPath>
    <clipPath
       clipPathUnits="userSpaceOnUse"
       id="clipPath2133">
      <path
         d="M 0,1080 H 1920 V 0 H 0 Z"
         transform="translate(-717.80082,-967.15823)"
         id="path2133" />
    </clipPath>
    <clipPath
       clipPathUnits="userSpaceOnUse"
       id="clipPath2135">
      <path
         d="M 0,1080 H 1920 V 0 H 0 Z"
         transform="translate(-722.99852,-970.05572)"
         id="path2135" />
    </clipPath>
    <clipPath
       clipPathUnits="userSpaceOnUse"
       id="clipPath2137">
      <path
         d="M 0,1080 H 1920 V 0 H 0 Z"
         transform="translate(-733.89702,-966.58982)"
         id="path2137" />
    </clipPath>
    <clipPath
       clipPathUnits="userSpaceOnUse"
       id="clipPath2139">
      <path
         d="M 0,1080 H 1920 V 0 H 0 Z"
         transform="translate(-738.10892,-964.84772)"
         id="path2139" />
    </clipPath>
    <clipPath
       clipPathUnits="userSpaceOnUse"
       id="clipPath2141">
      <path
         d="M 0,1080 H 1920 V 0 H 0 Z"
         transform="translate(-746.17632,-966.44342)"
         id="path2141" />
    </clipPath>
    <clipPath
       clipPathUnits="userSpaceOnUse"
       id="clipPath2143">
      <path
         d="M 0,1080 H 1920 V 0 H 0 Z"
         transform="translate(-754.35009,-966.58982)"
         id="path2143" />
    </clipPath>
    <clipPath
       clipPathUnits="userSpaceOnUse"
       id="clipPath2145">
      <path
         d="M 0,1080 H 1920 V 0 H 0 Z"
         transform="translate(-757.47069,-967.00242)"
         id="path2145" />
    </clipPath>
    <clipPath
       clipPathUnits="userSpaceOnUse"
       id="clipPath2147">
      <path
         d="M 0,1080 H 1920 V 0 H 0 Z"
         transform="translate(-761.76954,-970.05572)"
         id="path2147" />
    </clipPath>
    <clipPath
       clipPathUnits="userSpaceOnUse"
       id="clipPath2149">
      <path
         d="M 0,1080 H 1920 V 0 H 0 Z"
         transform="translate(-769.70214,-966.77292)"
         id="path2149" />
    </clipPath>
    <clipPath
       clipPathUnits="userSpaceOnUse"
       id="clipPath2151">
      <path
         d="M 0,1080 H 1920 V 0 H 0 Z"
         transform="translate(-771.92379,-967.15823)"
         id="path2151" />
    </clipPath>
    <clipPath
       clipPathUnits="userSpaceOnUse"
       id="clipPath2153">
      <path
         d="M 0,1080 H 1920 V 0 H 0 Z"
         transform="translate(-779.63334,-963.50882)"
         id="path2153" />
    </clipPath>
    <clipPath
       clipPathUnits="userSpaceOnUse"
       id="clipPath2155">
      <path
         d="M 0,1080 H 1920 V 0 H 0 Z"
         transform="translate(-793.27592,-966.58982)"
         id="path2155" />
    </clipPath>
    <clipPath
       clipPathUnits="userSpaceOnUse"
       id="clipPath2157">
      <path
         d="M 0,1080 H 1920 V 0 H 0 Z"
         id="path2157" />
    </clipPath>
    <clipPath
       clipPathUnits="userSpaceOnUse"
       id="clipPath2159">
      <path
         d="M 0,1080 H 1920 V 0 H 0 Z"
         transform="translate(-798.70509,-964.50833)"
         id="path2159" />
    </clipPath>
    <clipPath
       clipPathUnits="userSpaceOnUse"
       id="clipPath2161">
      <path
         d="M 0,1080 H 1920 V 0 H 0 Z"
         id="path2161" />
    </clipPath>
    <clipPath
       clipPathUnits="userSpaceOnUse"
       id="clipPath2163">
      <path
         d="M 0,1080 H 1920 V 0 H 0 Z"
         transform="translate(-808.54,-964.84772)"
         id="path2163" />
    </clipPath>
    <clipPath
       clipPathUnits="userSpaceOnUse"
       id="clipPath2165">
      <path
         d="M 0,1080 H 1920 V 0 H 0 Z"
         transform="translate(-816.7915,-966.77292)"
         id="path2165" />
    </clipPath>
    <clipPath
       clipPathUnits="userSpaceOnUse"
       id="clipPath2167">
      <path
         d="M 0,1080 H 1920 V 0 H 0 Z"
         transform="translate(-822.8491,-966.99323)"
         id="path2167" />
    </clipPath>
    <clipPath
       clipPathUnits="userSpaceOnUse"
       id="clipPath2169">
      <path
         d="M 0,1080 H 1920 V 0 H 0 Z"
         transform="translate(-825.66992,-970.05572)"
         id="path2169" />
    </clipPath>
    <clipPath
       clipPathUnits="userSpaceOnUse"
       id="clipPath2171">
      <path
         d="M 0,1080 H 1920 V 0 H 0 Z"
         transform="translate(-834.45265,-966.77292)"
         id="path2171" />
    </clipPath>
    <clipPath
       clipPathUnits="userSpaceOnUse"
       id="clipPath2173">
      <path
         d="M 0,1080 H 1920 V 0 H 0 Z"
         transform="translate(-835.83355,-963.87552)"
         id="path2173" />
    </clipPath>
    <clipPath
       clipPathUnits="userSpaceOnUse"
       id="clipPath2175">
      <path
         d="M 0,1080 H 1920 V 0 H 0 Z"
         transform="translate(-846.7417,-964.07712)"
         id="path2175" />
    </clipPath>
    <clipPath
       clipPathUnits="userSpaceOnUse"
       id="clipPath2177">
      <path
         d="M 0,1080 H 1920 V 0 H 0 Z"
         transform="translate(-851.16655,-966.77292)"
         id="path2177" />
    </clipPath>
    <clipPath
       clipPathUnits="userSpaceOnUse"
       id="clipPath2179">
      <path
         d="M 0,1080 H 1920 V 0 H 0 Z"
         transform="translate(-853.38872,-967.15823)"
         id="path2179" />
    </clipPath>
    <mask
       maskUnits="userSpaceOnUse"
       id="mask2">
      <g
         id="g3"
         transform="matrix(2.8346458,0,0,-2.8346458,404.47564,1063.4198)">
        <path
           id="path2"
           d="M 478.823,840.829 H 937.758 V 820.351 H 478.823 Z"
           style="fill:#000000;fill-opacity:1;fill-rule:nonzero;stroke:none"
           transform="matrix(0.35277776,0,0,-0.35277776,-142.69001,375.15087)"
           clip-path="url(#clipPath1992)" />
        <path
           d="m 478.823,820.351 h 458.935 v 20.478 H 478.823 Z"
           transform="matrix(0.35277776,0,0,-0.35277776,-142.69001,375.15087)"
           style="fill:url(#linearGradient3);stroke:none"
           opacity="1"
           id="path3"
           clip-path="url(#clipPath1998)" />
      </g>
    </mask>
    <linearGradient
       inkscape:collect="always"
       xlink:href="#linearGradient1997"
       id="linearGradient3"
       gradientUnits="userSpaceOnUse"
       gradientTransform="matrix(0,-20.477966,-20.477966,0,708.29053,840.8291)"
       x1="0"
       y1="0"
       x2="1"
       y2="0"
       spreadMethod="pad" />
    <clipPath
       clipPathUnits="userSpaceOnUse"
       id="clipPath3">
      <g
         id="g4"
         transform="matrix(2.8346458,0,0,-2.8346458,404.47564,1063.4198)">
        <path
           d="M -142.69001,-5.8491143 H 534.6433 V 375.15087 h -677.33331 z"
           id="path4"
           style="stroke-width:0.352778" />
      </g>
    </clipPath>
    <linearGradient
       inkscape:collect="always"
       xlink:href="#linearGradient4"
       id="linearGradient5"
       x1="61.072742"
       y1="116.97218"
       x2="61.072742"
       y2="86.048988"
       gradientUnits="userSpaceOnUse"
       gradientTransform="matrix(4.3143766,0,0,0.23429329,-159.47805,58.335665)" />
    <linearGradient
       inkscape:collect="always"
       xlink:href="#linearGradient21"
       id="linearGradient9"
       gradientUnits="userSpaceOnUse"
       gradientTransform="matrix(4.19015,0,0,0.23429329,-152.10904,-3.620723)"
       x1="61.072742"
       y1="116.97218"
       x2="61.072742"
       y2="86.048988" />
    <mask
       maskUnits="userSpaceOnUse"
       x="0"
       y="0"
       width="1"
       height="1"
       id="mask2035-1">
      <path
         id="path2036-7"
         d="m 433.867,1021.789 h 51.39 v -34.051 h -51.39 z"
         style="fill:#000000;fill-opacity:1;fill-rule:nonzero;stroke:none"
         transform="matrix(1.3333333,0,0,-1.3333333,0,1440)"
         clip-path="url(#clipPath2037-5)" />
      <path
         d="m 433.867,1021.789 h 51.39 v -34.051 h -51.39 z"
         transform="matrix(1.3333333,0,0,-1.3333333,0,1440)"
         style="fill:url(#linearGradient2042);stroke:none"
         opacity="1"
         id="path2042-6"
         clip-path="url(#clipPath2043-2)" />
    </mask>
    <clipPath
       clipPathUnits="userSpaceOnUse"
       id="clipPath2037-5">
      <path
         d="m 433.867,1021.79 h 51.39 v -34.052 h -51.39 z"
         id="path2037-0" />
    </clipPath>
    <clipPath
       clipPathUnits="userSpaceOnUse"
       id="clipPath2043-2">
      <path
         d="m 433.867,1021.79 h 51.39 v -34.052 h -51.39 z"
         id="path2043-4" />
    </clipPath>
    <linearGradient
       inkscape:collect="always"
       xlink:href="#linearGradient27"
       id="linearGradient25"
       x1="19.292603"
       y1="20.872107"
       x2="19.245743"
       y2="25.574667"
       gradientUnits="userSpaceOnUse" />
    <linearGradient
       inkscape:collect="always"
       xlink:href="#linearGradient27"
       id="linearGradient28"
       gradientUnits="userSpaceOnUse"
       x1="19.292603"
       y1="20.872107"
       x2="19.245743"
       y2="25.574667"
       gradientTransform="translate(172.37036)" />
  </defs>
  <g
     inkscape:label="Layer 1"
     inkscape:groupmode="layer"
     id="layer1">
    <g
       id="g28" />
    <path
       id="path1983"
       d="m 853.87,882.475 h -300 v 77.21 h 300 z m 119.97,134.94 c -0.01,0.17 -0.04,0.33 -0.07,0.49 -0.03,0.16 -0.07,0.32 -0.12,0.47 -0.03,0.09 -0.06,0.17 -0.09,0.25 -0.02,0.07 -0.05,0.14 -0.08,0.21 -0.74,1.75 -2.48,2.98 -4.5,2.98 H 438.76 c -2.02,0 -3.76,-1.23 -4.5,-2.98 -0.03,-0.07 -0.06,-0.14 -0.08,-0.21 -0.03,-0.08 -0.06,-0.16 -0.091,-0.25 -0.049,-0.15 -0.089,-0.31 -0.119,-0.47 -0.03,-0.16 -0.06,-0.32 -0.07,-0.49 -0.02,-0.15 -0.03,-0.31 -0.03,-0.46 v -191.76 c 0,-0.15 0.01,-0.3 0.03,-0.45 0.05,-0.49 0.17,-0.96 0.35,-1.4 0.19,-0.45 0.45,-0.86 0.76,-1.23 0.456,-0.553 1.046,-0.987 1.706,-1.291 0.015,-0.006 0.028,-0.013 0.043,-0.02 0.198,-0.088 0.401,-0.162 0.612,-0.224 0.024,-0.007 0.045,-0.018 0.069,-0.025 0.14,-0.05 0.28,-0.08 0.43,-0.11 0.13,-0.02 0.26,-0.04 0.39,-0.06 h 0.01 c 0.11,-0.02 0.22,-0.02 0.339,-0.02 0.081,-0.01 0.151,-0.01 0.23,-0.01 H 968.98 c 0.17,0 0.34,0.01 0.5,0.03 0.12,0.01 0.24,0.03 0.35,0.05 1.01,0.17 1.91,0.66 2.61,1.35 0.77,0.78 1.29,1.81 1.4,2.96 0.02,0.14 0.03,0.28 0.03,0.42 v 191.79 c 0,0.15 -0.01,0.31 -0.03,0.46"
       style="fill:#020b28;fill-opacity:1;fill-rule:nonzero;stroke:none"
       transform="matrix(0.35277777,0,0,-0.35277777,-142.69001,375.15088)"
       clip-path="url(#clipPath1984)" />
    <path
       id="path1985"
       d="M 924.15,853.415 H 483.94 v 126.86 h 440.21 z m 47.82,162.25 c -0.01,0.17 -0.04,0.32 -0.07,0.48 -0.03,0.16 -0.07,0.32 -0.12,0.46 -0.05,0.15 -0.1,0.3 -0.17,0.45 -0.02,0.04 -0.04,0.08 -0.07,0.13 -0.1,0.24 -0.23,0.47 -0.38,0.68 -0.86,1.28 -2.34,2.12 -4.02,2.12 H 440.76 c -1.671,0 -3.151,-0.84 -4.02,-2.12 -0.09,-0.13 -0.16,-0.26 -0.23,-0.39 -0.05,-0.09 -0.1,-0.19 -0.14,-0.29 -0.031,-0.05 -0.05,-0.09 -0.07,-0.13 -0.07,-0.15 -0.12,-0.3 -0.17,-0.45 -0.05,-0.14 -0.09,-0.3 -0.12,-0.46 -0.03,-0.16 -0.06,-0.31 -0.07,-0.48 -0.02,-0.15 -0.03,-0.3 -0.03,-0.45 v -188.29 c 0,-0.15 0.01,-0.29 0.03,-0.44 0.06,-0.65 0.26,-1.26 0.56,-1.8 0.15,-0.28 0.33,-0.54 0.54,-0.78 0.16,-0.19 0.33,-0.36 0.52,-0.52 0.16,-0.14 0.33,-0.27 0.52,-0.39 0.019,-0.01 0.029,-0.02 0.05,-0.04 0.53,-0.33 1.12,-0.59 1.76,-0.7 0.13,-0.02 0.25,-0.04 0.38,-0.05 h 0.01 c 0.11,-0.02 0.22,-0.02 0.34,-0.02 0.08,-0.01 0.14,-0.01 0.219,-0.01 H 967.14 c 0.17,0 0.34,0.01 0.5,0.03 0.13,0.01 0.25,0.03 0.38,0.05 2.1,0.37 3.73,2.1 3.95,4.23 0.02,0.14 0.03,0.28 0.03,0.41 v 188.32 c 0,0.15 -0.01,0.3 -0.03,0.45"
       style="fill:#414851;fill-opacity:1;fill-rule:nonzero;stroke:none"
       transform="matrix(0.35277777,0,0,-0.35277777,-142.69001,375.15088)"
       clip-path="url(#clipPath1986)" />
    <path
       id="path1987"
       d="m 0,0 h -540 v -26.75 c 0,-2.815 2.282,-5.098 5.098,-5.098 H -5.099 c 2.817,0 5.099,2.283 5.099,5.098 z"
       style="fill:#1b202c;fill-opacity:1;fill-rule:nonzero;stroke:none"
       transform="matrix(0.35277777,0,0,-0.35277777,200.86835,74.521692)"
       clip-path="url(#clipPath1988)" />
    <path
       id="path1989"
       d="m 0,0 h -540 v 35.382 c 0,2.792 2.263,5.056 5.056,5.056 H -5.056 C -2.265,40.438 0,38.174 0,35.382 Z"
       style="fill:#09131e;fill-opacity:1;fill-rule:nonzero;stroke:none"
       transform="matrix(0.35277777,0,0,-0.35277777,200.86835,28.94429)"
       clip-path="url(#clipPath1990)" />
    <path
       id="path2017"
       d="m 0,0 v -191.785 c 0,-2.672 -2.222,-4.837 -4.963,-4.837 h -41.465 c -2.741,0 -4.963,2.165 -4.963,4.837 V 0 c 0,2.671 2.222,4.837 4.963,4.837 H -4.963 C -2.222,4.837 0,2.671 0,0"
       style="fill:#141923;fill-opacity:1;fill-rule:nonzero;stroke:none"
       transform="matrix(0.35277777,0,0,-0.35277777,200.86835,16.392915)"
       clip-path="none" />
    <path
       id="path2019"
       d="m 0,0 v -22.43 c 0,-2.67 -2.22,-4.84 -4.96,-4.84 h -41.46 c -2.74,0 -4.97,2.17 -4.97,4.84 V 0 c 0,-2.67 2.23,-4.83 4.97,-4.83 H -4.96 C -2.22,-4.83 0,-2.67 0,0"
       style="fill:#050409;fill-opacity:1;fill-rule:nonzero;stroke:none"
       transform="matrix(0.35277777,0,0,-0.35277777,200.86798,76.136574)"
       clip-path="url(#clipPath2020)" />
    <path
       id="path2021"
       d="m 0,0 v -191.785 c 0,-2.672 -2.222,-4.837 -4.963,-4.837 h -41.465 c -2.741,0 -4.963,2.165 -4.963,4.837 V 0 c 0,2.671 2.222,4.837 4.963,4.837 H -4.963 C -2.222,4.837 0,2.671 0,0"
       style="fill:#151a26;fill-opacity:1;fill-rule:nonzero;stroke:none"
       transform="matrix(0.35277777,0,0,-0.35277777,28.497985,16.392915)"
       clip-path="none" />
    <path
       d="m 12.119925,14.686529 c -0.966258,0 -1.752953,0.762 -1.752953,1.703917 v 0 10.308871 c 0,-0.942622 0.786695,-1.707797 1.752953,-1.707797 v 0 h 14.626519 c 0.966258,0 1.749778,0.765175 1.749778,1.707797 v 0 -10.308871 c 0,-0.941917 -0.78352,-1.703917 -1.749778,-1.703917 v 0 z"
       id="path2048-6"
       style="display:inline;stroke-width:0.352778;fill:url(#linearGradient25)" />
    <path
       d="m 184.49029,14.686529 c -0.96626,0 -1.75296,0.762 -1.75296,1.703917 v 0 10.308871 c 0,-0.942622 0.7867,-1.707797 1.75296,-1.707797 v 0 h 14.62652 c 0.96625,0 1.74977,0.765175 1.74977,1.707797 v 0 -10.308871 c 0,-0.941917 -0.78352,-1.703917 -1.74977,-1.703917 v 0 z"
       id="path2048-6-9"
       style="display:inline;fill:url(#linearGradient28);stroke-width:0.352778" />
    <path
       id="path2049"
       d="m 0,0 v -22.43 c 0,-2.67 -2.22,-4.84 -4.96,-4.84 h -41.46 c -2.74,0 -4.97,2.17 -4.97,4.84 V 0 c 0,-2.67 2.23,-4.83 4.97,-4.83 H -4.96 C -2.22,-4.83 0,-2.67 0,0"
       style="fill:#050409;fill-opacity:1;fill-rule:nonzero;stroke:none"
       transform="matrix(0.35277777,0,0,-0.35277777,28.497805,76.128983)"
       clip-path="url(#clipPath2050)" />
    <path
       id="path2051"
       d="m 60.786115,67.557583 h 1.36172 v 0.18344 h -1.10243 v 0.86678 h 1.03187 v 0.18238 h -1.03187 v 1.16452 h -0.25929 z"
       style="fill:#454a5e;fill-opacity:1;fill-rule:nonzero;stroke:none;stroke-width:0.352777" />
    <path
       id="path2052"
       d="M 0,0 V 5.915 C -0.28,5.756 -0.977,5.568 -1.306,5.538 V 6.005 C -0.712,6.13 -0.05,6.416 0.221,6.627 H 0.723 V 0 Z"
       style="fill:#454a5e;fill-opacity:1;fill-rule:nonzero;stroke:none"
       transform="matrix(0.35277777,0,0,-0.35277777,63.574745,69.925073)"
       clip-path="url(#clipPath2053)" />
    <path
       id="path2054"
       d="M 0,0 H 3.86 V -0.52 H 0.735 V -2.977 H 3.66 V -3.494 H 0.735 V -6.795 H 0 Z"
       style="fill:#454a5e;fill-opacity:1;fill-rule:nonzero;stroke:none"
       transform="matrix(0.35277777,0,0,-0.35277777,78.189876,67.557584)"
       clip-path="url(#clipPath2055)" />
    <path
       id="path2056"
       d="m 0,0 v 0.045 c 0.002,0.702 0.588,1.646 1.928,2.782 1.126,0.949 1.494,1.328 1.494,2.119 0,0.629 -0.246,1.247 -1.234,1.247 -0.867,0 -1.277,-0.508 -1.324,-1.339 H 0.141 c 0.012,0.94 0.601,1.831 2.055,1.831 1.488,0 1.976,-0.813 1.976,-1.73 C 4.172,4.004 3.726,3.543 2.59,2.611 1.478,1.692 0.979,0.973 0.84,0.505 H 4.413 L 4.302,0 Z"
       style="fill:#454a5e;fill-opacity:1;fill-rule:nonzero;stroke:none"
       transform="matrix(0.35277777,0,0,-0.35277777,80.578005,69.935402)"
       clip-path="url(#clipPath2057)" />
    <path
       id="path2058"
       d="M 0,0 H 3.86 V -0.52 H 0.735 V -2.977 H 3.66 V -3.494 H 0.735 V -6.795 H 0 Z"
       style="fill:#454a5e;fill-opacity:1;fill-rule:nonzero;stroke:none"
       transform="matrix(0.35277777,0,0,-0.35277777,95.305626,67.557584)"
       clip-path="url(#clipPath2059)" />
    <path
       id="path2060"
       d="m 0,0 h -0.678 c 0.01,0.622 0.396,1.588 1.937,1.588 1.372,0 1.845,-0.742 1.845,-1.623 0,-0.858 -0.484,-1.281 -1.04,-1.434 v -0.012 c 0.781,-0.203 1.297,-0.683 1.297,-1.716 0,-0.966 -0.493,-1.991 -2.165,-1.991 -1.566,0 -2.025,0.884 -2.064,1.678 h 0.702 c 0.027,-0.547 0.392,-1.187 1.379,-1.187 1.153,0 1.402,0.811 1.402,1.478 0,1.19 -0.74,1.466 -1.669,1.466 H 0.581 v 0.488 h 0.37 c 0.839,0 1.421,0.288 1.421,1.207 0,0.661 -0.289,1.154 -1.151,1.154 C 0.131,1.096 0.026,0.269 0,0"
       style="fill:#454a5e;fill-opacity:1;fill-rule:nonzero;stroke:none"
       transform="matrix(0.35277777,0,0,-0.35277777,98.009845,68.121212)"
       clip-path="url(#clipPath2061)" />
    <path
       id="path2062"
       d="M 0,0 H 3.86 V -0.52 H 0.735 V -2.977 H 3.66 V -3.494 H 0.735 V -6.795 H 0 Z"
       style="fill:#454a5e;fill-opacity:1;fill-rule:nonzero;stroke:none"
       transform="matrix(0.35277777,0,0,-0.35277777,112.05378,67.557584)"
       clip-path="url(#clipPath2063)" />
    <path
       id="path2064"
       d="M 0,0 C 0,0.536 -0.007,1.246 0.03,1.729 -0.401,0.931 -1.625,-0.91 -2.34,-2.002 H 0 Z m 0,-4.318 v 1.821 h -3.083 v 0.488 l 2.867,4.297 h 0.927 v -4.29 H 1.568 L 1.48,-2.497 H 0.711 v -1.821 z"
       style="fill:#454a5e;fill-opacity:1;fill-rule:nonzero;stroke:none"
       transform="matrix(0.35277777,0,0,-0.35277777,115.53471,68.398043)"
       clip-path="url(#clipPath2065)" />
    <path
       id="path2066"
       d="M 0,0 H 3.86 V -0.52 H 0.736 V -2.977 H 3.66 V -3.494 H 0.736 V -6.795 H 0 Z"
       style="fill:#454a5e;fill-opacity:1;fill-rule:nonzero;stroke:none"
       transform="matrix(0.35277777,0,0,-0.35277777,129.22035,67.557584)"
       clip-path="url(#clipPath2067)" />
    <path
       id="path2068"
       d="m 0,0 h -2.69 c -0.06,-0.698 -0.217,-1.918 -0.267,-2.307 0.243,0.287 0.672,0.515 1.401,0.515 1.361,0 1.926,-0.858 1.926,-2.047 0,-1.251 -0.501,-2.351 -2.153,-2.351 -1.567,0 -1.993,0.856 -2.053,1.665 h 0.74 c 0.049,-0.463 0.227,-1.173 1.332,-1.173 1.052,0 1.373,0.799 1.373,1.814 0,0.88 -0.286,1.598 -1.278,1.598 -0.8,0 -1.162,-0.367 -1.367,-0.874 l -0.687,0.109 c 0.124,0.742 0.326,2.537 0.414,3.556 h 3.414 z"
       style="fill:#454a5e;fill-opacity:1;fill-rule:nonzero;stroke:none"
       transform="matrix(0.35277777,0,0,-0.35277777,133.03802,67.753262)"
       clip-path="url(#clipPath2069)" />
    <path
       id="path2070"
       d="M 0,0 H 3.86 V -0.52 H 0.735 V -2.977 H 3.66 V -3.494 H 0.735 V -6.795 H 0 Z"
       style="fill:#454a5e;fill-opacity:1;fill-rule:nonzero;stroke:none"
       transform="matrix(0.35277777,0,0,-0.35277777,146.25756,67.557584)"
       clip-path="url(#clipPath2071)" />
    <path
       id="path2072"
       d="m 0,0 c 0,0.983 -0.364,1.647 -1.33,1.647 -1.07,0 -1.477,-0.707 -1.477,-1.317 0,-0.89 0.247,-2.09 1.425,-2.09 C -0.545,-1.76 0,-1.207 0,0 m -0.16,3.127 c -0.017,0.086 -0.083,0.918 -1.114,0.918 -1.456,0 -1.494,-1.777 -1.531,-2.647 0.223,0.355 0.713,0.744 1.601,0.744 1.345,0 1.946,-0.859 1.946,-2.101 0,-1.179 -0.538,-2.29 -2.135,-2.29 -1.803,0 -2.152,1.376 -2.152,3.274 0,2.097 0.534,3.509 2.305,3.509 1.515,0 1.757,-1.048 1.774,-1.407 z"
       style="fill:#454a5e;fill-opacity:1;fill-rule:nonzero;stroke:none"
       transform="matrix(0.35277777,0,0,-0.35277777,150.00583,69.159223)"
       clip-path="url(#clipPath2073)" />
    <path
       id="path2074"
       d="m 553.383,963.876 h -0.841 v 6.18 h 0.841 z"
       style="fill:#454a5e;fill-opacity:1;fill-rule:nonzero;stroke:none"
       transform="matrix(0.35277777,0,0,-0.35277777,-142.69001,375.15088)"
       clip-path="url(#clipPath2075)" />
    <path
       id="path2076"
       d="M 0,0 V 6.18 H 0.918 L 3.005,3.053 C 3.488,2.329 3.865,1.678 4.174,1.045 L 4.193,1.054 C 4.116,1.88 4.097,2.632 4.097,3.594 V 6.18 H 4.889 V 0 H 4.039 L 1.971,3.136 C 1.517,3.823 1.082,4.53 0.754,5.199 L 0.725,5.19 C 0.773,4.41 0.792,3.668 0.792,2.641 V 0 Z"
       style="fill:#454a5e;fill-opacity:1;fill-rule:nonzero;stroke:none"
       transform="matrix(0.35277777,0,0,-0.35277777,53.049305,35.117019)"
       clip-path="url(#clipPath2077)" />
    <path
       id="path2078"
       d="M 0,0 H -1.981 V 0.678 H 2.841 V 0 H 0.85 V -5.502 H 0 Z"
       style="fill:#454a5e;fill-opacity:1;fill-rule:nonzero;stroke:none"
       transform="matrix(0.35277777,0,0,-0.35277777,55.728375,33.17621)"
       clip-path="url(#clipPath2079)" />
    <path
       id="path2080"
       d="M 0,0 H -2.532 V -2.228 H 0.29 v -0.669 h -3.662 v 6.18 H 0.145 V 2.613 H -2.532 V 0.66 H 0 Z"
       style="fill:#454a5e;fill-opacity:1;fill-rule:nonzero;stroke:none"
       transform="matrix(0.35277777,0,0,-0.35277777,58.175594,34.09488)"
       clip-path="url(#clipPath2081)" />
    <path
       id="path2082"
       d="m 0,0 c -0.377,-0.128 -1.121,-0.339 -2,-0.339 -0.986,0 -1.797,0.238 -2.435,0.816 -0.56,0.513 -0.908,1.338 -0.908,2.301 0.009,1.843 1.343,3.191 3.526,3.191 0.754,0 1.344,-0.156 1.624,-0.284 L -0.396,5.034 C -0.744,5.181 -1.179,5.3 -1.836,5.3 -3.42,5.3 -4.454,4.365 -4.454,2.815 c 0,-1.568 0.995,-2.494 2.512,-2.494 0.551,0 0.927,0.073 1.121,0.165 V 2.329 H -2.145 V 2.971 H 0 Z"
       style="fill:#454a5e;fill-opacity:1;fill-rule:nonzero;stroke:none"
       transform="matrix(0.35277777,0,0,-0.35277777,60.411466,35.019864)"
       clip-path="url(#clipPath2083)" />
    <path
       id="path2084"
       d="M 0,0 H 0.86 C 1.759,0 2.329,0.468 2.329,1.174 2.329,1.971 1.72,2.32 0.831,2.329 0.425,2.329 0.135,2.292 0,2.256 Z m -0.841,2.815 c 0.426,0.082 1.034,0.128 1.614,0.128 0.899,0 1.478,-0.156 1.884,-0.504 C 2.986,2.164 3.169,1.742 3.169,1.265 3.169,0.449 2.628,-0.092 1.942,-0.312 V -0.339 C 2.445,-0.504 2.744,-0.945 2.899,-1.586 3.111,-2.448 3.266,-3.044 3.401,-3.283 H 2.532 C 2.425,-3.108 2.28,-2.577 2.097,-1.806 1.904,-0.954 1.556,-0.633 0.792,-0.605 H 0 v -2.678 h -0.841 z"
       style="fill:#454a5e;fill-opacity:1;fill-rule:nonzero;stroke:none"
       transform="matrix(0.35277777,0,0,-0.35277777,61.161115,33.958953)"
       clip-path="url(#clipPath2085)" />
    <path
       id="path2086"
       d="m 0,0 -0.638,1.779 c -0.145,0.403 -0.241,0.77 -0.338,1.128 H -0.995 C -1.092,2.54 -1.198,2.164 -1.324,1.788 L -1.961,0 Z m -2.135,-0.623 -0.677,-1.944 h -0.869 l 2.212,6.18 h 1.015 l 2.222,-6.18 H 0.87 l -0.696,1.944 z"
       style="fill:#454a5e;fill-opacity:1;fill-rule:nonzero;stroke:none"
       transform="matrix(0.35277777,0,0,-0.35277777,63.840175,34.21112)"
       clip-path="url(#clipPath2087)" />
    <path
       id="path2088"
       d="M 0,0 H -1.981 V 0.678 H 2.841 V 0 H 0.85 V -5.502 H 0 Z"
       style="fill:#454a5e;fill-opacity:1;fill-rule:nonzero;stroke:none"
       transform="matrix(0.35277777,0,0,-0.35277777,64.975174,33.17621)"
       clip-path="url(#clipPath2089)" />
    <path
       id="path2090"
       d="M 0,0 H -2.532 V -2.228 H 0.29 v -0.669 h -3.662 v 6.18 H 0.145 V 2.613 H -2.532 V 0.66 H 0 Z"
       style="fill:#454a5e;fill-opacity:1;fill-rule:nonzero;stroke:none"
       transform="matrix(0.35277777,0,0,-0.35277777,67.422395,34.09488)"
       clip-path="url(#clipPath2091)" />
    <path
       id="path2092"
       d="m 0,0 c 0.213,-0.037 0.522,-0.046 0.85,-0.046 1.798,0 2.773,0.954 2.773,2.623 C 3.633,4.034 2.763,4.961 0.986,4.961 0.551,4.961 0.222,4.924 0,4.878 Z m -0.841,5.465 c 0.512,0.073 1.121,0.128 1.788,0.128 1.208,0 2.068,-0.266 2.638,-0.77 C 4.164,4.319 4.503,3.603 4.503,2.604 4.503,1.595 4.174,0.77 3.565,0.202 2.957,-0.376 1.952,-0.688 0.686,-0.688 c -0.599,0 -1.102,0.028 -1.527,0.074 z"
       style="fill:#454a5e;fill-opacity:1;fill-rule:nonzero;stroke:none"
       transform="matrix(0.35277777,0,0,-0.35277777,68.206154,34.893779)"
       clip-path="url(#clipPath2093)" />
    <path
       id="path2094"
       d="M 0,0 H 0.86 C 1.759,0 2.329,0.468 2.329,1.174 2.329,1.971 1.72,2.32 0.831,2.329 0.425,2.329 0.135,2.292 0,2.256 Z m -0.841,2.815 c 0.426,0.082 1.034,0.128 1.614,0.128 0.899,0 1.478,-0.156 1.884,-0.504 C 2.986,2.164 3.169,1.742 3.169,1.265 3.169,0.449 2.628,-0.092 1.942,-0.312 V -0.339 C 2.445,-0.504 2.744,-0.945 2.899,-1.586 3.111,-2.448 3.266,-3.044 3.401,-3.283 H 2.532 C 2.425,-3.108 2.28,-2.577 2.097,-1.806 1.904,-0.954 1.556,-0.633 0.792,-0.605 H 0 v -2.678 h -0.841 z"
       style="fill:#454a5e;fill-opacity:1;fill-rule:nonzero;stroke:none"
       transform="matrix(0.35277777,0,0,-0.35277777,71.198555,33.958953)"
       clip-path="url(#clipPath2095)" />
    <path
       id="path2096"
       d="M 0,0 V -2.586 H 3.15 V 0 H 4 V -6.18 H 3.15 v 2.897 H 0 V -6.18 H -0.841 V 0 Z"
       style="fill:#454a5e;fill-opacity:1;fill-rule:nonzero;stroke:none"
       transform="matrix(0.35277777,0,0,-0.35277777,73.032406,32.936781)"
       clip-path="url(#clipPath2097)" />
    <path
       id="path2098"
       d="M 0,0 V 2.622 L -2.058,6.18 h 0.956 L -0.184,4.474 C 0.068,4.007 0.261,3.631 0.464,3.2 H 0.483 C 0.667,3.604 0.889,4.007 1.14,4.474 L 2.077,6.18 H 3.034 L 0.85,2.632 V 0 Z"
       style="fill:#454a5e;fill-opacity:1;fill-rule:nonzero;stroke:none"
       transform="matrix(0.35277777,0,0,-0.35277777,75.445514,35.117019)"
       clip-path="url(#clipPath2099)" />
    <path
       id="path2100"
       d="M 0,0 H -1.981 V 0.678 H 2.841 V 0 H 0.85 V -5.502 H 0 Z"
       style="fill:#454a5e;fill-opacity:1;fill-rule:nonzero;stroke:none"
       transform="matrix(0.35277777,0,0,-0.35277777,77.330334,33.17621)"
       clip-path="url(#clipPath2101)" />
    <path
       id="path2102"
       d="M 0,0 V -2.586 H 3.15 V 0 H 4 V -6.18 H 3.15 v 2.897 H 0 V -6.18 H -0.841 V 0 Z"
       style="fill:#454a5e;fill-opacity:1;fill-rule:nonzero;stroke:none"
       transform="matrix(0.35277777,0,0,-0.35277777,78.884425,32.936781)"
       clip-path="url(#clipPath2103)" />
    <path
       id="path2104"
       d="M 0,0 C -0.048,0.862 -0.106,1.898 -0.097,2.668 H -0.126 C -0.348,1.944 -0.618,1.174 -0.947,0.321 l -1.15,-2.998 h -0.637 l -1.054,2.943 c -0.309,0.871 -0.57,1.669 -0.753,2.402 H -4.562 C -4.58,1.898 -4.628,0.862 -4.687,-0.064 l -0.173,-2.65 h -0.802 l 0.454,6.18 h 1.072 l 1.112,-2.989 c 0.27,-0.761 0.492,-1.44 0.657,-2.082 h 0.029 c 0.164,0.624 0.396,1.302 0.686,2.082 l 1.159,2.989 H 0.58 l 0.406,-6.18 H 0.164 Z"
       style="fill:#454a5e;fill-opacity:1;fill-rule:nonzero;stroke:none"
       transform="matrix(0.35277777,0,0,-0.35277777,82.746355,34.159473)"
       clip-path="url(#clipPath2105)" />
    <path
       id="path2106"
       d="M 0,0 C -0.048,0.862 -0.106,1.898 -0.097,2.668 H -0.126 C -0.348,1.944 -0.618,1.174 -0.947,0.321 l -1.15,-2.998 h -0.637 l -1.054,2.943 c -0.309,0.871 -0.57,1.669 -0.753,2.402 h -0.02 C -4.58,1.898 -4.628,0.862 -4.686,-0.064 l -0.174,-2.65 h -0.802 l 0.454,6.18 h 1.073 l 1.111,-2.989 c 0.27,-0.761 0.493,-1.44 0.657,-2.082 h 0.029 c 0.164,0.624 0.396,1.302 0.686,2.082 l 1.159,2.989 H 0.58 l 0.406,-6.18 H 0.164 Z"
       style="fill:#454a5e;fill-opacity:1;fill-rule:nonzero;stroke:none"
       transform="matrix(0.35277777,0,0,-0.35277777,86.209045,34.159473)"
       clip-path="url(#clipPath2107)" />
    <path
       id="path2108"
       d="m 0,0 -0.638,1.779 c -0.145,0.403 -0.241,0.77 -0.338,1.128 H -0.995 C -1.092,2.54 -1.198,2.164 -1.324,1.788 L -1.961,0 Z m -2.135,-0.623 -0.678,-1.944 h -0.868 l 2.212,6.18 h 1.015 l 2.222,-6.18 H 0.87 l -0.696,1.944 z"
       style="fill:#454a5e;fill-opacity:1;fill-rule:nonzero;stroke:none"
       transform="matrix(0.35277777,0,0,-0.35277777,88.104165,34.21112)"
       clip-path="url(#clipPath2109)" />
    <path
       id="path2110"
       d="m 0,0 c -0.309,-0.147 -0.928,-0.293 -1.72,-0.293 -1.836,0 -3.218,1.1 -3.218,3.126 0,1.935 1.382,3.246 3.402,3.246 0.811,0 1.323,-0.165 1.546,-0.275 L -0.193,5.153 C -0.512,5.3 -0.966,5.41 -1.507,5.41 c -1.527,0 -2.542,-0.926 -2.542,-2.549 0,-1.513 0.918,-2.485 2.503,-2.485 0.512,0 1.034,0.101 1.372,0.257 z"
       style="fill:#454a5e;fill-opacity:1;fill-rule:nonzero;stroke:none"
       transform="matrix(0.35277777,0,0,-0.35277777,90.619614,35.045899)"
       clip-path="url(#clipPath2111)" />
    <path
       id="path2112"
       d="M 0,0 V -2.586 H 3.15 V 0 H 4 V -6.18 H 3.15 v 2.897 H 0 V -6.18 H -0.841 V 0 Z"
       style="fill:#454a5e;fill-opacity:1;fill-rule:nonzero;stroke:none"
       transform="matrix(0.35277777,0,0,-0.35277777,91.287454,32.936781)"
       clip-path="url(#clipPath2113)" />
    <path
       id="path2114"
       d="m 669.542,963.876 h -0.841 v 6.18 h 0.841 z"
       style="fill:#454a5e;fill-opacity:1;fill-rule:nonzero;stroke:none"
       transform="matrix(0.35277777,0,0,-0.35277777,-142.69001,375.15088)"
       clip-path="url(#clipPath2115)" />
    <path
       id="path2116"
       d="M 0,0 V 6.18 H 0.918 L 3.005,3.053 C 3.488,2.329 3.865,1.678 4.174,1.045 L 4.193,1.054 C 4.116,1.88 4.097,2.632 4.097,3.594 V 6.18 H 4.889 V 0 H 4.039 L 1.971,3.136 C 1.517,3.823 1.082,4.53 0.754,5.199 L 0.725,5.19 C 0.773,4.41 0.792,3.668 0.792,2.641 V 0 Z"
       style="fill:#454a5e;fill-opacity:1;fill-rule:nonzero;stroke:none"
       transform="matrix(0.35277777,0,0,-0.35277777,94.027654,35.117019)"
       clip-path="url(#clipPath2117)" />
    <path
       id="path2118"
       d="M 0,0 H -2.531 V -2.228 H 0.29 v -0.669 h -3.662 v 6.18 H 0.145 V 2.613 H -2.531 V 0.66 H 0 Z"
       style="fill:#454a5e;fill-opacity:1;fill-rule:nonzero;stroke:none"
       transform="matrix(0.35277777,0,0,-0.35277777,97.460004,34.09488)"
       clip-path="url(#clipPath2119)" />
    <path
       id="path2120"
       d="m 0,0 h -0.019 l -1.092,-0.559 -0.164,0.614 1.372,0.697 h 0.724 v -5.96 H 0 Z"
       style="fill:#454a5e;fill-opacity:1;fill-rule:nonzero;stroke:none"
       transform="matrix(0.35277777,0,0,-0.35277777,99.215115,33.279752)"
       clip-path="url(#clipPath2121)" />
    <path
       id="path2122"
       d="M 0,0 C 0,0.853 -0.512,1.366 -1.295,1.366 -1.807,1.366 -2.28,1.064 -2.512,0.633 -2.57,0.541 -2.609,0.422 -2.609,0.275 -2.59,-0.706 -2.116,-1.43 -1.227,-1.43 -0.493,-1.43 0,-0.853 0,0 m 0.242,3.438 c -0.174,0.01 -0.397,0 -0.638,-0.036 C -1.729,3.191 -2.435,2.265 -2.58,1.284 h 0.029 c 0.3,0.376 0.822,0.687 1.517,0.687 1.111,0 1.894,-0.761 1.894,-1.925 0,-1.091 -0.783,-2.1 -2.087,-2.1 -1.343,0 -2.222,0.99 -2.222,2.54 0,1.174 0.444,2.1 1.062,2.687 0.522,0.485 1.218,0.788 2.01,0.88 0.252,0.036 0.464,0.046 0.619,0.046 z"
       style="fill:#454a5e;fill-opacity:1;fill-rule:nonzero;stroke:none"
       transform="matrix(0.35277777,0,0,-0.35277777,101.49197,34.428007)"
       clip-path="url(#clipPath2123)" />
    <path
       id="path2124"
       d="m 0,0 c 0.164,-0.027 0.406,-0.037 0.705,-0.037 0.87,0 1.672,0.303 1.672,1.202 0,0.843 -0.763,1.192 -1.681,1.192 H 0 Z m 0,2.962 h 0.763 c 0.889,0 1.411,0.44 1.411,1.036 0,0.724 -0.58,1.008 -1.43,1.008 C 0.357,5.006 0.135,4.979 0,4.951 Z m -0.841,2.53 c 0.368,0.074 0.947,0.129 1.537,0.129 0.84,0 1.381,-0.138 1.787,-0.449 C 2.821,4.933 3.024,4.566 3.024,4.08 3.024,3.484 2.609,2.962 1.923,2.723 V 2.705 C 2.541,2.558 3.266,2.072 3.266,1.155 3.266,0.624 3.044,0.22 2.715,-0.082 2.261,-0.477 1.527,-0.66 0.464,-0.66 c -0.58,0 -1.024,0.037 -1.305,0.073 z"
       style="fill:#454a5e;fill-opacity:1;fill-rule:nonzero;stroke:none"
       transform="matrix(0.35277777,0,0,-0.35277777,103.18576,34.90341)"
       clip-path="url(#clipPath2125)" />
    <path
       id="path2126"
       d="m 702.207,963.876 h -0.841 v 6.18 h 0.841 z"
       style="fill:#454a5e;fill-opacity:1;fill-rule:nonzero;stroke:none"
       transform="matrix(0.35277777,0,0,-0.35277777,-142.69001,375.15088)"
       clip-path="url(#clipPath2127)" />
    <path
       id="path2128"
       d="M 0,0 H -1.981 V 0.678 H 2.841 V 0 H 0.85 V -5.502 H 0 Z"
       style="fill:#454a5e;fill-opacity:1;fill-rule:nonzero;stroke:none"
       transform="matrix(0.35277777,0,0,-0.35277777,105.98749,33.17621)"
       clip-path="url(#clipPath2129)" />
    <path
       id="path2130"
       d="m 0,0 c 0.213,-0.037 0.522,-0.046 0.85,-0.046 1.797,0 2.773,0.954 2.773,2.623 C 3.633,4.034 2.763,4.961 0.986,4.961 0.551,4.961 0.222,4.924 0,4.878 Z m -0.841,5.465 c 0.513,0.073 1.121,0.128 1.788,0.128 1.208,0 2.068,-0.266 2.638,-0.77 C 4.164,4.319 4.503,3.603 4.503,2.604 4.503,1.595 4.174,0.77 3.565,0.202 2.957,-0.376 1.952,-0.688 0.686,-0.688 c -0.599,0 -1.102,0.028 -1.527,0.074 z"
       style="fill:#454a5e;fill-opacity:1;fill-rule:nonzero;stroke:none"
       transform="matrix(0.35277777,0,0,-0.35277777,108.26418,34.893779)"
       clip-path="url(#clipPath2131)" />
    <path
       id="path2132"
       d="M 0,0 H 0.86 C 1.758,0 2.329,0.468 2.329,1.174 2.329,1.971 1.72,2.32 0.831,2.329 0.425,2.329 0.135,2.292 0,2.256 Z m -0.841,2.815 c 0.425,0.082 1.034,0.128 1.614,0.128 0.899,0 1.478,-0.156 1.884,-0.504 C 2.986,2.164 3.169,1.742 3.169,1.265 3.169,0.449 2.628,-0.092 1.942,-0.312 V -0.339 C 2.445,-0.504 2.744,-0.945 2.899,-1.586 3.111,-2.448 3.266,-3.044 3.401,-3.283 H 2.531 C 2.425,-3.108 2.28,-2.577 2.097,-1.806 1.903,-0.954 1.556,-0.633 0.792,-0.605 H 0 v -2.678 h -0.841 z"
       style="fill:#454a5e;fill-opacity:1;fill-rule:nonzero;stroke:none"
       transform="matrix(0.35277777,0,0,-0.35277777,110.53416,33.958953)"
       clip-path="url(#clipPath2133)" />
    <path
       id="path2134"
       d="m 0,0 v -3.658 c 0,-1.385 0.647,-1.972 1.517,-1.972 0.966,0 1.585,0.605 1.585,1.972 V 0 h 0.85 v -3.604 c 0,-1.898 -1.053,-2.677 -2.464,-2.677 -1.334,0 -2.338,0.725 -2.338,2.641 V 0 Z"
       style="fill:#454a5e;fill-opacity:1;fill-rule:nonzero;stroke:none"
       transform="matrix(0.35277777,0,0,-0.35277777,112.36779,32.936781)"
       clip-path="url(#clipPath2135)" />
    <path
       id="path2136"
       d="M 0,0 C -0.048,0.862 -0.106,1.898 -0.097,2.668 H -0.126 C -0.348,1.944 -0.618,1.174 -0.947,0.321 l -1.15,-2.998 h -0.637 l -1.054,2.943 c -0.309,0.871 -0.57,1.669 -0.753,2.402 h -0.02 C -4.58,1.898 -4.628,0.862 -4.686,-0.064 l -0.174,-2.65 h -0.802 l 0.454,6.18 h 1.073 l 1.111,-2.989 c 0.27,-0.761 0.493,-1.44 0.657,-2.082 h 0.029 c 0.164,0.624 0.396,1.302 0.686,2.082 l 1.159,2.989 H 0.58 l 0.406,-6.18 H 0.164 Z"
       style="fill:#454a5e;fill-opacity:1;fill-rule:nonzero;stroke:none"
       transform="matrix(0.35277777,0,0,-0.35277777,116.21254,34.159473)"
       clip-path="url(#clipPath2137)" />
    <path
       id="path2138"
       d="m 0,0 c 0.377,-0.22 0.928,-0.403 1.507,-0.403 0.86,0 1.363,0.431 1.363,1.054 0,0.578 -0.348,0.908 -1.227,1.229 -1.063,0.357 -1.72,0.88 -1.72,1.751 0,0.963 0.84,1.678 2.106,1.678 0.667,0 1.15,-0.147 1.44,-0.303 L 3.237,4.355 C 3.024,4.465 2.59,4.649 2,4.649 1.111,4.649 0.773,4.144 0.773,3.723 0.773,3.145 1.169,2.861 2.068,2.531 3.169,2.127 3.73,1.623 3.73,0.715 c 0,-0.953 -0.744,-1.779 -2.281,-1.779 -0.628,0 -1.314,0.175 -1.662,0.395 z"
       style="fill:#454a5e;fill-opacity:1;fill-rule:nonzero;stroke:none"
       transform="matrix(0.35277777,0,0,-0.35277777,117.6984,34.774047)"
       clip-path="url(#clipPath2139)" />
    <path
       id="path2140"
       d="m 0,0 -0.638,1.779 c -0.145,0.403 -0.241,0.77 -0.338,1.128 H -0.995 C -1.092,2.54 -1.198,2.164 -1.324,1.788 L -1.961,0 Z m -2.135,-0.623 -0.677,-1.944 h -0.869 l 2.212,6.18 h 1.015 l 2.222,-6.18 H 0.87 l -0.696,1.944 z"
       style="fill:#454a5e;fill-opacity:1;fill-rule:nonzero;stroke:none"
       transform="matrix(0.35277777,0,0,-0.35277777,120.5444,34.21112)"
       clip-path="url(#clipPath2141)" />
    <path
       id="path2142"
       d="M 0,0 C -0.048,0.862 -0.106,1.898 -0.097,2.668 H -0.126 C -0.348,1.944 -0.618,1.174 -0.947,0.321 l -1.15,-2.998 h -0.637 l -1.054,2.943 c -0.309,0.871 -0.57,1.669 -0.753,2.402 h -0.02 C -4.58,1.898 -4.628,0.862 -4.686,-0.064 l -0.174,-2.65 h -0.802 l 0.454,6.18 h 1.073 l 1.111,-2.989 c 0.27,-0.761 0.493,-1.44 0.657,-2.082 h 0.029 c 0.164,0.624 0.396,1.302 0.686,2.082 l 1.159,2.989 H 0.58 l 0.406,-6.18 H 0.164 Z"
       style="fill:#454a5e;fill-opacity:1;fill-rule:nonzero;stroke:none"
       transform="matrix(0.35277777,0,0,-0.35277777,123.42793,34.159473)"
       clip-path="url(#clipPath2143)" />
    <path
       id="path2144"
       d="m 0,0 c 0.184,-0.046 0.415,-0.064 0.696,-0.064 1.014,0 1.633,0.468 1.633,1.32 0,0.816 -0.609,1.211 -1.537,1.211 C 0.425,2.467 0.145,2.439 0,2.402 Z m -0.841,2.98 c 0.406,0.064 0.938,0.119 1.614,0.119 0.831,0 1.44,-0.183 1.826,-0.513 0.358,-0.294 0.57,-0.743 0.57,-1.293 0,-0.559 -0.174,-1 -0.502,-1.321 C 2.222,-0.477 1.498,-0.706 0.676,-0.706 0.425,-0.706 0.193,-0.697 0,-0.651 v -2.476 h -0.841 z"
       style="fill:#454a5e;fill-opacity:1;fill-rule:nonzero;stroke:none"
       transform="matrix(0.35277777,0,0,-0.35277777,124.52881,34.013918)"
       clip-path="url(#clipPath2145)" />
    <path
       id="path2146"
       d="M 0,0 H 0.841 V -5.511 H 3.623 V -6.18 H 0 Z"
       style="fill:#454a5e;fill-opacity:1;fill-rule:nonzero;stroke:none"
       transform="matrix(0.35277777,0,0,-0.35277777,126.04535,32.936781)"
       clip-path="url(#clipPath2147)" />
    <path
       id="path2148"
       d="M 0,0 H -2.531 V -2.228 H 0.29 v -0.669 h -3.662 v 6.18 H 0.145 V 2.613 H -2.531 V 0.66 H 0 Z"
       style="fill:#454a5e;fill-opacity:1;fill-rule:nonzero;stroke:none"
       transform="matrix(0.35277777,0,0,-0.35277777,128.84379,34.09488)"
       clip-path="url(#clipPath2149)" />
    <path
       id="path2150"
       d="M 0,0 H 0.86 C 1.758,0 2.329,0.468 2.329,1.174 2.329,1.971 1.72,2.32 0.831,2.329 0.425,2.329 0.135,2.292 0,2.256 Z m -0.841,2.815 c 0.425,0.082 1.034,0.128 1.614,0.128 0.899,0 1.478,-0.156 1.884,-0.504 C 2.986,2.164 3.169,1.742 3.169,1.265 3.169,0.449 2.628,-0.092 1.942,-0.312 V -0.339 C 2.445,-0.504 2.744,-0.945 2.899,-1.586 3.111,-2.448 3.266,-3.044 3.401,-3.283 H 2.531 C 2.425,-3.108 2.28,-2.577 2.097,-1.806 1.903,-0.954 1.556,-0.633 0.792,-0.605 H 0 v -2.678 h -0.841 z"
       style="fill:#454a5e;fill-opacity:1;fill-rule:nonzero;stroke:none"
       transform="matrix(0.35277777,0,0,-0.35277777,129.62754,33.958953)"
       clip-path="url(#clipPath2151)" />
    <path
       id="path2152"
       d="M 0,0 2.696,6.648 H 3.353 L 0.647,0 Z"
       style="fill:#454a5e;fill-opacity:1;fill-rule:nonzero;stroke:none"
       transform="matrix(0.35277777,0,0,-0.35277777,132.3473,35.246381)"
       clip-path="url(#clipPath2153)" />
    <path
       id="path2154"
       d="M 0,0 C -0.048,0.862 -0.106,1.898 -0.097,2.668 H -0.126 C -0.348,1.944 -0.618,1.174 -0.947,0.321 l -1.15,-2.998 h -0.637 l -1.054,2.943 c -0.309,0.871 -0.57,1.669 -0.753,2.402 h -0.02 C -4.58,1.898 -4.628,0.862 -4.686,-0.064 l -0.174,-2.65 h -0.802 l 0.454,6.18 h 1.073 l 1.111,-2.989 c 0.27,-0.761 0.493,-1.44 0.657,-2.082 h 0.029 c 0.164,0.624 0.396,1.302 0.686,2.082 l 1.159,2.989 H 0.58 l 0.406,-6.18 H 0.164 Z"
       style="fill:#454a5e;fill-opacity:1;fill-rule:nonzero;stroke:none"
       transform="matrix(0.35277777,0,0,-0.35277777,137.1601,34.159473)"
       clip-path="url(#clipPath2155)" />
    <path
       id="path2156"
       d="m 796.396,963.876 h -0.841 v 6.18 h 0.841 z"
       style="fill:#454a5e;fill-opacity:1;fill-rule:nonzero;stroke:none"
       transform="matrix(0.35277777,0,0,-0.35277777,-142.69001,375.15088)"
       clip-path="url(#clipPath2157)" />
    <path
       id="path2158"
       d="m 0,0 c 0.213,-0.037 0.522,-0.046 0.85,-0.046 1.797,0 2.773,0.954 2.773,2.623 C 3.633,4.034 2.763,4.961 0.986,4.961 0.551,4.961 0.222,4.924 0,4.878 Z m -0.841,5.465 c 0.512,0.073 1.121,0.128 1.788,0.128 1.208,0 2.068,-0.266 2.638,-0.77 C 4.164,4.319 4.503,3.603 4.503,2.604 4.503,1.595 4.174,0.77 3.565,0.202 2.957,-0.376 1.952,-0.688 0.686,-0.688 c -0.599,0 -1.102,0.028 -1.527,0.074 z"
       style="fill:#454a5e;fill-opacity:1;fill-rule:nonzero;stroke:none"
       transform="matrix(0.35277777,0,0,-0.35277777,139.07539,34.893779)"
       clip-path="url(#clipPath2159)" />
    <path
       id="path2160"
       d="m 805.14,963.876 h -0.841 v 6.18 h 0.841 z"
       style="fill:#454a5e;fill-opacity:1;fill-rule:nonzero;stroke:none"
       transform="matrix(0.35277777,0,0,-0.35277777,-142.69001,375.15088)"
       clip-path="url(#clipPath2161)" />
    <path
       id="path2162"
       d="m 0,0 c 0.377,-0.22 0.928,-0.403 1.507,-0.403 0.86,0 1.363,0.431 1.363,1.054 0,0.578 -0.348,0.908 -1.227,1.229 -1.063,0.357 -1.72,0.88 -1.72,1.751 0,0.963 0.84,1.678 2.106,1.678 0.667,0 1.15,-0.147 1.44,-0.303 L 3.237,4.355 C 3.024,4.465 2.59,4.649 2,4.649 1.111,4.649 0.773,4.144 0.773,3.723 0.773,3.145 1.169,2.861 2.068,2.531 3.169,2.127 3.73,1.623 3.73,0.715 c 0,-0.953 -0.744,-1.779 -2.281,-1.779 -0.628,0 -1.314,0.175 -1.662,0.395 z"
       style="fill:#454a5e;fill-opacity:1;fill-rule:nonzero;stroke:none"
       transform="matrix(0.35277777,0,0,-0.35277777,142.54492,34.774047)"
       clip-path="url(#clipPath2163)" />
    <path
       id="path2164"
       d="M 0,0 H -2.531 V -2.228 H 0.29 v -0.669 h -3.662 v 6.18 H 0.145 V 2.613 H -2.531 V 0.66 H 0 Z"
       style="fill:#454a5e;fill-opacity:1;fill-rule:nonzero;stroke:none"
       transform="matrix(0.35277777,0,0,-0.35277777,145.45587,34.09488)"
       clip-path="url(#clipPath2165)" />
    <path
       id="path2166"
       d="m 0,0 c 0,1.238 -0.676,2.512 -2.058,2.512 -1.42,0 -2.116,-1.247 -2.106,-2.585 -0.01,-1.312 0.753,-2.494 2.067,-2.494 C -0.754,-2.567 0,-1.412 0,0 m 0.696,-4.025 c -0.88,0.22 -1.74,0.467 -2.493,0.715 -0.135,0.046 -0.271,0.092 -0.396,0.092 -1.546,0.055 -2.87,1.137 -2.87,3.126 0,1.981 1.275,3.255 3.034,3.255 1.768,0 2.918,-1.302 2.918,-3.126 0,-1.587 -0.773,-2.604 -1.855,-2.962 v -0.037 c 0.647,-0.156 1.353,-0.302 1.903,-0.394 z"
       style="fill:#454a5e;fill-opacity:1;fill-rule:nonzero;stroke:none"
       transform="matrix(0.35277777,0,0,-0.35277777,147.59285,34.017162)"
       clip-path="url(#clipPath2167)" />
    <path
       id="path2168"
       d="m 0,0 v -3.658 c 0,-1.385 0.647,-1.972 1.517,-1.972 0.966,0 1.585,0.605 1.585,1.972 V 0 h 0.85 v -3.604 c 0,-1.898 -1.053,-2.677 -2.464,-2.677 -1.333,0 -2.338,0.725 -2.338,2.641 V 0 Z"
       style="fill:#454a5e;fill-opacity:1;fill-rule:nonzero;stroke:none"
       transform="matrix(0.35277777,0,0,-0.35277777,148.58798,32.936781)"
       clip-path="url(#clipPath2169)" />
    <path
       id="path2170"
       d="M 0,0 H -2.531 V -2.228 H 0.29 v -0.669 h -3.662 v 6.18 H 0.145 V 2.613 H -2.531 V 0.66 H 0 Z"
       style="fill:#454a5e;fill-opacity:1;fill-rule:nonzero;stroke:none"
       transform="matrix(0.35277777,0,0,-0.35277777,151.68633,34.09488)"
       clip-path="url(#clipPath2171)" />
    <path
       id="path2172"
       d="M 0,0 V 6.18 H 0.918 L 3.005,3.053 C 3.488,2.329 3.865,1.678 4.174,1.045 l 0.02,0.009 C 4.116,1.88 4.097,2.632 4.097,3.594 V 6.18 H 4.889 V 0 H 4.039 L 1.971,3.136 C 1.517,3.823 1.082,4.53 0.754,5.199 L 0.725,5.19 C 0.773,4.41 0.792,3.668 0.792,2.641 V 0 Z"
       style="fill:#454a5e;fill-opacity:1;fill-rule:nonzero;stroke:none"
       transform="matrix(0.35277777,0,0,-0.35277777,152.17348,35.117019)"
       clip-path="url(#clipPath2173)" />
    <path
       id="path2174"
       d="m 0,0 c -0.309,-0.147 -0.928,-0.293 -1.72,-0.293 -1.836,0 -3.218,1.1 -3.218,3.126 0,1.935 1.382,3.246 3.402,3.246 0.811,0 1.323,-0.165 1.546,-0.275 L -0.193,5.153 C -0.512,5.3 -0.966,5.41 -1.507,5.41 c -1.527,0 -2.542,-0.926 -2.542,-2.549 0,-1.513 0.918,-2.485 2.503,-2.485 0.512,0 1.034,0.101 1.372,0.257 z"
       style="fill:#454a5e;fill-opacity:1;fill-rule:nonzero;stroke:none"
       transform="matrix(0.35277777,0,0,-0.35277777,156.02163,35.045899)"
       clip-path="url(#clipPath2175)" />
    <path
       id="path2176"
       d="M 0,0 H -2.531 V -2.228 H 0.29 v -0.669 h -3.662 v 6.18 H 0.145 V 2.613 H -2.531 V 0.66 H 0 Z"
       style="fill:#454a5e;fill-opacity:1;fill-rule:nonzero;stroke:none"
       transform="matrix(0.35277777,0,0,-0.35277777,157.58262,34.09488)"
       clip-path="url(#clipPath2177)" />
    <path
       id="path2178"
       d="M 0,0 H 0.86 C 1.758,0 2.329,0.468 2.329,1.174 2.329,1.971 1.72,2.32 0.831,2.329 0.425,2.329 0.135,2.292 0,2.256 Z m -0.841,2.815 c 0.425,0.082 1.034,0.128 1.613,0.128 0.9,0 1.479,-0.156 1.885,-0.504 C 2.986,2.164 3.169,1.742 3.169,1.265 3.169,0.449 2.628,-0.092 1.942,-0.312 V -0.339 C 2.445,-0.504 2.744,-0.945 2.899,-1.586 3.111,-2.448 3.266,-3.044 3.401,-3.283 H 2.531 C 2.425,-3.108 2.28,-2.577 2.097,-1.806 1.903,-0.954 1.556,-0.633 0.792,-0.605 H 0 v -2.678 h -0.841 z"
       style="fill:#454a5e;fill-opacity:1;fill-rule:nonzero;stroke:none"
       transform="matrix(0.35277777,0,0,-0.35277777,158.36656,33.958953)"
       clip-path="url(#clipPath2179)" />
    <rect
       style="fill:url(#linearGradient5);stroke:none;stroke-width:0.10054"
       id="rect4"
       width="158.81386"
       height="7.223877"
       x="26.483475"
       y="78.533035" />
    <rect
       style="fill:url(#linearGradient9);stroke:none;stroke-width:0.0990819"
       id="rect4-6"
       width="154.24103"
       height="7.223877"
       x="28.497986"
       y="16.576658" />
  </g>
</svg>
