<svg class="size-6" fill="none" stroke="currentColor" stroke-width="1.5" version="1.1" viewBox="0 0 24 24" xmlns="http://www.w3.org/2000/svg">
 <path d="m12 2.25c-5.3759 0-9.75 4.3741-9.75 9.75 0 5.3759 4.3741 9.75 9.75 9.75s9.75-4.3741 9.75-9.75c0-5.3759-4.3741-9.75-9.75-9.75zm0 1.5c4.5652 0 8.25 3.6848 8.25 8.25 0 4.5652-3.6848 8.25-8.25 8.25-4.5652 0-8.25-3.6848-8.25-8.25 0-4.5652 3.6848-8.25 8.25-8.25zm0 3.75c-0.4142 4.14e-5 -0.74996 0.3358-0.75 0.75v0.00781c4.1e-5 0.4142 0.3358 0.74996 0.75 0.75h0.0078c0.4142-4.14e-5 0.74996-0.3358 0.75-0.75v-0.00781c-4.1e-5 -0.4142-0.3358-0.74996-0.75-0.75zm-0.20704 2.9258c-0.27128-0.04069-0.55814-3e-3 -0.83008 0.13086l-2e-3 2e-3 -0.03906 0.01758c-0.37191 0.18143-0.52661 0.62979-0.3457 1.002 0.18143 0.37191 0.62979 0.52661 1.002 0.3457l0.04102-0.01953 0.0078-0.0039-0.70898 2.8359c-0.29823 1.1908 1.0291 2.2542 2.127 1.7051 2e-3 -6.58e-4 0.0039-0.0013 0.0059-2e-3l0.04102-0.02148c0.36906-0.18864 0.51514-0.64087 0.32617-1.0098-0.18864-0.36906-0.64087-0.51514-1.0098-0.32617l-0.03516 0.01758 0.70898-2.8359c0.22206-0.89257-0.46746-1.7146-1.2891-1.8379z" fill="#000" stroke="none"/>
</svg>
