<svg width="210mm" height="297mm" version="1.1" viewBox="0 0 210 297" xmlns="http://www.w3.org/2000/svg">
 <g transform="translate(-126.41 -151.7)" stroke="#000">
  <g stroke-width=".011988">
   <path d="m132.95 154.02h0.19181c0.1055 0 0.19181 0.0863 0.19181 0.19182v0.19181c0 0.1055-0.0863 0.19181-0.19181 0.19181h-0.19181c-0.1055 0-0.19182-0.0863-0.19182-0.19181v-0.19181c0-0.1055 0.0863-0.19182 0.19182-0.19182z"/>
   <path d="m132.76 155.17c0-0.10549 0.0863-0.19181 0.19182-0.19181h0.19181c0.1055 0 0.19181 0.0863 0.19181 0.19181v0.19182c0 0.10549-0.0863 0.19181-0.19181 0.19181h-0.19181c-0.1055 0-0.19182-0.0863-0.19182-0.19181z"/>
   <path d="m131.99 154.02h0.19181c0.1055 0 0.19182 0.0863 0.19182 0.19182v0.19181c0 0.1055-0.0863 0.19181-0.19182 0.19181h-0.19181c-0.1055 0-0.19182-0.0863-0.19182-0.19181v-0.19181c0-0.1055 0.0863-0.19182 0.19182-0.19182z"/>
   <path d="m131.8 155.17c0-0.10549 0.0863-0.19181 0.19182-0.19181h0.19181c0.1055 0 0.19182 0.0863 0.19182 0.19181v0.19182c0 0.10549-0.0863 0.19181-0.19182 0.19181h-0.19181c-0.1055 0-0.19182-0.0863-0.19182-0.19181z"/>
   <path d="m131.03 154.02h0.19181c0.1055 0 0.19182 0.0863 0.19182 0.19182v0.19181c0 0.1055-0.0863 0.19181-0.19182 0.19181h-0.19181c-0.10549 0-0.19181-0.0863-0.19181-0.19181v-0.19181c0-0.1055 0.0863-0.19182 0.19181-0.19182z"/>
   <path d="m130.84 155.17c0-0.10549 0.0863-0.19181 0.19181-0.19181h0.19181c0.1055 0 0.19182 0.0863 0.19182 0.19181v0.19182c0 0.10549-0.0863 0.19181-0.19182 0.19181h-0.19181c-0.10549 0-0.19181-0.0863-0.19181-0.19181z"/>
   <path d="m130.08 154.02h0.19181c0.10551 0 0.19182 0.0863 0.19182 0.19182v0.19181c0 0.1055-0.0863 0.19181-0.19182 0.19181h-0.19181c-0.10549 0-0.19181-0.0863-0.19181-0.19181v-0.19181c0-0.1055 0.0863-0.19182 0.19181-0.19182z"/>
   <path d="m129.88 155.17c0-0.10549 0.0863-0.19181 0.19181-0.19181h0.19181c0.10551 0 0.19182 0.0863 0.19182 0.19181v0.19182c0 0.10549-0.0863 0.19181-0.19182 0.19181h-0.19181c-0.10549 0-0.19181-0.0863-0.19181-0.19181z"/>
   <path d="m129.12 154.02h0.19181c0.10551 0 0.19182 0.0863 0.19182 0.19182v0.19181c0 0.1055-0.0863 0.19181-0.19182 0.19181h-0.19181c-0.10549 0-0.19181-0.0863-0.19181-0.19181v-0.19181c0-0.1055 0.0863-0.19182 0.19181-0.19182z"/>
   <path d="m128.92 155.17c0-0.10549 0.0863-0.19181 0.19181-0.19181h0.19181c0.10551 0 0.19182 0.0863 0.19182 0.19181v0.19182c0 0.10549-0.0863 0.19181-0.19182 0.19181h-0.19181c-0.10549 0-0.19181-0.0863-0.19181-0.19181z"/>
   <path d="m129.79 156.03h2.6854c0.1055 0 0.19182 0.0863 0.19182 0.19181v0.19181c0 0.1055-0.0863 0.19182-0.19182 0.19182h-2.6854c-0.10549 0-0.19181-0.0863-0.19181-0.19182v-0.19181c0-0.1055 0.0863-0.19181 0.19181-0.19181z"/>
  </g>
  <path d="m127.68 153.73c0-0.42319 0.34407-0.76725 0.76726-0.76725h5.3708c0.42319 0 0.76725 0.34406 0.76725 0.76725v3.069c0 0.42319-0.34406 0.76725-0.76725 0.76725h-5.3708c-0.42319 0-0.76726-0.34406-0.76726-0.76725z" fill="none" stroke-width=".412"/>
 </g>
</svg>
