<?xml version="1.0" encoding="UTF-8" standalone="no"?>
<!-- Created with Inkscape (http://www.inkscape.org/) -->

<svg
   width="210mm"
   height="297mm"
   viewBox="0 0 210 297"
   version="1.1"
   id="svg1"
   inkscape:version="1.3.2 (091e20e, 2023-11-25)"
   sodipodi:docname="logo.svg"
   xmlns:inkscape="http://www.inkscape.org/namespaces/inkscape"
   xmlns:sodipodi="http://sodipodi.sourceforge.net/DTD/sodipodi-0.dtd"
   xmlns="http://www.w3.org/2000/svg"
   xmlns:svg="http://www.w3.org/2000/svg">
  <sodipodi:namedview
     id="namedview1"
     pagecolor="#ffffff"
     bordercolor="#000000"
     borderopacity="0.25"
     inkscape:showpageshadow="2"
     inkscape:pageopacity="0.0"
     inkscape:pagecheckerboard="0"
     inkscape:deskcolor="#d1d1d1"
     inkscape:document-units="mm"
     inkscape:zoom="0.84096521"
     inkscape:cx="302.0339"
     inkscape:cy="130.20753"
     inkscape:window-width="1440"
     inkscape:window-height="798"
     inkscape:window-x="0"
     inkscape:window-y="25"
     inkscape:window-maximized="1"
     inkscape:current-layer="layer1" />
  <defs
     id="defs1">
    <clipPath
       clipPathUnits="userSpaceOnUse"
       id="clipPath963">
      <path
         d="M 0,0 H 1920 V 1080 H 0 Z"
         transform="translate(-1101.669,-932.52053)"
         id="path963" />
    </clipPath>
    <clipPath
       clipPathUnits="userSpaceOnUse"
       id="clipPath1003">
      <path
         d="M 0,0 H 1920 V 1080 H 0 Z"
         transform="translate(-1285.1016,-925.77833)"
         id="path1003" />
    </clipPath>
    <clipPath
       clipPathUnits="userSpaceOnUse"
       id="clipPath1005">
      <path
         d="M 0,0 H 1920 V 1080 H 0 Z"
         id="path1005" />
    </clipPath>
    <clipPath
       clipPathUnits="userSpaceOnUse"
       id="clipPath1007">
      <path
         d="M 0,0 H 1920 V 1080 H 0 Z"
         transform="translate(-1301.6367,-921.91502)"
         id="path1007" />
    </clipPath>
    <clipPath
       clipPathUnits="userSpaceOnUse"
       id="clipPath1009">
      <path
         d="M 0,0 H 1920 V 1080 H 0 Z"
         id="path1009" />
    </clipPath>
    <clipPath
       clipPathUnits="userSpaceOnUse"
       id="clipPath1011">
      <path
         d="M 0,0 H 1920 V 1080 H 0 Z"
         transform="translate(-1336.6875,-926.24712)"
         id="path1011" />
    </clipPath>
    <clipPath
       clipPathUnits="userSpaceOnUse"
       id="clipPath1013">
      <path
         d="M 0,0 H 1920 V 1080 H 0 Z"
         transform="translate(-1352.7744,-926.56013)"
         id="path1013" />
    </clipPath>
    <clipPath
       clipPathUnits="userSpaceOnUse"
       id="clipPath1015">
      <path
         d="M 0,0 H 1920 V 1080 H 0 Z"
         transform="translate(-1369.1113,-926.21873)"
         id="path1015" />
    </clipPath>
    <clipPath
       clipPathUnits="userSpaceOnUse"
       id="clipPath1017">
      <path
         d="M 0,0 H 1920 V 1080 H 0 Z"
         transform="translate(-1369.1113,-926.21873)"
         id="path1017" />
    </clipPath>
    <clipPath
       clipPathUnits="userSpaceOnUse"
       id="clipPath1019">
      <path
         d="M 0,0 H 1920 V 1080 H 0 Z"
         transform="translate(-1386.5938,-921.91502)"
         id="path1019" />
    </clipPath>
    <clipPath
       clipPathUnits="userSpaceOnUse"
       id="clipPath1021">
      <path
         d="M 0,0 H 1920 V 1080 H 0 Z"
         transform="translate(-1404.166,-931.20413)"
         id="path1021" />
    </clipPath>
    <clipPath
       clipPathUnits="userSpaceOnUse"
       id="clipPath1023">
      <path
         d="M 0,0 H 1920 V 1080 H 0 Z"
         transform="translate(-1430.6319,-923.84672)"
         id="path1023" />
    </clipPath>
    <clipPath
       clipPathUnits="userSpaceOnUse"
       id="clipPath1025">
      <path
         d="M 0,0 H 1920 V 1080 H 0 Z"
         transform="translate(-1439.9131,-930.43752)"
         id="path1025" />
    </clipPath>
    <clipPath
       clipPathUnits="userSpaceOnUse"
       id="clipPath1027">
      <path
         d="M 0,0 H 1920 V 1080 H 0 Z"
         id="path1027" />
    </clipPath>
    <clipPath
       clipPathUnits="userSpaceOnUse"
       id="clipPath1029">
      <path
         d="M 0,0 H 1920 V 1080 H 0 Z"
         transform="translate(-1459.1388,-926.21873)"
         id="path1029" />
    </clipPath>
    <clipPath
       clipPathUnits="userSpaceOnUse"
       id="clipPath1031">
      <path
         d="M 0,0 H 1920 V 1080 H 0 Z"
         transform="translate(-1459.1388,-926.21873)"
         id="path1031" />
    </clipPath>
    <clipPath
       clipPathUnits="userSpaceOnUse"
       id="clipPath1033">
      <path
         d="M 0,0 H 1920 V 1080 H 0 Z"
         transform="translate(-1475.1436,-921.20513)"
         id="path1033" />
    </clipPath>
    <clipPath
       clipPathUnits="userSpaceOnUse"
       id="clipPath1035">
      <path
         d="M 0,0 H 1920 V 1080 H 0 Z"
         transform="translate(-1513.9756,-923.84672)"
         id="path1035" />
    </clipPath>
    <clipPath
       clipPathUnits="userSpaceOnUse"
       id="clipPath1037">
      <path
         d="M 0,0 H 1920 V 1080 H 0 Z"
         transform="translate(-1527.5137,-926.09132)"
         id="path1037" />
    </clipPath>
    <clipPath
       clipPathUnits="userSpaceOnUse"
       id="clipPath1039">
      <path
         d="M 0,0 H 1920 V 1080 H 0 Z"
         transform="translate(-1534.7412,-921.20513)"
         id="path1039" />
    </clipPath>
    <clipPath
       clipPathUnits="userSpaceOnUse"
       id="clipPath1041">
      <path
         d="M 0,0 H 1920 V 1080 H 0 Z"
         transform="translate(-1554.6816,-930.43752)"
         id="path1041" />
    </clipPath>
    <clipPath
       clipPathUnits="userSpaceOnUse"
       id="clipPath1043">
      <path
         d="M 0,0 H 1920 V 1080 H 0 Z"
         transform="translate(-1574.4474,-926.09132)"
         id="path1043" />
    </clipPath>
    <clipPath
       clipPathUnits="userSpaceOnUse"
       id="clipPath1045">
      <path
         d="M 0,0 H 1920 V 1080 H 0 Z"
         transform="translate(-1582.2207,-926.56013)"
         id="path1045" />
    </clipPath>
  </defs>
  <g
     inkscape:label="Layer 1"
     inkscape:groupmode="layer"
     id="layer1">
    <path
       id="path962"
       d="m 0,0 c -0.3,0.197 0.2,0.295 0.6,0.59 0.299,0 0.6,0.099 0.7,0.099 0.3,0 1.501,0.197 1.9,0.394 0.601,0.098 1,0.393 1.2,-0.099 C 4.501,1.083 4.4,0.295 4.301,-0.197 4.2,-1.574 3.9,-2.853 3.9,-4.132 c 0,-0.296 0,-0.296 0.101,-0.296 0.199,0 0.199,0.099 0.3,0.099 0.3,0.787 0.3,0.492 0.599,1.377 0.701,1.083 1.601,2.854 2.702,3.542 0.7,0.689 1.6,0.984 2.4,0.493 0.7,-0.197 1.101,-0.689 1.2,-1.378 0.5,-2.952 -0.5,-6.396 -2.1,-8.364 -0.5,-0.491 -1.1,-0.984 -1.8,-1.377 -0.7,-0.394 -1.402,-0.59 -2.402,-0.886 0,0 -0.599,0.197 -0.7,0.296 -0.099,0.098 0.2,0.196 0.7,0.393 0.901,0.492 1.501,0.984 1.902,1.574 1.4,2.165 1.7,5.314 1.8,6.003 0,0.59 0,1.771 -0.6,1.771 -0.4,0.196 -0.8,0 -1.101,-0.394 -0.699,-0.984 -1.4,-1.968 -1.9,-3.05 -1.801,-3.542 -2.5,-8.167 -3.301,-12.398 0,-0.098 0,-0.197 -0.301,-0.295 -0.199,-0.098 -0.5,-0.197 -0.699,-0.197 -0.301,0 -0.4,0.197 -0.4,0.394 0.099,0.787 0.3,2.361 0.5,4.231 0.3,3.64 0.8,8.658 0.9,12.397 C 1.7,-0.098 1.8,0 1.2,0 0.8,0 0.1,0.197 0,0 m 16.704,0.492 c 0,-1.377 -0.4,-3.148 -0.301,-4.723 0,-0.098 0,0 0.101,-0.098 0.399,0.197 1.5,3.444 2.6,4.919 0.3,0.394 1.701,0.099 1.8,0.099 0.301,-0.59 0,-1.673 0,-2.165 -0.099,-0.393 -0.5,-0.393 -0.599,-0.59 -0.3,0.197 -0.5,0.295 -1,0.197 -0.3,-0.197 -0.5,-0.295 -0.701,-0.492 -0.099,-0.295 -0.201,-0.394 -0.3,-0.591 -0.401,-0.295 -0.8,-1.082 -1.1,-1.771 -0.4,-1.082 -0.9,-2.361 -1.1,-3.05 -0.3,-0.886 -0.4,-1.673 -0.701,-2.657 -0.099,-0.295 -0.201,-0.393 -0.4,-0.492 -0.801,0 -1.601,0.099 -1.5,0.492 0.1,1.87 0.199,2.46 0.3,4.133 0.201,2.657 0.301,4.329 0.201,5.412 0,0.885 -0.901,0.294 -1.701,0.393 -0.2,0.099 -0.3,0.197 -0.101,0.394 0.2,0.098 0.5,0.197 0.901,0.197 0.5,0.098 0.901,0.098 1.299,0.196 0.402,0 1.001,0.394 1.402,0.492 0.2,0.197 0.5,0.197 0.7,-0.098 0.1,0.197 0.2,-0.197 0.2,-0.197 m 5.7,-11.217 c -2,1.279 -1.699,4.133 -1.199,6.297 0.5,2.46 2.001,4.822 4.7,5.314 1.402,-0.099 3.402,0 4.002,-0.394 0.3,-0.295 0.601,-0.689 0.801,-0.984 0.399,-1.082 0.399,-2.066 0.399,-3.247 -0.1,-1.082 -0.2,-1.476 -0.501,-2.361 -0.098,-0.787 -0.799,-2.067 -1,-2.46 -1.5,-2.165 -3.1,-2.263 -5.001,-2.362 -0.5,0 -0.599,-0.098 -1.099,0.099 -0.8,0.098 -0.901,0 -1.102,0.098 M 33.508,0.984 c 0.8,1.476 1.1,3.444 2.701,4.92 1.1,0.885 2.801,1.18 4.001,0.688 0.3,-0.295 0.1,-1.279 0,-1.475 -0.101,-0.394 -0.4,-0.394 -0.7,-0.296 -0.3,0.099 -0.401,-0.098 -0.5,0.492 -0.101,0.788 -0.601,0.492 -0.801,0.296 -0.199,0 -0.5,-0.394 -0.601,-0.689 -0.5,-0.787 -0.599,-1.574 -0.799,-2.165 -0.3,-1.082 -0.201,-1.869 -0.201,-2.066 0.301,-0.984 2.101,-0.394 2.602,-0.886 0.1,0 0.199,-0.688 0,-0.688 -0.2,-0.099 -2.102,0 -2.401,0 -0.201,0 -0.5,-0.099 -0.5,-0.492 -0.9,-2.46 -1.6,-6.986 -2.301,-10.135 -0.3,-1.279 -0.5,-2.361 -0.601,-3.444 -0.199,-0.59 -0.199,-0.984 -0.5,-1.968 0,-0.098 0,-0.098 -0.099,-0.196 -0.1,-0.099 -0.6,-0.296 -1,-0.197 -0.201,0.098 -0.201,0.492 -0.1,1.181 0.1,0.688 0.1,0.787 0.199,1.574 0.301,2.361 0.601,4.919 0.901,7.478 0,0.098 0.2,1.476 0.2,1.673 0.099,1.574 0.099,0.492 0.3,2.951 0.099,0.787 0,0.787 0.099,1.377 0.101,0.591 -0.5,0.492 -1.3,0.591 -0.399,0.197 -0.299,1.082 0.201,1.082 0.599,0 1.099,0 1.2,0.394 m 5.702,-4.132 c 0.5,1.279 1.5,3.148 3.101,3.837 1.6,0.787 3.401,0.787 4.501,-0.59 0.7,-0.69 0.6,-1.968 0.4,-2.952 -0.101,-0.59 -0.2,-0.984 -0.4,-1.181 -0.5,-0.984 -3.601,-1.082 -4.903,-0.787 -0.199,0 -0.199,-0.098 -0.399,-0.197 -0.2,0 -0.101,0 -0.2,-0.098 -0.3,-0.394 -0.3,-0.886 -0.3,-1.279 0,-0.788 0,-1.87 0.399,-2.362 0.301,-0.393 0.7,-0.689 1.102,-0.886 0.4,-0.393 1.099,-0.393 1.599,-0.295 1.101,0.295 1.901,1.083 2.202,2.165 0.099,0.295 0.799,0.393 0.7,-0.197 -0.402,-1.377 -1.402,-2.263 -2.701,-2.853 -0.3,0 -0.5,0.098 -0.701,-0.099 -2.4,-0.393 -4.701,0.492 -5.001,2.362 -0.1,0.492 -0.2,1.279 0,2.755 0.1,0.394 0.201,0.886 0.3,1.377 0.101,0.197 0.101,0.689 0.301,1.28 m 16.103,1.672 c -0.099,-0.295 -0.299,-0.393 -0.5,-0.197 -0.399,0 -0.099,0.886 -0.399,1.378 0,0 -0.302,0.492 -0.101,0.197 -0.099,0.197 -0.3,0.295 -0.3,0.393 -0.901,0.394 -2.3,0.295 -2.7,-0.688 -0.4,-1.083 0,-1.968 0.6,-2.46 0.6,-0.492 1.6,-0.886 2.199,-1.476 0.701,-0.59 1.402,-1.476 1.402,-2.362 0,-0.098 0,-0.393 -0.1,-0.689 0,-0.196 0,-0.491 -0.101,-0.688 0,-0.197 0,-0.492 -0.099,-0.591 -0.401,-0.984 -1.301,-1.869 -2.602,-2.361 -1.099,-0.197 -2.299,-0.098 -3.2,0.394 -0.301,0 -0.5,0.098 -0.801,0.196 -0.299,0.197 -0.699,0.197 -0.699,0.787 0,0.197 0,0.689 0.1,1.28 0.099,0.393 0.099,0.492 0.2,0.885 0.1,0.197 0.2,0.591 0.3,0.591 0.099,0.196 0.4,0.196 0.599,0.295 0,-0.197 0,-0.197 0.101,-0.492 0,0.098 -0.101,-0.492 -0.101,-0.886 0,-0.885 0.301,-1.771 1,-2.165 0.802,-0.393 1.902,-0.196 2.702,0.197 0.9,0.689 0.9,2.264 0,2.854 -1,0.787 -2.301,1.082 -3,2.263 -0.901,1.181 -1.001,2.755 -0.301,4.132 0.2,0.492 0.5,0.886 0.801,1.083 1.6,1.18 3.5,1.18 5,0.098 0,-0.197 0.101,-0.295 0.201,-0.295 v -0.689 c -0.1,-0.295 -0.201,-0.591 -0.201,-0.984 m 8.103,0 c -0.101,-0.295 -0.4,-0.393 -0.5,-0.295 -0.401,0 -0.101,0.984 -0.401,1.378 0,0.098 -0.3,0.492 -0.1,0.295 -0.101,0.197 -0.301,0.295 -0.301,0.295 -0.899,0.492 -2.199,0.295 -2.599,-0.689 -0.5,-0.984 0,-1.869 0.599,-2.46 0.601,-0.491 1.5,-0.885 2.101,-1.476 0.701,-0.491 1.401,-1.476 1.401,-2.263 V -7.38 c 0,-0.196 -0.1,-0.491 -0.1,-0.688 -0.1,-0.295 -0.1,-0.591 -0.201,-0.886 -0.399,-0.787 -1.3,-1.672 -2.6,-2.066 -1,-0.295 -2.2,-0.098 -3.201,0.098 -0.3,0.296 -0.5,0.296 -0.8,0.394 -0.401,0 -0.8,0.197 -0.8,0.59 0,0.394 0.1,0.984 0.199,1.476 0.101,0.492 0.101,0.591 0.2,0.886 0.101,0.196 0.101,0.689 0.3,0.689 0.101,0.196 0.401,0.196 0.5,0 0.101,0 0.101,0 0.101,-0.296 0.099,0.099 0,-0.393 0,-0.787 0,-0.885 0.3,-1.771 1.1,-2.263 0.8,-0.295 1.901,-0.197 2.601,0.295 0.899,0.689 0.899,2.264 -0.101,2.854 -0.899,0.689 -2.1,1.082 -2.9,1.968 -0.9,1.476 -1,3.05 -0.4,4.329 0.299,0.492 0.6,0.984 1.001,1.181 1.599,1.082 3.4,1.082 4.901,0.098 0.1,-0.197 0.2,-0.295 0.3,-0.393 v -0.591 c -0.1,-0.492 -0.2,-0.688 -0.3,-0.984 m 5.7,4.92 c -0.3,-0.197 -0.899,-0.492 -1.3,-0.492 -0.2,0.197 -0.399,0.098 -0.7,0.295 -0.2,0.197 -0.3,0.492 -0.399,0.591 -0.3,0.787 -0.201,1.377 0.199,1.967 0.501,0.689 1.301,1.181 2.101,0.689 0.5,-0.295 0.9,-0.787 0.9,-1.574 0,-0.492 -0.301,-1.082 -0.801,-1.476 m -4.4,-3.837 c -0.2,0.787 0.2,0.59 0.7,0.787 0.3,0 0.7,0 0.801,0.098 0.5,0.098 0.8,0 1.2,0.197 0.699,0.295 1.6,0.492 1.699,-0.492 -0.3,-2.952 -0.8,-6.199 -1.399,-9.446 -0.101,-0.197 -0.2,-0.59 -0.2,-0.984 -0.201,-0.393 -0.5,-0.393 -1.001,-0.492 -0.4,-0.197 -1,-0.393 -1.1,-0.295 -0.3,0 -0.2,0.689 -0.101,0.984 0.101,1.476 0.5,2.853 0.701,4.526 0.201,1.476 0.299,2.952 0.201,4.821 0,0.591 -1.402,-0.196 -1.501,0.296 m 16.603,-9.938 c -0.099,0.196 -0.099,0.393 -0.099,0.787 0.4,2.755 1.099,5.707 1.301,8.56 0,0.295 0.099,0.689 -0.202,0.591 -0.5,0.196 -1.099,0 -1.599,0.196 0,0 -0.1,0.099 0,0.296 0,0.098 0.3,0.196 2,0.295 1.1,0.393 1.6,0.885 2.401,0.59 0.199,0.197 0.3,-0.492 0.199,-0.59 -0.099,-0.099 -0.299,-0.985 -0.5,-1.968 -0.099,-0.886 -0.399,-1.968 -0.399,-2.854 0,-0.098 0,-0.393 0.1,-0.491 l 0.1,0.098 c 0.199,0.098 0.3,0.492 1.1,1.279 1.001,1.378 2.6,3.641 3.501,4.132 0.4,0.296 0.599,0.099 1.101,0.099 0.299,-0.197 0.699,-0.197 0.9,-0.295 0.1,0 0.299,-0.099 0.299,-0.394 0,0.099 -0.099,0 -0.099,-0.197 -0.1,-0.688 -0.2,-1.082 -0.3,-1.476 -0.501,-2.656 -1.001,-4.821 -1.201,-7.674 0,-0.099 0.3,-0.197 0.401,-0.296 0.599,0.099 1.1,0.296 1.699,0.197 0.101,-0.098 0.101,-0.197 0,-0.492 0,0 -0.099,-0.098 -0.699,-0.098 -0.1,0 -1.601,-0.295 -2.201,-0.59 -0.4,-0.296 -0.801,-0.394 -1.101,-0.492 -0.2,-0.197 -0.799,-0.099 -0.799,0.295 -0.1,0.197 0,0.295 0,0.295 0,0.197 0.099,0.492 0.099,0.393 0.301,1.968 0.7,4.231 1,6.298 0,0.59 0.101,1.476 0.101,1.771 -0.2,0.295 -1,-0.394 -1.7,-1.279 -0.201,-0.295 -0.402,-0.689 -0.701,-0.984 -0.1,-0.099 -0.5,-0.689 -0.6,-0.787 -0.4,-0.689 -0.8,-1.378 -1.101,-1.87 -0.099,-0.295 -0.299,-0.688 -0.399,-0.787 -0.2,-0.394 -0.3,-0.984 -0.4,-1.279 -0.201,-0.394 -0.201,-0.591 -0.3,-0.689 -0.1,-0.295 -0.2,-0.394 -0.3,-0.492 -0.101,-0.393 -0.4,-0.295 -0.701,-0.295 -0.1,0.098 -0.7,0 -0.901,0.197 m -9.801,-0.591 c -2.001,1.181 -1.801,4.428 -1.301,6.593 0.6,2.46 2.1,4.821 4.702,4.919 1.399,0.296 3.5,0.099 4.001,-0.295 0.399,-0.295 0.6,-0.688 0.8,-0.984 0.4,-0.885 0.5,-2.066 0.4,-3.05 -0.1,-1.279 -0.2,-1.672 -0.4,-2.558 -0.2,-0.59 -0.8,-2.066 -1,-2.46 -1.501,-1.869 -3.201,-2.361 -5.102,-2.361 -0.5,0 -0.6,0 -1,0.196 -1,0.099 -1,0.099 -1.1,0 m 21.105,1.378 c -0.3,1.574 0.3,3.345 0.899,4.625 0.5,1.082 1,2.066 1.602,2.755 0.399,0.491 0.8,0.984 1.3,1.279 0.399,0.393 0.7,0.688 1,0.885 0.099,0 0.3,0.197 0.5,0.295 0.399,0 0.7,0.295 1.201,0.197 0.8,0.394 2,0.394 2.8,0.295 0.2,-0.098 0.4,-0.393 0.4,-0.492 0.1,-0.098 0,-0.295 0,-0.688 -0.1,-0.591 -0.5,-2.755 -0.801,-5.018 -0.099,-1.476 -0.399,-2.952 -0.299,-4.133 0,-0.591 1.6,0.098 2.3,0.098 0.201,-0.098 0.201,-0.689 0,-0.689 -1.2,0 -2.501,-0.393 -3.1,-0.59 -0.3,-0.197 -0.5,-0.393 -0.901,-0.59 -0.099,-0.098 -0.599,0 -0.599,0.492 -0.102,0.885 0.2,1.771 0.3,4.132 0,0.197 0.1,0.099 0,0.394 0,0.098 -0.1,0 -0.201,-0.098 -0.201,-0.197 -0.8,-1.279 -1.4,-2.165 -0.301,-0.492 -0.601,-0.886 -0.9,-1.083 -0.8,-0.885 -2.1,-1.869 -3.101,-1.475 -0.601,0.098 -0.9,0.885 -1,1.574 m 11.603,-1.181 c 0,1.476 0.2,4.428 0.599,6.986 0.2,0.984 0.301,1.771 0.601,3.05 0.7,3.149 1.6,6.888 2.001,6.888 0,0.098 0.099,0.197 0.2,0.197 1.1,0 2,-0.099 3,-0.295 0.1,0 0.201,0.098 0.201,-0.197 0,0 -0.101,0.098 -0.201,-0.099 -0.3,0 -0.9,-0.295 -1.2,-0.492 -0.401,-0.393 -0.7,-0.885 -0.8,-1.574 -1,-3.837 -1.8,-7.084 -2.102,-11.512 -0.098,-0.689 0,-1.279 0.102,-1.87 0,-0.295 0.099,-0.295 0.2,-0.295 0.699,0.099 1.8,0.492 2,0.099 0,0 0,-0.296 -0.2,-0.394 -1.101,-0.197 -2.501,-0.393 -3.602,-0.885 -0.399,-0.295 -0.799,-0.099 -0.799,0.393 M 26.006,0.099 c -0.7,-0.394 -1,-0.984 -1.3,-1.575 -0.301,-0.688 -0.5,-1.279 -0.7,-2.164 -0.101,-0.591 -0.3,-1.87 -0.401,-2.657 -0.099,-1.181 -0.099,-1.574 0.101,-2.558 0.1,-0.886 1.199,-1.673 2.199,-1.28 0.701,0.197 1.201,0.886 1.402,1.476 0.5,1.575 0.799,2.46 0.799,3.936 0.101,1.083 0.201,2.362 0,3.543 0,0.295 -0.199,0.688 -0.399,0.983 -0.4,0.394 -1,0.394 -1.701,0.296 M 45.11,-0.492 c 0,0.099 -0.099,0.295 -0.099,0.492 -0.2,0.492 -0.8,0.59 -1.401,0.492 -0.099,0 -0.299,-0.098 -0.5,-0.393 -0.199,-0.197 -0.3,-0.197 -0.399,-0.591 -0.4,-0.393 -0.501,-0.984 -0.602,-1.181 -0.099,-0.491 -0.299,-0.59 -0.399,-1.082 -0.2,-0.885 -0.2,-0.984 -0.2,-1.377 0.099,0 0.2,-0.197 0.3,0 0.501,-0.197 1,-0.099 1.601,0.098 0.4,0.197 0.699,0.295 1,0.492 0.3,0.59 0.3,0.59 0.5,1.082 0.199,0.492 0.3,1.673 0.199,1.968 m 30.008,0.394 c -0.7,-0.394 -1.1,-0.787 -1.4,-1.378 -0.3,-0.688 -0.5,-1.574 -0.6,-2.361 -0.2,-0.591 -0.4,-1.87 -0.4,-2.558 -0.2,-0.985 -0.1,-1.378 0,-2.46 0.099,-1.083 1.3,-1.968 2.301,-1.575 0.7,0.295 1.099,0.984 1.299,1.771 0.5,1.378 0.701,2.264 0.8,3.74 0.2,1.082 0.2,2.361 0,3.542 0,0.197 -0.099,0.59 -0.399,0.885 -0.3,0.394 -1,0.689 -1.601,0.394 m 23.705,-0.197 c -0.098,0 -0.098,0.098 -0.199,-0.197 -0.1,0.197 -0.301,-0.099 -0.7,-0.393 -0.3,0 -0.5,-0.295 -0.7,-0.492 -0.6,-0.689 -1.201,-1.476 -1.701,-2.165 0,-0.295 -0.099,-0.295 -0.099,-0.492 -0.2,-0.098 -0.401,-0.787 -0.601,-1.377 -0.301,-0.886 -0.5,-1.772 -0.199,-2.756 0.299,-0.688 1.199,-0.492 1.699,0.197 1,0.886 1.401,1.181 2.102,2.263 0.398,0.394 0.599,0.886 0.8,1.476 0.4,1.083 0.799,2.362 0.7,3.346 -0.1,0.196 -0.2,0.492 -0.3,0.59 -0.2,0.197 -0.5,0.295 -0.802,0"
       style="display:inline;fill:#e41f26;fill-opacity:1;fill-rule:evenodd;stroke:none"
       transform="matrix(0.35277776,0,0,-0.35277776,16.018986,18.698771)"
       clip-path="url(#clipPath963)" />
    <path
       style="display:inline;fill:#e41f26;fill-opacity:1;fill-rule:evenodd;stroke:none;stroke-width:0.352778"
       d="m 53.257749,5.1147497 v 7.8792883 c 0,0.833261 0.21837,1.006828 1.054806,1.006828 v 1.423105 h -6.037086 v -1.423105 c 0.909108,0 1.090788,-0.173567 1.090788,-1.006828 V 5.1147497 c 0,-0.867481 -0.18168,-1.0414 -1.090788,-1.0414 v -1.214967 h 6.037086 v 1.214967 c -0.836436,0 -1.054806,0.138994 -1.054806,1.0414"
       id="path2891" />
    <path
       id="path2890"
       style="display:inline;fill:#e41f26;fill-opacity:1;fill-rule:evenodd;stroke:none;stroke-width:0.352778"
       d="m 40.128804,1.8520827 -3.418912,1.423169 1.018026,2.290816 -3.309359,7.4631073 c -0.363714,0.832908 -1.018143,0.971517 -1.490864,0.971517 h -0.690914 v 1.423169 h 5.127851 v -1.423169 c -0.727427,0 -1.273085,-0.0692 -1.054716,-0.659391 0.18168,-0.416278 0.508496,-1.145149 0.508496,-1.145149 h 3.855579 c 0,0 0.363641,0.797648 0.436666,1.006139 0.327377,0.694266 -0.509353,0.833024 -1.200444,0.833024 v 1.388546 h 7.019211 v -1.423169 h -0.545187 c -0.618419,-0.0695 -1.091274,-0.485942 -1.273307,-0.867647 z m -1.382344,5.9701768 1.346171,3.0545925 h -2.691309 z" />
    <path
       style="display:inline;fill:#e41f26;fill-opacity:1;fill-rule:evenodd;stroke:none;stroke-width:0.352778"
       d="m 23.908049,14.000866 c 0.872773,0 0.691092,-0.416631 0.436739,-0.763411 l -2.03729,-2.811992 v 2.568575 c 0,0.833261 0.182386,1.006828 1.09114,1.006828 v 1.423105 h -6.000396 v -1.423105 c 0.836435,0 1.054452,-0.173567 1.054452,-1.006828 V 5.1147497 c 0,-0.867481 -0.218017,-1.0414 -1.054452,-1.0414 v -1.214967 h 6.037085 v 1.214967 c -0.909107,0 -1.09114,0.173919 -1.09114,1.0414 v 2.6034988 l 2.982382,-2.7770658 c 0.218369,-0.277636 0.145344,-0.867833 -0.472722,-0.867833 h -0.40005 v -1.214967 h 6.037085 v 1.214967 c -0.872772,0 -1.709208,-0.104069 -2.327627,0.5207 l -3.237089,3.0892738 4.182533,5.6927735 c 0.473075,0.555272 1.054806,0.590197 1.673225,0.590197 v 1.457677 h -6.873875 z"
       id="path2889" />
    <path
       id="path964"
       style="display:inline;fill:#e41f26;fill-opacity:1;fill-rule:evenodd;stroke:none;stroke-width:0.352778"
       d="m 9.1787562,1.8520827 -3.3822218,1.423169 0.981852,2.290816 -3.3093589,7.4631073 c -0.400402,0.832908 -1.019175,0.971517 -1.4552081,0.971517 H 1.3229057 v 1.423169 h 5.0555057 v -1.423169 c -0.690738,0 -1.2365579,-0.0692 -0.981852,-0.659391 0.145344,-0.416278 0.472322,-1.145149 0.472322,-1.145149 h 3.8555778 c 0,0 0.3636678,0.797648 0.4723228,1.006139 0.255058,0.694266 -0.5090268,0.833024 -1.2727908,0.833024 v 1.388546 h 7.0558998 v -1.423169 h -0.545703 c -0.618066,-0.0695 -1.091272,-0.485942 -1.236617,-0.867647 z m -1.381827,5.9701768 1.345137,3.0545925 H 6.4512744 Z" />
    <path
       style="display:inline;fill:#666666;fill-opacity:1;fill-rule:evenodd;stroke:none;stroke-width:0.352778"
       d="m 98.554858,2.4789347 h -9.515475 v 1.94698 0.520348 6.4769973 h 0.01658 v 0.01623 h 0.382764 V 2.8846307 h 9.127419 c 0.839258,0 1.519764,0.703086 1.519764,1.570567 v 0.978958 c 0,0.8674814 -0.680506,1.5705661 -1.519764,1.5705661 H 90.001055 V 11.43949 h 0.388761 V 7.4104155 h 8.165041 c 1.065742,0 1.930043,-0.8932314 1.930043,-1.9949568 v -0.941564 c 0,-1.101725 -0.864301,-1.994958 -1.930043,-1.994958"
       id="path966" />
    <path
       id="path2888"
       style="display:inline;fill:#666666;fill-opacity:1;fill-rule:evenodd;stroke:none;stroke-width:0.352778"
       d="m 89.999146,3.4556017 v 2.9775964 h 8.580355 c 0.522816,0 0.948262,-0.4358757 0.948262,-0.9766844 v -1.024227 c 0,-0.53728 -0.425446,-0.976685 -0.948262,-0.976685 z m 0.392224,0.40566 h 8.106482 c 0.349955,0 0.63407,0.293825 0.63407,0.655774 v 0.858346 c 0,0.361597 -0.284115,0.6557747 -0.63407,0.6557747 H 90.39137 Z" />
    <path
       style="display:inline;fill:#666666;fill-opacity:1;fill-rule:evenodd;stroke:none;stroke-width:0.352778"
       d="m 103.45516,3.8610827 h 7.46901 c 0.28117,0 0.51964,0.189442 0.60149,0.452967 h 0.42157 c -0.0328,-0.273756 -0.17674,-0.517173 -0.38559,-0.66922 -0.15381,-0.118533 -0.34678,-0.189441 -0.5528,-0.189441 h -7.6387 c -0.20602,0 -0.39899,0.07091 -0.5528,0.189441 -0.21238,0.155575 -0.35948,0.405695 -0.38912,0.686153 -0.003,0.03387 -0.003,0.06738 -0.003,0.101247 v 5.0531866 c 0,0.03387 0,0.06773 0.003,0.09807 0.0296,0.283986 0.17674,0.5341057 0.38912,0.6928557 0.15381,0.11818 0.34678,0.185913 0.5528,0.185913 h 7.6387 c 0.20602,0 0.39899,-0.06773 0.5528,-0.185913 0.20567,-0.155575 0.35278,-0.3954637 0.38559,-0.6727477 h -0.42157 c -0.0819,0.263878 -0.32032,0.4529667 -0.60149,0.4529667 h -7.46901 c -0.34996,0 -0.63465,-0.2938637 -0.63465,-0.6558134 v -0.124883 h 0.004 V 4.6417777 h -0.004 v -0.124883 c 0,-0.361597 0.28469,-0.655814 0.63465,-0.655814"
       id="path970" />
    <path
       style="display:inline;fill:#666666;fill-opacity:1;fill-rule:evenodd;stroke:none;stroke-width:0.352778"
       d="m 111.9508,10.681861 c -0.11783,0.09807 -0.24871,0.179211 -0.38947,0.236714 -0.17639,0.07408 -0.36936,0.114653 -0.56903,0.114653 h -7.60589 c -0.19967,0 -0.39264,-0.04057 -0.56938,-0.114653 -0.14006,-0.0575 -0.27094,-0.138642 -0.38876,-0.236714 -0.34361,-0.287161 -0.56268,-0.7267217 -0.56268,-1.2202574 V 4.4560417 c 0,-0.493536 0.21907,-0.933097 0.56268,-1.220258 0.11782,-0.09807 0.2487,-0.179211 0.38876,-0.236714 0.17674,-0.07444 0.36971,-0.115006 0.56938,-0.115006 h 7.60589 c 0.19967,0 0.39264,0.04057 0.56903,0.115006 0.14076,0.0575 0.27164,0.138642 0.38947,0.236714 0.31045,0.26035 0.52,0.642055 0.55563,1.078089 h 0.39934 c -0.0296,-0.395464 -0.17004,-0.757061 -0.39264,-1.051278 -0.10442,-0.145345 -0.22931,-0.273756 -0.36936,-0.378531 -0.0621,-0.04727 -0.1277,-0.09454 -0.19297,-0.135113 -0.12135,-0.07444 -0.25223,-0.135114 -0.38947,-0.175684 -0.18274,-0.06421 -0.37606,-0.09454 -0.57855,-0.09454 h -7.58649 c -0.20285,0 -0.39547,0.03034 -0.57926,0.09454 -0.13688,0.04057 -0.26776,0.101247 -0.38876,0.175684 -0.0656,0.04057 -0.13053,0.08784 -0.19297,0.135113 -0.14041,0.104775 -0.26459,0.233186 -0.36971,0.378531 -0.25189,0.334786 -0.399,0.753886 -0.399,1.21038 v 4.9716949 c 0,0.4564947 0.14711,0.8755944 0.399,1.2100274 0.10512,0.145345 0.2293,0.273756 0.36971,0.378531 0.0624,0.04763 0.12735,0.0949 0.19297,0.135467 0.121,0.07408 0.25188,0.135114 0.38876,0.178859 0.18379,0.06103 0.37641,0.09137 0.57926,0.09137 h 7.58649 c 0.20249,0 0.39581,-0.03034 0.57855,-0.09137 0.13724,-0.04374 0.26812,-0.104775 0.38947,-0.178859 0.0653,-0.04057 0.13088,-0.08784 0.19297,-0.135467 0.14005,-0.104775 0.26494,-0.233186 0.36936,-0.378531 0.2226,-0.293864 0.36301,-0.6554607 0.39264,-1.0509247 h -0.39934 c -0.0356,0.4360327 -0.24518,0.8177387 -0.55563,1.0780887"
       id="path972" />
    <path
       style="display:inline;fill:#666666;fill-opacity:1;fill-rule:evenodd;stroke:none;stroke-width:0.352778"
       d="m 87.303187,2.4789347 h -0.513292 -0.121002 -0.0018 -0.269875 -0.183092 -0.0014 l -0.225425,0.405694 -0.320675,0.571148 -0.222603,0.402166 -3.433233,6.1517363 -3.436761,-6.1517363 -0.222603,-0.402166 -0.320322,-0.571148 -0.225778,-0.405694 h -0.183091 -0.271286 -0.121003 -0.513292 -0.03916 -0.38982 v 0.04727 0.358422 0.571148 0.402166 6.2021833 0.405694 0.567973 0.405695 h 0.38982 V 11.033791 10.465818 10.060124 3.8579407 3.4557747 3.2225887 2.8846267 h 0.264583 0.287867 0.34678 l 0.04551,0.07761 0.274814,0.493536 0.225777,0.402166 3.462867,6.2021833 0.198967,0.348192 v 0.0035 l 0.02963,0.05397 h 0.389466 l 0.03281,-0.05397 0.196144,-0.351719 3.462867,-6.2021833 h 0.0014 l 0.225778,-0.402166 0.274461,-0.493536 0.04586,-0.07761 h 0.34678 0.287514 0.264936 v 0.337962 0.233186 0.402166 6.2021833 0.405694 0.567973 0.405695 h 0.389114 v -0.405695 -0.567973 -0.405694 -6.2021833 -0.402166 -0.571148 -0.358422 -0.04727 h -0.389114 z"
       id="path974" />
    <path
       style="display:inline;fill:#666666;fill-opacity:1;fill-rule:evenodd;stroke:none;stroke-width:0.352778"
       d="m 86.788493,3.4016947 -0.02963,0.05398 -0.225778,0.402167 -0.136878,0.246944 -3.325636,5.9555913 -0.228953,0.405695 -0.313972,0.567619 h -0.395816 -0.244123 -0.0014 -0.395464 l -0.313619,-0.567619 -0.229306,-0.405695 -3.325283,-5.9555913 -0.13723,-0.246944 -0.226131,-0.402167 -0.02963,-0.05398 v 0.05398 0.402167 0.354894 5.8476413 0.405695 0.567619 0.405695 h 0.392994 V 11.033691 10.466072 10.060377 4.9158217 l 2.874081,5.1445553 0.225777,0.405695 0.316795,0.567619 0.200025,0.354895 0.02611,0.0508 h 0.395817 0.0014 0.05715 0.578556 0.0014 0.0575 0.395816 l 0.02963,-0.04727 v -0.0035 l 0.195791,-0.354895 h 0.0014 l 0.3175,-0.567619 h -0.0014 l 0.225425,-0.405695 2.874786,-5.1445553 0.0014,-0.0025 v 5.1470243 0.405695 0.567619 0.405695 h 0.392307 V 11.03369 10.466071 10.060376 3.8578407 3.4556737 3.4016937 l -0.0014,0.0025 z"
       id="path976" />
    <path
       style="display:inline;fill:#666666;fill-opacity:1;fill-rule:evenodd;stroke:none;stroke-width:0.352778"
       d="m 180.11408,11.050656 h -0.55386 V 10.496795 10.105212 2.4781587 h -0.38806 v 7.6270533 0.391583 0.553861 0.388057 h 0.38806 0.55386 0.39123 8.41763 v -0.388057 h -8.41763 z"
       id="path978" />
    <path
       style="display:inline;fill:#666666;fill-opacity:1;fill-rule:evenodd;stroke:none;stroke-width:0.352778"
       d="M 180.50545,10.105316 V 2.4782637 h -0.39123 v 7.6270523 0.391583 h 0.39123 8.41728 v -0.391583 z"
       id="path980" />
    <path
       style="display:inline;fill:#666666;fill-opacity:1;fill-rule:evenodd;stroke:none;stroke-width:0.352778"
       d="m 171.69499,7.9500582 -0.28222,-0.2822217 -3.7712,3.7711935 h 0.56798 l 3.20322,-3.2067498 3.20675,3.2067498 h 0.56444 z"
       id="path982" />
    <path
       style="display:inline;fill:#666666;fill-opacity:1;fill-rule:evenodd;stroke:none;stroke-width:0.352778"
       d="m 177.16646,2.4785827 h -0.56444 l -4.7939,4.7942491 0.28187,0.2822217 3.88408,3.8840825 h 0.55739 l -4.16278,-4.1627762 z"
       id="path984" />
    <path
       style="display:inline;fill:#666666;fill-opacity:1;fill-rule:evenodd;stroke:none;stroke-width:0.352778"
       d="M 170.73894,6.9940668 166.2195,2.4785127 h -0.56056 l 4.79778,4.7977761 -4.16313,4.1627772 h 0.55739 l 4.16665,-4.1663052 z"
       id="path986" />
    <path
       style="display:inline;fill:#666666;fill-opacity:1;fill-rule:evenodd;stroke:none;stroke-width:0.352778"
       d="m 171.41284,6.8776138 0.27869,-0.2786937 4.12045,-4.1204454 h -0.55422 l -3.84492,3.8452784 -3.84528,-3.8452784 h -0.55421 l 4.1208,4.1204454 z"
       id="path988" />
    <path
       id="path2885"
       style="display:inline;fill:#666666;fill-opacity:1;fill-rule:evenodd;stroke:none;stroke-width:0.352778"
       d="m 128.83917,2.4784017 c -0.73801,0 -1.33635,0.613915 -1.33635,1.370975 v 6.2187393 c 0,0.75706 0.59834,1.370977 1.33635,1.370977 h 8.08323 c 0.7359,0 1.33274,-0.61258 1.33274,-1.367876 V 3.8462767 c 0,-0.755649 -0.59684,-1.367875 -1.33274,-1.367875 z m 0.7705,1.363224 h 6.53965 c 0.34573,0 0.62632,0.276234 0.62632,0.617017 v 5.0002089 c 0,0.3407827 -0.28059,0.6170154 -0.62632,0.6170154 h -6.53965 c -0.34643,0 -0.62684,-0.2762327 -0.62684,-0.6170154 V 4.4586427 c 0,-0.340783 0.28041,-0.617017 0.62684,-0.617017 z" />
    <path
       id="path2886"
       style="display:inline;fill:#666666;fill-opacity:1;fill-rule:evenodd;stroke:none;stroke-width:0.352778"
       d="m 141.70558,2.4784017 c -0.73801,0 -1.33636,0.613915 -1.33636,1.370975 v 6.2187393 c 0,0.75706 0.59835,1.370977 1.33636,1.370977 h 8.08323 c 0.73625,0 1.33274,-0.61258 1.33274,-1.367876 V 3.8462767 c 0,-0.755649 -0.59649,-1.367875 -1.33274,-1.367875 z m 0.76998,1.363224 h 6.53965 c 0.34608,0 0.62684,0.276234 0.62684,0.617017 v 5.0002089 c 0,0.3407827 -0.28076,0.6170154 -0.62684,0.6170154 h -6.53965 c -0.34608,0 -0.62632,-0.2762327 -0.62632,-0.6170154 V 4.4586427 c 0,-0.340783 0.28024,-0.617017 0.62632,-0.617017 z" />
    <path
       id="path2887"
       style="display:inline;fill:#666666;fill-opacity:1;fill-rule:evenodd;stroke:none;stroke-width:0.352778"
       d="m 154.57147,2.4784017 c -0.73802,0 -1.33584,0.613915 -1.33584,1.370975 v 6.2187393 c 0,0.75706 0.59782,1.370977 1.33584,1.370977 h 8.08374 c 0.7359,0 1.33274,-0.61258 1.33274,-1.367876 V 3.8462767 c 0,-0.755649 -0.59684,-1.367875 -1.33274,-1.367875 z m 0.77049,1.363224 h 6.53966 c 0.34572,0 0.62632,0.276234 0.62632,0.617017 v 5.0002089 c 0,0.3407827 -0.2806,0.6170154 -0.62632,0.6170154 h -6.53966 c -0.34642,0 -0.62683,-0.2762327 -0.62683,-0.6170154 V 4.4586427 c 0,-0.340783 0.28041,-0.617017 0.62683,-0.617017 z" />
    <path
       style="display:inline;fill:#666666;fill-opacity:1;fill-rule:nonzero;stroke:none;stroke-width:0.352778"
       d="m 116.73984,7.6396835 h 7.16704 0.14676 c 0.49141,0 0.92039,-0.271639 1.15076,-0.6738057 l 0.007,-0.0071 c 0.0624,-0.112888 0.11112,-0.2363597 0.13899,-0.3668877 0.0106,-0.04233 0.0176,-0.08819 0.0247,-0.134055 0.0102,-0.05997 0.0141,-0.119945 0.0141,-0.1834447 V 3.8472787 c 0,-0.754944 -0.60007,-1.368778 -1.33597,-1.368778 h -0.14674 -6.08577 -1.70569 -1.2901 c -0.10619,0 -0.19192,0.08714 -0.19192,0.194381 v 0.972961 c 0,0.107597 0.0857,0.194381 0.19192,0.194381 h 1.2901 1.70569 5.46171 c 0.34501,0 0.62406,0.278694 0.62406,0.617361 v 1.202972 c 0,0.3421947 -0.27905,0.6173617 -0.62406,0.6173617 h -7.1674 -0.14287 c -0.49177,0 -0.92075,0.2716387 -1.15394,0.6738034 0,0.0035 0,0.0035 -0.004,0.0071 -0.0663,0.112889 -0.11536,0.239889 -0.14287,0.370417 -0.0106,0.04586 -0.0176,0.08819 -0.0247,0.1340547 -0.0102,0.05997 -0.0138,0.119945 -0.0138,0.183445 v 2.4200535 c 0,0.0032 7e-4,0.006 7e-4,0.0092 h -7e-4 v 1.127126 c 0,0.12947 0.10371,0.234597 0.23213,0.234597 h 1.09255 c 0.005,0 0.01,0.0014 0.0145,0.0014 h 0.14287 5.66421 2.12725 1.29081 c 0.10548,0 0.19191,-0.08714 0.19191,-0.19438 v -0.972962 c 0,-0.107245 -0.0864,-0.194381 -0.19191,-0.194381 h -1.29081 -2.12725 -3.89573 v -0.0014 h -1.15888 c -0.33831,-0.0081 -0.6096,-0.2822217 -0.6096,-0.6159494 V 8.2570712 c 0,-0.338667 0.27905,-0.6173607 0.62442,-0.6173607"
       id="path996" />
    <path
       style="display:inline;fill:#666666;fill-opacity:1;fill-rule:evenodd;stroke:none;stroke-width:0.352778"
       d="M 132.60536,16.580528 H 76.287549 V 14.86391 h 56.317811 z"
       id="path998" />
    <path
       style="display:inline;fill:#ea2213;fill-opacity:1;fill-rule:evenodd;stroke:none;stroke-width:0.352778"
       d="M 188.92282,16.580528 H 132.60536 V 14.86391 h 56.31746 z"
       id="path1000" />
    <path
       id="path1002"
       d="M 0,0 C 0,1.946 0.02,3.807 0.077,4.801 H 0.02 C -0.519,3.466 -3.248,-1.434 -4.958,-4.574 h -1.019 c -1.288,2.429 -4.113,7.884 -4.727,9.389 h -0.039 c 0.097,-1.136 0.136,-3.451 0.136,-5.156 v -4.233 h -1.039 v 9.943 h 1.556 C -8.245,1.96 -5.919,-2.5 -5.419,-3.622 h 0.038 c 0.307,0.724 2.998,5.682 4.881,8.991 H 1.038 V -4.574 H 0 Z"
       style="display:inline;fill:#666666;fill-opacity:1;fill-rule:nonzero;stroke:#666666;stroke-width:1;stroke-linecap:butt;stroke-linejoin:miter;stroke-miterlimit:10;stroke-dasharray:none;stroke-opacity:1"
       transform="matrix(0.35277776,0,0,-0.35277776,80.729958,21.07727)"
       clip-path="url(#clipPath1003)" />
    <path
       id="path1004"
       d="m 1294.401,921.205 h -1.038 v 9.943 h 1.038 z"
       style="display:inline;fill:#666666;fill-opacity:1;fill-rule:nonzero;stroke:#666666;stroke-width:1;stroke-linecap:butt;stroke-linejoin:miter;stroke-miterlimit:10;stroke-dasharray:none;stroke-opacity:1"
       transform="matrix(0.35277776,0,0,-0.35277776,-372.62529,347.67127)"
       clip-path="url(#clipPath1005)" />
    <path
       id="path1006"
       d="m 0,0 h 3.247 c 3.556,0 5.305,1.846 5.305,4.304 0,2.187 -1.576,4.218 -5.305,4.218 H 0 Z M -1.039,9.232 H 3.42 C 7.11,9.232 9.666,7.329 9.666,4.346 9.666,1.378 7.168,-0.71 3.4,-0.71 h -4.439 z"
       style="display:inline;fill:#666666;fill-opacity:1;fill-rule:nonzero;stroke:#666666;stroke-width:1;stroke-linecap:butt;stroke-linejoin:miter;stroke-miterlimit:10;stroke-dasharray:none;stroke-opacity:1"
       transform="matrix(0.35277776,0,0,-0.35277776,86.563174,22.440157)"
       clip-path="url(#clipPath1007)" />
    <path
       id="path1008"
       d="m 1318.609,921.205 h -1.038 v 9.943 h 1.038 z"
       style="display:inline;fill:#666666;fill-opacity:1;fill-rule:nonzero;stroke:#666666;stroke-width:1;stroke-linecap:butt;stroke-linejoin:miter;stroke-miterlimit:10;stroke-dasharray:none;stroke-opacity:1"
       transform="matrix(0.35277776,0,0,-0.35277776,-372.62529,347.67127)"
       clip-path="url(#clipPath1009)" />
    <path
       id="path1010"
       d="M 0,0 H 3.82 C 6.058,0 6.988,0.852 6.988,2.102 6.988,3.437 5.761,4.19 3.899,4.19 H 0 Z M -1.088,4.9 H 3.859 C 6.394,4.9 8.136,3.892 8.136,2.131 8.136,0.341 6.414,-0.71 3.722,-0.71 H 0 v -4.332 h -1.088 z"
       style="display:inline;fill:#666666;fill-opacity:1;fill-rule:nonzero;stroke:#666666;stroke-width:1;stroke-linecap:butt;stroke-linejoin:miter;stroke-miterlimit:10;stroke-dasharray:none;stroke-opacity:1"
       transform="matrix(0.35277776,0,0,-0.35277776,98.928317,20.911889)"
       clip-path="url(#clipPath1011)" />
    <path
       id="path1012"
       d="m 0,0 h 3.347 c 2.434,0 3.562,0.653 3.562,1.96 0,1.222 -1.107,1.918 -3.265,1.918 H 0 Z M 0,-0.71 V -5.355 H -1.088 V 4.588 H 3.88 c 2.733,0 4.178,-1.051 4.178,-2.614 0,-1.264 -1.049,-2.088 -2.594,-2.329 1.427,-0.242 2.375,-0.909 2.375,-2.6 v -0.383 c 0,-0.696 -0.078,-1.633 0.18,-2.017 H 6.93 c -0.259,0.426 -0.199,1.221 -0.199,2.074 v 0.256 c 0,1.633 -0.672,2.315 -3.326,2.315 z"
       style="display:inline;fill:#666666;fill-opacity:1;fill-rule:nonzero;stroke:#666666;stroke-width:1;stroke-linecap:butt;stroke-linejoin:miter;stroke-miterlimit:10;stroke-dasharray:none;stroke-opacity:1"
       transform="matrix(0.35277776,0,0,-0.35277776,104.60342,20.801468)"
       clip-path="url(#clipPath1013)" />
    <path
       id="path1014"
       d="m 0,0 c 0,-2.287 1.761,-4.446 5.087,-4.446 3.583,0 5.088,2.102 5.088,4.46 0,2.316 -1.703,4.347 -5.048,4.347 C 1.564,4.361 0,2.244 0,0 m 11.323,0.028 c 0,-2.712 -2.019,-5.184 -6.295,-5.184 -3.9,0 -6.177,2.258 -6.177,5.114 0,2.812 2.198,5.113 6.316,5.113 3.801,0 6.156,-2.145 6.156,-5.043"
       style="display:inline;fill:#666666;fill-opacity:1;fill-rule:nonzero;stroke:none"
       transform="matrix(0.35277776,0,0,-0.35277776,110.36671,20.921906)"
       clip-path="url(#clipPath1015)" />
    <path
       id="path1016"
       d="m 0,0 c 0,-2.287 1.761,-4.446 5.087,-4.446 3.583,0 5.088,2.102 5.088,4.46 0,2.316 -1.703,4.347 -5.048,4.347 C 1.564,4.361 0,2.244 0,0 Z m 11.323,0.028 c 0,-2.712 -2.019,-5.184 -6.295,-5.184 -3.9,0 -6.177,2.258 -6.177,5.114 0,2.812 2.198,5.113 6.316,5.113 3.801,0 6.156,-2.145 6.156,-5.043 z"
       style="display:inline;fill:none;stroke:#666666;stroke-width:1;stroke-linecap:butt;stroke-linejoin:miter;stroke-miterlimit:10;stroke-dasharray:none;stroke-opacity:1"
       transform="matrix(0.35277776,0,0,-0.35277776,110.36671,20.921906)"
       clip-path="url(#clipPath1017)" />
    <path
       id="path1018"
       d="m 0,0 h 3.247 c 3.556,0 5.305,1.846 5.305,4.304 0,2.187 -1.576,4.218 -5.305,4.218 H 0 Z M -1.039,9.232 H 3.42 C 7.11,9.232 9.666,7.329 9.666,4.346 9.666,1.378 7.168,-0.71 3.4,-0.71 h -4.439 z"
       style="display:inline;fill:#666666;fill-opacity:1;fill-rule:nonzero;stroke:#666666;stroke-width:1;stroke-linecap:butt;stroke-linejoin:miter;stroke-miterlimit:10;stroke-dasharray:none;stroke-opacity:1"
       transform="matrix(0.35277776,0,0,-0.35277776,116.53415,22.440157)"
       clip-path="url(#clipPath1019)" />
    <path
       id="path1020"
       d="m 0,0 v -6.022 c 0,-2.642 2.017,-3.324 3.921,-3.324 2.247,0 3.92,0.696 3.92,3.324 V 0 h 1.055 v -5.98 c 0,-3.111 -2.228,-4.076 -5.014,-4.076 -2.653,0 -4.959,1.065 -4.959,3.948 V 0 Z"
       style="display:inline;fill:#666666;fill-opacity:1;fill-rule:nonzero;stroke:#666666;stroke-width:1;stroke-linecap:butt;stroke-linejoin:miter;stroke-miterlimit:10;stroke-dasharray:none;stroke-opacity:1"
       transform="matrix(0.35277776,0,0,-0.35277776,122.73324,19.163168)"
       clip-path="url(#clipPath1021)" />
    <path
       id="path1022"
       d="m 0,0 c -0.634,-1.577 -2.211,-2.77 -5.054,-2.77 -3.863,0 -5.901,2.273 -5.901,5.071 0,2.685 2,5.128 5.919,5.128 2.903,0 4.613,-1.193 5.055,-2.855 h -1.038 c -0.614,1.292 -1.748,2.144 -4.074,2.144 -3.344,0 -4.747,-2.258 -4.747,-4.403 0,-2.13 1.384,-4.374 4.823,-4.374 2.192,0 3.306,0.838 3.979,2.059 z"
       style="display:inline;fill:#666666;fill-opacity:1;fill-rule:nonzero;stroke:#666666;stroke-width:1;stroke-linecap:butt;stroke-linejoin:miter;stroke-miterlimit:10;stroke-dasharray:none;stroke-opacity:1"
       transform="matrix(0.35277776,0,0,-0.35277776,132.06981,21.758696)"
       clip-path="url(#clipPath1023)" />
    <path
       id="path1024"
       d="M 0,0 H -4.517 V 0.71 H 5.593 V 0 H 1.057 V -9.233 H 0 Z"
       style="display:inline;fill:#666666;fill-opacity:1;fill-rule:nonzero;stroke:#666666;stroke-width:1;stroke-linecap:butt;stroke-linejoin:miter;stroke-miterlimit:10;stroke-dasharray:none;stroke-opacity:1"
       transform="matrix(0.35277776,0,0,-0.35277776,135.34403,19.433609)"
       clip-path="url(#clipPath1025)" />
    <path
       id="path1026"
       d="m 1452.043,921.205 h -1.038 v 9.943 h 1.038 z"
       style="display:inline;fill:#666666;fill-opacity:1;fill-rule:nonzero;stroke:#666666;stroke-width:1;stroke-linecap:butt;stroke-linejoin:miter;stroke-miterlimit:10;stroke-dasharray:none;stroke-opacity:1"
       transform="matrix(0.35277776,0,0,-0.35277776,-372.62529,347.67127)"
       clip-path="url(#clipPath1027)" />
    <path
       id="path1028"
       d="m 0,0 c 0,-2.287 1.71,-4.446 4.938,-4.446 3.479,0 4.94,2.102 4.94,4.46 0,2.316 -1.653,4.347 -4.899,4.347 C 1.518,4.361 0,2.244 0,0 m 10.993,0.028 c 0,-2.712 -1.96,-5.184 -6.112,-5.184 -3.786,0 -5.996,2.258 -5.996,5.114 0,2.812 2.135,5.113 6.131,5.113 3.69,0 5.977,-2.145 5.977,-5.043"
       style="display:inline;fill:#666666;fill-opacity:1;fill-rule:nonzero;stroke:none"
       transform="matrix(0.35277776,0,0,-0.35277776,142.12641,20.921906)"
       clip-path="url(#clipPath1029)" />
    <path
       id="path1030"
       d="m 0,0 c 0,-2.287 1.71,-4.446 4.938,-4.446 3.479,0 4.94,2.102 4.94,4.46 0,2.316 -1.653,4.347 -4.899,4.347 C 1.518,4.361 0,2.244 0,0 Z m 10.993,0.028 c 0,-2.712 -1.96,-5.184 -6.112,-5.184 -3.786,0 -5.996,2.258 -5.996,5.114 0,2.812 2.135,5.113 6.131,5.113 3.69,0 5.977,-2.145 5.977,-5.043 z"
       style="display:inline;fill:none;stroke:#666666;stroke-width:1;stroke-linecap:butt;stroke-linejoin:miter;stroke-miterlimit:10;stroke-dasharray:none;stroke-opacity:1"
       transform="matrix(0.35277776,0,0,-0.35277776,142.12641,20.921906)"
       clip-path="url(#clipPath1031)" />
    <path
       id="path1032"
       d="m 0,0 v 9.943 h 1.537 c 2.095,-2.387 7.015,-7.94 7.86,-9.02 h 0.02 C 9.302,2.358 9.32,3.821 9.32,5.44 v 4.503 h 1.058 V 0 H 8.955 C 6.957,2.301 1.96,8.082 0.999,9.176 H 0.98 C 1.076,7.869 1.057,6.42 1.057,4.616 V 0 Z"
       style="display:inline;fill:#666666;fill-opacity:1;fill-rule:nonzero;stroke:#666666;stroke-width:1;stroke-linecap:butt;stroke-linejoin:miter;stroke-miterlimit:10;stroke-dasharray:none;stroke-opacity:1"
       transform="matrix(0.35277776,0,0,-0.35277776,147.77257,22.690593)"
       clip-path="url(#clipPath1033)" />
    <path
       id="path1034"
       d="m 0,0 c -0.634,-1.577 -2.21,-2.77 -5.055,-2.77 -3.862,0 -5.9,2.273 -5.9,5.071 0,2.685 2,5.128 5.919,5.128 2.902,0 4.613,-1.193 5.055,-2.855 H -1.02 c -0.614,1.292 -1.748,2.144 -4.073,2.144 -3.345,0 -4.748,-2.258 -4.748,-4.403 0,-2.13 1.385,-4.374 4.824,-4.374 2.192,0 3.306,0.838 3.979,2.059 z"
       style="display:inline;fill:#666666;fill-opacity:1;fill-rule:nonzero;stroke:#666666;stroke-width:1;stroke-linecap:butt;stroke-linejoin:miter;stroke-miterlimit:10;stroke-dasharray:none;stroke-opacity:1"
       transform="matrix(0.35277776,0,0,-0.35277776,161.47165,21.758696)"
       clip-path="url(#clipPath1035)" />
    <path
       id="path1036"
       d="M 0,0 H -6.86 V -4.176 H 0.653 L 0.5,-4.886 H -7.898 V 5.056 H 0.346 V 4.346 H -6.86 V 0.71 H 0 Z"
       style="display:inline;fill:#666666;fill-opacity:1;fill-rule:nonzero;stroke:#666666;stroke-width:1;stroke-linecap:butt;stroke-linejoin:miter;stroke-miterlimit:10;stroke-dasharray:none;stroke-opacity:1"
       transform="matrix(0.35277776,0,0,-0.35277776,166.24759,20.966851)"
       clip-path="url(#clipPath1037)" />
    <path
       id="path1038"
       d="m 0,0 v 9.943 h 1.537 c 2.095,-2.387 7.015,-7.94 7.86,-9.02 h 0.02 C 9.302,2.358 9.32,3.821 9.32,5.44 v 4.503 h 1.058 V 0 H 8.955 C 6.957,2.301 1.96,8.082 0.999,9.176 H 0.98 C 1.076,7.869 1.057,6.42 1.057,4.616 V 0 Z"
       style="display:inline;fill:#666666;fill-opacity:1;fill-rule:nonzero;stroke:#666666;stroke-width:1;stroke-linecap:butt;stroke-linejoin:miter;stroke-miterlimit:10;stroke-dasharray:none;stroke-opacity:1"
       transform="matrix(0.35277776,0,0,-0.35277776,168.7973,22.690593)"
       clip-path="url(#clipPath1039)" />
    <path
       id="path1040"
       d="M 0,0 H -4.516 V 0.71 H 5.594 V 0 H 1.058 V -9.233 H 0 Z"
       style="display:inline;fill:#666666;fill-opacity:1;fill-rule:nonzero;stroke:#666666;stroke-width:1;stroke-linecap:butt;stroke-linejoin:miter;stroke-miterlimit:10;stroke-dasharray:none;stroke-opacity:1"
       transform="matrix(0.35277776,0,0,-0.35277776,175.83183,19.433609)"
       clip-path="url(#clipPath1041)" />
    <path
       id="path1042"
       d="M 0,0 H -6.86 V -4.176 H 0.653 L 0.5,-4.886 H -7.898 V 5.056 H 0.346 V 4.346 H -6.86 V 0.71 H 0 Z"
       style="display:inline;fill:#666666;fill-opacity:1;fill-rule:nonzero;stroke:#666666;stroke-width:1;stroke-linecap:butt;stroke-linejoin:miter;stroke-miterlimit:10;stroke-dasharray:none;stroke-opacity:1"
       transform="matrix(0.35277776,0,0,-0.35277776,182.80473,20.966851)"
       clip-path="url(#clipPath1043)" />
    <path
       id="path1044"
       d="m 0,0 h 3.519 c 2.561,0 3.748,0.653 3.748,1.96 0,1.222 -1.166,1.918 -3.435,1.918 H 0 Z m 0,-0.71 v -4.645 h -1.145 v 9.943 h 5.227 c 2.873,0 4.393,-1.051 4.393,-2.614 0,-1.264 -1.104,-2.088 -2.728,-2.329 1.5,-0.242 2.498,-0.909 2.498,-2.6 v -0.383 c 0,-0.696 -0.083,-1.633 0.188,-2.017 H 7.288 C 7.017,-4.929 7.08,-4.134 7.08,-3.281 v 0.256 c 0,1.633 -0.709,2.315 -3.498,2.315 z"
       style="display:inline;fill:#666666;fill-opacity:1;fill-rule:nonzero;stroke:#666666;stroke-width:1;stroke-linecap:butt;stroke-linejoin:miter;stroke-miterlimit:10;stroke-dasharray:none;stroke-opacity:1"
       transform="matrix(0.35277776,0,0,-0.35277776,185.54701,20.801468)"
       clip-path="url(#clipPath1045)" />
  </g>
</svg>
