<?xml version="1.0" encoding="UTF-8" standalone="no"?>
<!-- Created with Inkscape (http://www.inkscape.org/) -->

<svg
   width="210mm"
   height="297mm"
   viewBox="0 0 210 297"
   version="1.1"
   id="svg1"
   inkscape:version="1.4 (e7c3feb1, 2024-10-09)"
   sodipodi:docname="medium_key_yellow_pressed.svg"
   xmlns:inkscape="http://www.inkscape.org/namespaces/inkscape"
   xmlns:sodipodi="http://sodipodi.sourceforge.net/DTD/sodipodi-0.dtd"
   xmlns="http://www.w3.org/2000/svg"
   xmlns:svg="http://www.w3.org/2000/svg">
  <sodipodi:namedview
     id="namedview1"
     pagecolor="#ffffff"
     bordercolor="#000000"
     borderopacity="0.25"
     inkscape:showpageshadow="2"
     inkscape:pageopacity="0.0"
     inkscape:pagecheckerboard="0"
     inkscape:deskcolor="#d1d1d1"
     inkscape:document-units="mm"
     inkscape:zoom="13.455443"
     inkscape:cx="27.461005"
     inkscape:cy="23.930836"
     inkscape:window-width="1440"
     inkscape:window-height="785"
     inkscape:window-x="0"
     inkscape:window-y="25"
     inkscape:window-maximized="1"
     inkscape:current-layer="layer1"
     showguides="false" />
  <defs
     id="defs1" />
  <g
     inkscape:label="Layer 1"
     inkscape:groupmode="layer"
     id="layer1">
    <path
       id="path103"
       d="m 0,0 h -44.666 c -0.648,0 -1.174,0.526 -1.174,1.174 v 21.652 c 0,0.648 0.526,1.174 1.174,1.174 H 0 c 0.648,0 1.174,-0.526 1.174,-1.174 V 1.174 C 1.174,0.526 0.648,0 0,0"
       style="fill:#1a1a1a;fill-opacity:1;fill-rule:nonzero;stroke:none"
       transform="matrix(0.35277776,0,0,-0.35277776,16.965062,9.2603686)"
       clip-path="none" />
    <path
       d="M 15.739608,2.3745321 C 15.678266,2.22244 15.530076,2.1151164 15.356169,2.1151164 H 2.8168823 c -0.1979124,0 -0.3626845,0.139202 -0.4035929,0.3250447 -0.00465,0.030859 -0.010335,0.062805 -0.010335,0.088884 v 5.9546753 c 0,0.2275416 0.088851,0.3285711 0.2666504,0.4206461 C 2.6150975,8.8170535 2.6220622,8.7899296 2.6220622,8.67854 V 2.8830282 c 0,-0.5291835 0.079855,-0.5668905 0.532784,-0.5668905 H 15.455387 c 0.08335,0 0.213467,0.018306 0.284221,0.058394 z"
       style="opacity:0.56;fill:#ffffff;stroke-width:0.264583"
       id="path6" />
    <path
       d="m 15.739608,2.3745321 c -0.07075,-0.040089 -0.200869,-0.058394 -0.284221,-0.058394 H 3.1548462 c -0.4529291,0 -0.532784,0.037707 -0.532784,0.5668905 V 8.67854 c 0,0.1113896 -0.00696,0.1385135 0.047542,0.225826 C 2.4918049,8.812291 2.4029541,8.7112615 2.4029541,8.4837199 v 0.040824 c 0,0.2286 0.1853282,0.414445 0.4139282,0.414445 H 15.356169 c 0.2286,0 0.413928,-0.185845 0.413928,-0.414445 V 2.5290446 c 0,-0.054777 -0.0112,-0.1066809 -0.03049,-0.1545125 z"
       style="fill:#ffaa01"
       id="path5" />
    <path
       d="M 2.850472,2.1016805 C 2.5275972,2.1016431 2.4363079,2.2873623 2.4132894,2.4401611 2.4541978,2.2543184 2.6189699,2.1151164 2.8168823,2.1151164 H 15.356169 c 0.173907,0 0.322097,0.1073236 0.383439,0.2594157 0.0029,0.00165 0.0071,0.00292 0.0098,0.00465 C 15.686925,2.2131862 15.54267,2.1027368 15.34635,2.102714 Z"
       style="opacity:0.56;fill:#ffffff;stroke-width:0.264583"
       id="path4" />
    <path
       d="m 2.0122803,1.7042887 c -0.2286,0 -0.4139282,0.1853283 -0.4139282,0.4139283 v 6.8171549 c 0,0.1219742 0.053452,0.2306232 0.1374593,0.3064413 H 16.436723 c 0.08401,-0.075818 0.137976,-0.1844671 0.137976,-0.3064413 V 2.118217 c 0,-0.2286 -0.185845,-0.4139283 -0.414445,-0.4139283 z M 2.850472,2.1016805 15.34635,2.102714 c 0.19632,2.28e-5 0.340575,0.1104722 0.403076,0.2764689 -0.0027,-0.00173 -0.0069,-0.003 -0.0098,-0.00465 0.01929,0.047832 0.03049,0.099736 0.03049,0.1545125 v 5.9954997 c 0,0.2286 -0.185328,0.414445 -0.413928,0.414445 H 2.8168823 c -0.2286,0 -0.4139282,-0.185845 -0.4139282,-0.414445 V 8.4837199 2.5290446 c 0,-0.030735 0.00399,-0.060067 0.010335,-0.088884 0.023019,-0.1527988 0.1143078,-0.338518 0.4371826,-0.3384806 z"
       style="fill:#984501"
       id="path1" />
  </g>
</svg>
