<svg xmlns="http://www.w3.org/2000/svg" viewBox="0 0 210 297">
  <path d="m 0,0 h -40.105 c -0.648,0 -1.174,0.526 -1.174,1.174 v 19.324 c 0,0.648 0.526,1.174 1.174,1.174 H 0 c 0.648,0 1.174,-0.526 1.174,-1.174 V 1.174 C 1.174,0.526 0.648,0 0,0" fill="#984501" transform="matrix(0.35277776,0,0,-0.35277776,16.160442,8.8495289)"/>
  <path d="m 0,0 h -35.544 c -0.648,0 -1.174,0.526 -1.174,1.174 v 16.995 c 0,0.649 0.526,1.174 1.174,1.174 H 0 c 0.648,0 1.174,-0.525 1.174,-1.174 V 1.174 C 1.174,0.526 0.648,0 0,0" fill="#ffaa01" transform="matrix(0.35277776,0,0,-0.35277776,15.356052,8.4388989)"/>
  <path d="m 15.749546,1.8791488 c -0.06826,-0.043656 -0.207315,-0.062971 -0.294098,-0.062971 H 3.1549688 c -0.4529291,0 -0.5331354,0.037554 -0.5331354,0.5667375 v 5.7954982 c 0,0.1113896 -0.00697,0.1388493 0.047537,0.2261618 C 2.4915708,8.3125003 2.4027582,8.2115007 2.4027582,7.9839591 V 2.0292798 c 0,-0.155208 0.05977,-0.427851 0.4478524,-0.427806 l 12.4955914,0.00145 c 0.19632,2.28e-5 0.340843,0.1102283 0.403344,0.276225 z" fill="#ffffff" opacity="0.56"/>
</svg>
