<svg xmlns="http://www.w3.org/2000/svg" viewBox="0 0 210 297">
  <path d="m 259.907,56.9967 h -53.473 c -0.864,0 -1.565,-0.7021 -1.565,-1.566 V 29.666 c 0,-0.864 0.701,-1.565 1.565,-1.565 h 53.473 c 0.864,0 1.566,0.701 1.566,1.565 v 25.7647 c 0,0.8639 -0.702,1.566 -1.566,1.566 z" fill="#cac2b2" transform="matrix(0.26458333,0,0,0.26458333,-52.341751,-6.2301861)"/>
  <path d="m 256.867,55.4466 h -47.392 c -0.864,0 -1.566,-0.702 -1.566,-1.566 V 31.2209 c 0,-0.865 0.702,-1.565 1.566,-1.565 h 47.392 c 0.864,0 1.565,0.7 1.565,1.565 v 22.6597 c 0,0.864 -0.701,1.566 -1.565,1.566 z" fill="#fcffe9" transform="matrix(0.26458333,0,0,0.26458333,-52.341751,-6.2301861)"/>
  <path d="m 16.014292,1.8924957 c -0.06826,-0.043656 -0.207315,-0.062971 -0.294098,-0.062971 H 3.4197152 c -0.4529291,0 -0.5331354,0.037554 -0.5331354,0.5667375 v 5.7954982 c 0,0.1113896 -0.00697,0.1388493 0.047537,0.2261618 C 2.7563172,8.3258472 2.6675046,8.2248476 2.6675046,7.997306 V 2.0426267 c 0,-0.155208 0.05977,-0.427851 0.4478524,-0.427806 l 12.495591,0.00145 c 0.19632,2.28e-5 0.340843,0.1102283 0.403344,0.276225 z" fill="#ffffff"/>
</svg>
