<?xml version="1.0" encoding="UTF-8" standalone="no"?>
<svg
   width="210mm"
   height="297mm"
   version="1.1"
   viewBox="0 0 210 297"
   id="svg4"
   sodipodi:docname="pad.svg"
   inkscape:version="1.3.2 (091e20e, 2023-11-25)"
   xmlns:inkscape="http://www.inkscape.org/namespaces/inkscape"
   xmlns:sodipodi="http://sodipodi.sourceforge.net/DTD/sodipodi-0.dtd"
   xmlns="http://www.w3.org/2000/svg"
   xmlns:svg="http://www.w3.org/2000/svg">
  <defs
     id="defs4">
    <clipPath
       clipPathUnits="userSpaceOnUse"
       id="clipPath1763">
      <path
         d="M 0,1080 H 1920 V 0 H 0 Z"
         transform="matrix(1.3333333,0,0,-1.3333333,0,1440)"
         id="path1763" />
    </clipPath>
  </defs>
  <sodipodi:namedview
     id="namedview4"
     pagecolor="#ffffff"
     bordercolor="#000000"
     borderopacity="0.25"
     inkscape:showpageshadow="2"
     inkscape:pageopacity="0.0"
     inkscape:pagecheckerboard="0"
     inkscape:deskcolor="#d1d1d1"
     inkscape:document-units="mm"
     inkscape:zoom="1.6819304"
     inkscape:cx="87.994128"
     inkscape:cy="81.751301"
     inkscape:window-width="1440"
     inkscape:window-height="798"
     inkscape:window-x="0"
     inkscape:window-y="25"
     inkscape:window-maximized="1"
     inkscape:current-layer="svg4" />
  <path
     id="path1653"
     d="m 0,0 v -99.35 c 0,-1.064 -0.862,-1.925 -1.926,-1.925 h -99.359 c -1.064,0 -1.926,0.861 -1.926,1.925 V 0 c 0,1.063 0.862,1.925 1.926,1.925 H -1.926 C -0.862,1.925 0,1.063 0,0"
     style="fill:#000000;fill-opacity:1;fill-rule:nonzero;stroke:none"
     transform="matrix(0.35277776,0,0,-0.35277776,37.468881,1.4728466)"
     clip-path="none" />
  <path
     id="path1757"
     d="m 0,0 v -92.61 c 0,-0.35 -0.05,-0.68 -0.15,-1 -0.09,-0.31 -0.23,-0.6 -0.42,-0.86 v -0.01 c -0.6,-0.89 -1.61,-1.47 -2.75,-1.47 h -92.61 c -0.12,0 -0.23,0.01 -0.34,0.02 -0.541,0.06 -1.041,0.24 -1.48,0.54 -0.11,0.06 -0.22,0.14 -0.32,0.23 -0.72,0.6 -1.18,1.52 -1.18,2.54 v 92.6 c 0,1.05 0.48,1.98 1.24,2.59 0.56,0.47 1.29,0.74 2.08,0.74 h 92.61 c 0.759,0 1.46,-0.25 2.02,-0.69 C -1.18,2.54 -1.07,2.44 -0.97,2.34 -0.89,2.26 -0.811,2.18 -0.76,2.1 -0.62,1.94 -0.5,1.76 -0.4,1.57 -0.35,1.47 -0.3,1.38 -0.26,1.28 -0.22,1.18 -0.18,1.07 -0.15,0.97 -0.12,0.87 -0.09,0.76 -0.07,0.65 -0.05,0.54 -0.03,0.43 -0.02,0.32 -0.01,0.21 0,0.11 0,0"
     style="fill:#69686d;fill-opacity:1;fill-rule:nonzero;stroke:none"
     transform="matrix(0.35277776,0,0,-0.35277776,36.770222,2.6565925)"
     clip-path="none" />
  <path
     id="path1759"
     d="m 0,0 v -92.61 c 0,-0.35 -0.05,-0.68 -0.15,-1 -0.1,-0.3 -0.24,-0.59 -0.42,-0.86 v -0.01 c -0.6,-0.87 -1.61,-1.45 -2.75,-1.45 h -92.95 c -0.68,0.07 -1.3,0.34 -1.8,0.77 l 3.39,3.51 7.05,5.87 h 76.17 v 80.09 l 6.95,5.68 3.21,2.63 0.01,0.01 C -1.17,2.54 -1.061,2.44 -0.97,2.34 -0.89,2.26 -0.811,2.18 -0.76,2.1 -0.61,1.94 -0.49,1.76 -0.4,1.57 -0.35,1.47 -0.3,1.38 -0.26,1.28 -0.22,1.18 -0.18,1.07 -0.15,0.97 -0.12,0.87 -0.09,0.76 -0.07,0.65 -0.04,0.54 -0.03,0.43 -0.02,0.32 -0.01,0.21 0,0.11 0,0"
     style="fill:#4d4d4d;fill-opacity:1;fill-rule:nonzero;stroke:none"
     transform="matrix(0.35277776,0,0,-0.35277776,36.770222,2.6565925)"
     clip-path="none" />
  <path
     d="m 0,0 v -84.26 l -6.72,-6.72 c -0.11,0.06 -0.219,0.14 -0.32,0.23 -0.72,0.6 -1.18,1.52 -1.18,2.54 v 92.6 c 0,1.05 0.481,1.98 1.241,2.59 z"
     style="fill:#979797;fill-opacity:1;fill-rule:nonzero;stroke:none"
     clip-path="none"
     id="path1762"
     transform="matrix(0.35277777,0,0,-0.35277777,4.6567635,4.212236)" />
  <path
     id="path1764"
     d="m 0,0 h -89.279 c -0.955,0 -1.731,0.774 -1.731,1.73 v 89.28 c 0,0.954 0.776,1.729 1.731,1.729 H 0 c 0.955,0 1.729,-0.775 1.729,-1.729 V 1.73 C 1.729,0.774 0.955,0 0,0"
     style="fill:#7e8084;fill-opacity:1;fill-rule:nonzero;stroke:none"
     transform="matrix(0.35277776,0,0,-0.35277776,35.011166,35.355882)"
     clip-path="none" />
  <path
     id="path1766"
     d="m 0,0 c -0.221,0.12 -0.48,0.18 -0.74,0.18 h -89.281 c -0.959,0 -1.729,-0.77 -1.729,-1.73 v -89.28 c 0,-0.2 0.039,-0.399 0.109,-0.58 -0.589,0.27 -0.99,0.86 -0.99,1.56 v 89.28 c 0,0.95 0.771,1.73 1.731,1.73 H -1.621 C -0.871,1.16 -0.23,0.67 0,0"
     style="fill:#b3b3b3;fill-opacity:1;fill-rule:nonzero;stroke:none"
     transform="matrix(0.35277776,0,0,-0.35277776,35.583037,3.0512105)"
     clip-path="none" />
</svg>
