<?xml version="1.0" encoding="UTF-8" standalone="no"?>
<svg
   width="210mm"
   height="297mm"
   version="1.1"
   viewBox="0 0 210 297"
   id="svg5"
   sodipodi:docname="pad.svg"
   inkscape:version="1.4 (e7c3feb1, 2024-10-09)"
   xmlns:inkscape="http://www.inkscape.org/namespaces/inkscape"
   xmlns:sodipodi="http://sodipodi.sourceforge.net/DTD/sodipodi-0.dtd"
   xmlns="http://www.w3.org/2000/svg"
   xmlns:svg="http://www.w3.org/2000/svg">
  <defs
     id="defs5" />
  <sodipodi:namedview
     id="namedview5"
     pagecolor="#ffffff"
     bordercolor="#000000"
     borderopacity="0.25"
     inkscape:showpageshadow="2"
     inkscape:pageopacity="0.0"
     inkscape:pagecheckerboard="0"
     inkscape:deskcolor="#d1d1d1"
     inkscape:document-units="mm"
     inkscape:zoom="1.1691467"
     inkscape:cx="107.34324"
     inkscape:cy="148.82649"
     inkscape:window-width="1440"
     inkscape:window-height="785"
     inkscape:window-x="0"
     inkscape:window-y="25"
     inkscape:window-maximized="1"
     inkscape:current-layer="svg5" />
  <rect
     x="0.24194001"
     y="0.24194001"
     width="36.130001"
     height="35.890999"
     rx="0.35701001"
     ry="0.47367999"
     fill-rule="evenodd"
     stroke="#000000"
     stroke-width="0.48388"
     id="rect1" />
  <g
     transform="translate(-0.95661695,-0.80988898)"
     id="g5">
    <path
       transform="matrix(0.35278,0,0,-0.35278,36.77,2.6566)"
       d="m 0,0 v -92.61 c 0,-0.35 -0.05,-0.68 -0.15,-1 -0.09,-0.31 -0.23,-0.6 -0.42,-0.86 v -0.01 c -0.6,-0.89 -1.61,-1.47 -2.75,-1.47 h -92.61 c -0.12,0 -0.23,0.01 -0.34,0.02 -0.541,0.06 -1.041,0.24 -1.48,0.54 -0.11,0.06 -0.22,0.14 -0.32,0.23 -0.72,0.6 -1.18,1.52 -1.18,2.54 v 92.6 c 0,1.05 0.48,1.98 1.24,2.59 0.56,0.47 1.29,0.74 2.08,0.74 h 92.61 c 0.759,0 1.46,-0.25 2.02,-0.69 C -1.18,2.54 -1.07,2.44 -0.97,2.34 -0.89,2.26 -0.811,2.18 -0.76,2.1 -0.62,1.94 -0.5,1.76 -0.4,1.57 -0.35,1.47 -0.3,1.38 -0.26,1.28 -0.22,1.18 -0.18,1.07 -0.15,0.97 -0.12,0.87 -0.09,0.76 -0.07,0.65 -0.05,0.54 -0.03,0.43 -0.02,0.32 -0.01,0.21 0,0.11 0,0"
       fill="#69686d"
       id="path1" />
    <path
       transform="matrix(0.35278,0,0,-0.35278,36.77,2.6566)"
       d="m 0,0 v -92.61 c 0,-0.35 -0.05,-0.68 -0.15,-1 -0.1,-0.3 -0.24,-0.59 -0.42,-0.86 v -0.01 c -0.6,-0.87 -1.61,-1.45 -2.75,-1.45 h -92.95 c -0.68,0.07 -1.3,0.34 -1.8,0.77 l 3.39,3.51 7.05,5.87 h 76.17 v 80.09 l 6.95,5.68 3.21,2.63 0.01,0.01 C -1.17,2.54 -1.061,2.44 -0.97,2.34 -0.89,2.26 -0.811,2.18 -0.76,2.1 -0.61,1.94 -0.49,1.76 -0.4,1.57 -0.35,1.47 -0.3,1.38 -0.26,1.28 -0.22,1.18 -0.18,1.07 -0.15,0.97 -0.12,0.87 -0.09,0.76 -0.07,0.65 -0.04,0.54 -0.03,0.43 -0.02,0.32 -0.01,0.21 0,0.11 0,0"
       fill="#4d4d4d"
       id="path2" />
    <path
       transform="matrix(0.35278,0,0,-0.35278,4.6568,4.2122)"
       d="m 0,0 v -84.26 l -6.72,-6.72 c -0.11,0.06 -0.219,0.14 -0.32,0.23 -0.72,0.6 -1.18,1.52 -1.18,2.54 v 92.6 c 0,1.05 0.481,1.98 1.241,2.59 z"
       fill="#979797"
       id="path3" />
    <path
       transform="matrix(0.35278,0,0,-0.35278,35.011,35.356)"
       d="m 0,0 h -89.279 c -0.955,0 -1.731,0.774 -1.731,1.73 v 89.28 c 0,0.954 0.776,1.729 1.731,1.729 H 0 c 0.955,0 1.729,-0.775 1.729,-1.729 V 1.73 C 1.729,0.774 0.955,0 0,0"
       fill="#7e8084"
       id="path4" />
    <path
       transform="matrix(0.35278,0,0,-0.35278,35.583,3.0512)"
       d="m 0,0 c -0.221,0.12 -0.48,0.18 -0.74,0.18 h -89.281 c -0.959,0 -1.729,-0.77 -1.729,-1.73 v -89.28 c 0,-0.2 0.039,-0.399 0.109,-0.58 -0.589,0.27 -0.99,0.86 -0.99,1.56 v 89.28 c 0,0.95 0.771,1.73 1.731,1.73 H -1.621 C -0.871,1.16 -0.23,0.67 0,0"
       fill="#b3b3b3"
       id="path5" />
  </g>
</svg>
