<?xml version="1.0" encoding="UTF-8" standalone="no"?>
<!-- Created with Inkscape (http://www.inkscape.org/) -->

<svg
   width="210mm"
   height="297mm"
   viewBox="0 0 210 297"
   version="1.1"
   id="svg1"
   inkscape:version="1.3.2 (091e20e, 2023-11-25)"
   sodipodi:docname="pad.svg"
   xmlns:inkscape="http://www.inkscape.org/namespaces/inkscape"
   xmlns:sodipodi="http://sodipodi.sourceforge.net/DTD/sodipodi-0.dtd"
   xmlns="http://www.w3.org/2000/svg"
   xmlns:svg="http://www.w3.org/2000/svg">
  <sodipodi:namedview
     id="namedview1"
     pagecolor="#ffffff"
     bordercolor="#000000"
     borderopacity="0.25"
     inkscape:showpageshadow="2"
     inkscape:pageopacity="0.0"
     inkscape:pagecheckerboard="0"
     inkscape:deskcolor="#d1d1d1"
     inkscape:document-units="mm"
     inkscape:zoom="1.6819304"
     inkscape:cx="23.782197"
     inkscape:cy="75.211197"
     inkscape:window-width="1440"
     inkscape:window-height="798"
     inkscape:window-x="0"
     inkscape:window-y="25"
     inkscape:window-maximized="1"
     inkscape:current-layer="layer1" />
  <defs
     id="defs1">
    <mask
       id="mask241_1_2"
       maskUnits="userSpaceOnUse"
       x="-66"
       y="-31"
       width="9677"
       height="5443">
      <path
         d="M -65.3458,-30.7341 H 9610.25 V 5411.79 H -65.3458 Z"
         fill="#ffffff"
         id="path537" />
    </mask>
    <mask
       id="mask242_1_2"
       maskUnits="userSpaceOnUse"
       x="-66"
       y="-31"
       width="9677"
       height="5443">
      <path
         d="M -65.3458,-30.7341 H 9610.25 V 5411.79 H -65.3458 Z"
         fill="#ffffff"
         id="path539" />
    </mask>
    <mask
       id="mask243_1_2"
       maskUnits="userSpaceOnUse"
       x="-66"
       y="-31"
       width="9677"
       height="5443">
      <path
         d="M -65.3458,-30.7341 H 9610.25 V 5411.79 H -65.3458 Z"
         fill="#ffffff"
         id="path541" />
    </mask>
    <mask
       id="mask244_1_2"
       maskUnits="userSpaceOnUse"
       x="-66"
       y="-31"
       width="9677"
       height="5443">
      <path
         d="M -65.3458,-30.7341 H 9610.25 V 5411.79 H -65.3458 Z"
         fill="#ffffff"
         id="path543" />
    </mask>
  </defs>
  <g
     inkscape:label="Layer 1"
     inkscape:groupmode="layer"
     id="layer1">
    <g
       mask="url(#mask241_1_2)"
       id="g538"
       transform="matrix(0.26458333,0,0,0.26458333,-135.67148,-149.24991)">
      <path
         d="m 652.392,568.661 v 132.468 c 0,1.418 -1.15,2.567 -2.57,2.567 H 517.344 c -1.42,0 -2.57,-1.149 -2.57,-2.567 V 568.661 c 0,-1.418 1.15,-2.567 2.57,-2.567 h 132.478 c 1.42,0 2.57,1.149 2.57,2.567 z"
         fill="#000000"
         id="path538" />
    </g>
    <g
       mask="url(#mask242_1_2)"
       id="g540"
       transform="matrix(0.26458333,0,0,0.26458333,-135.67148,-149.24991)">
      <path
         d="m 649.692,573.131 v 123.478 c 0,0.467 -0.07,0.907 -0.2,1.334 -0.12,0.413 -0.31,0.8 -0.56,1.146 v 0.014 c -0.8,1.186 -2.15,1.96 -3.67,1.96 H 521.784 c -0.16,0 -0.31,-0.014 -0.45,-0.027 -0.72,-0.08 -1.39,-0.32 -1.98,-0.72 -0.14,-0.08 -0.29,-0.187 -0.42,-0.307 -0.96,-0.8 -1.58,-2.026 -1.58,-3.386 V 573.155 c 0,-1.4 0.64,-2.64 1.66,-3.453 0.74,-0.627 1.72,-0.987 2.77,-0.987 h 123.478 c 1.01,0 1.95,0.333 2.69,0.92 0.16,0.107 0.31,0.24 0.44,0.373 0.11,0.107 0.22,0.214 0.28,0.32 0.19,0.214 0.35,0.454 0.48,0.707 0.07,0.133 0.14,0.253 0.19,0.387 0.05,0.133 0.11,0.28 0.15,0.413 0.04,0.133 0.08,0.28 0.1,0.427 0.03,0.146 0.06,0.293 0.07,0.44 0.01,0.146 0.03,0.28 0.03,0.426 z"
         fill="#69686d"
         id="path540" />
    </g>
    <g
       mask="url(#mask243_1_2)"
       id="g542"
       transform="matrix(0.26458333,0,0,0.26458333,-135.67148,-149.24991)">
      <path
         d="M 643.092,696.719 H 524.053 c -1.269,0 -2.31,-1.032 -2.31,-2.307 V 575.373 c 0,-1.273 1.041,-2.305 2.31,-2.305 h 119.039 c 1.27,0 2.3,1.032 2.3,2.305 v 119.039 c 0,1.275 -1.03,2.307 -2.3,2.307 z"
         fill="#7e8084"
         id="path542" />
    </g>
    <g
       mask="url(#mask244_1_2)"
       id="g544"
       transform="matrix(0.26458333,0,0,0.26458333,-135.67148,-149.24991)">
      <path
         d="m 645.192,574.63 c -0.29,-0.16 -0.64,-0.24 -0.99,-0.24 H 525.163 c -1.28,0 -2.3,1.027 -2.3,2.307 v 119.039 c 0,0.266 0.05,0.533 0.14,0.773 -0.78,-0.36 -1.319,-1.147 -1.319,-2.08 V 575.39 c 0,-1.267 1.029,-2.307 2.309,-2.307 h 119.039 c 1,0 1.85,0.654 2.16,1.547 z"
         fill="#b3b3b3"
         id="path544" />
    </g>
  </g>
</svg>
