<svg width="210mm" height="297mm" version="1.1" viewBox="0 0 210 297" xmlns="http://www.w3.org/2000/svg">
 <rect x="1.2447" y="1.089" width="36.13" height="35.891" rx=".35701" ry=".47368" fill-rule="evenodd" stroke="#000" stroke-width=".48388"/>
 <g transform="translate(.046143 .037171)">
  <path transform="matrix(.35278 0 0 -.35278 36.77 2.6566)" d="m0 0v-92.61c0-0.35-0.05-0.68-0.15-1-0.09-0.31-0.23-0.6-0.42-0.86v-0.01c-0.6-0.89-1.61-1.47-2.75-1.47h-92.61c-0.12 0-0.23 0.01-0.34 0.02-0.541 0.06-1.041 0.24-1.48 0.54-0.11 0.06-0.22 0.14-0.32 0.23-0.72 0.6-1.18 1.52-1.18 2.54v92.6c0 1.05 0.48 1.98 1.24 2.59 0.56 0.47 1.29 0.74 2.08 0.74h92.61c0.759 0 1.46-0.25 2.02-0.69 0.12-0.08 0.23-0.18 0.33-0.28 0.08-0.08 0.159-0.16 0.21-0.24 0.14-0.16 0.26-0.34 0.36-0.53 0.05-0.1 0.1-0.19 0.14-0.29s0.08-0.21 0.11-0.31 0.06-0.21 0.08-0.32 0.04-0.22 0.05-0.33 0.02-0.21 0.02-0.32" fill="#69686d"/>
  <path transform="matrix(.35278 0 0 -.35278 36.77 2.6566)" d="m0 0v-92.61c0-0.35-0.05-0.68-0.15-1-0.1-0.3-0.24-0.59-0.42-0.86v-0.01c-0.6-0.87-1.61-1.45-2.75-1.45h-92.95c-0.68 0.07-1.3 0.34-1.8 0.77l3.39 3.51 7.05 5.87h76.17v80.09l6.95 5.68 3.21 2.63 0.01 0.01c0.12-0.09 0.229-0.19 0.32-0.29 0.08-0.08 0.159-0.16 0.21-0.24 0.15-0.16 0.27-0.34 0.36-0.53 0.05-0.1 0.1-0.19 0.14-0.29s0.08-0.21 0.11-0.31 0.06-0.21 0.08-0.32c0.03-0.11 0.04-0.22 0.05-0.33s0.02-0.21 0.02-0.32" fill="#4d4d4d"/>
  <path transform="matrix(.35278 0 0 -.35278 4.6568 4.2122)" d="m0 0v-84.26l-6.72-6.72c-0.11 0.06-0.219 0.14-0.32 0.23-0.72 0.6-1.18 1.52-1.18 2.54v92.6c0 1.05 0.481 1.98 1.241 2.59z" fill="#979797"/>
  <path transform="matrix(.35278 0 0 -.35278 35.011 35.356)" d="m0 0h-89.279c-0.955 0-1.731 0.774-1.731 1.73v89.28c0 0.954 0.776 1.729 1.731 1.729h89.279c0.955 0 1.729-0.775 1.729-1.729v-89.28c0-0.956-0.774-1.73-1.729-1.73" fill="#7e8084"/>
  <path transform="matrix(.35278 0 0 -.35278 35.583 3.0512)" d="m0 0c-0.221 0.12-0.48 0.18-0.74 0.18h-89.281c-0.959 0-1.729-0.77-1.729-1.73v-89.28c0-0.2 0.039-0.399 0.109-0.58-0.589 0.27-0.99 0.86-0.99 1.56v89.28c0 0.95 0.771 1.73 1.731 1.73h89.279c0.75 0 1.391-0.49 1.621-1.16" fill="#b3b3b3"/>
 </g>
</svg>
