<svg width="210mm" height="297mm" version="1.1" viewBox="0 0 210 297" xmlns="http://www.w3.org/2000/svg">
 <g stroke-width=".26458">
  <path d="m36.828 1.4377v35.049c0 0.37518-0.30427 0.67918-0.67998 0.67918h-35.051c-0.37571 0-0.67998-0.30401-0.67998-0.67918v-35.049c0-0.37518 0.30427-0.67919 0.67998-0.67919h35.051c0.37571 0 0.67998 0.30401 0.67998 0.67919z"/>
  <path d="m36.114 2.6204v32.67c0 0.12356-0.01852 0.23998-0.05292 0.35295-0.03175 0.10927-0.08202 0.21167-0.14817 0.30321v0.0037c-0.21167 0.3138-0.56886 0.51858-0.97102 0.51858h-32.67c-0.04233 0-0.08202-0.0037-0.11906-0.0071-0.1905-0.02117-0.36777-0.08467-0.52388-0.1905-0.03704-0.02117-0.07673-0.04948-0.11112-0.08123-0.254-0.21167-0.41804-0.53605-0.41804-0.89588v-32.668c0-0.37042 0.16933-0.6985 0.43921-0.91361 0.19579-0.16589 0.45508-0.26114 0.7329-0.26114h32.67c0.26723 0 0.51594 0.088106 0.71173 0.24342 0.04233 0.02831 0.08202 0.0635 0.11642 0.09869 0.0291 0.02831 0.05821 0.056621 0.07408 0.084667 0.05027 0.056621 0.0926 0.12012 0.127 0.18706 0.01852 0.03519 0.03704 0.06694 0.05027 0.10239 0.01323 0.03519 0.0291 0.074083 0.03969 0.10927 0.01058 0.03519 0.02117 0.074083 0.02646 0.11298 0.0079 0.038629 0.01588 0.077523 0.01852 0.11642 0.0026 0.038629 0.0079 0.074083 0.0079 0.11271z" fill="#69686d"/>
  <path d="m34.367 35.32h-31.496c-0.33576 0-0.61119-0.27305-0.61119-0.61039v-31.496c0-0.33682 0.27543-0.60986 0.61119-0.60986h31.496c0.33602 0 0.60854 0.27305 0.60854 0.60986v31.496c0 0.33734-0.27252 0.61039-0.60854 0.61039z" fill="#7e8084"/>
  <path d="m34.923 3.017c-0.07673-0.04233-0.16933-0.0635-0.26194-0.0635h-31.496c-0.33867 0-0.60854 0.27173-0.60854 0.61039v31.496c0 0.07038 0.01323 0.14102 0.03704 0.20452-0.20638-0.09525-0.34899-0.30348-0.34899-0.55033v-31.496c0-0.33523 0.27226-0.61039 0.61092-0.61039h31.496c0.26458 0 0.48948 0.17304 0.5715 0.40931z" fill="#b3b3b3"/>
 </g>
</svg>
