<?xml version="1.0" encoding="UTF-8" standalone="no"?>
<svg
   width="210mm"
   height="297mm"
   version="1.1"
   viewBox="0 0 210 297"
   id="svg5"
   sodipodi:docname="pressed_pad.svg"
   inkscape:version="1.4 (e7c3feb1, 2024-10-09)"
   xmlns:inkscape="http://www.inkscape.org/namespaces/inkscape"
   xmlns:sodipodi="http://sodipodi.sourceforge.net/DTD/sodipodi-0.dtd"
   xmlns="http://www.w3.org/2000/svg"
   xmlns:svg="http://www.w3.org/2000/svg">
  <defs
     id="defs5" />
  <sodipodi:namedview
     id="namedview5"
     pagecolor="#ffffff"
     bordercolor="#000000"
     borderopacity="0.25"
     inkscape:showpageshadow="2"
     inkscape:pageopacity="0.0"
     inkscape:pagecheckerboard="0"
     inkscape:deskcolor="#d1d1d1"
     inkscape:document-units="mm"
     inkscape:zoom="1.1691467"
     inkscape:cx="103.06662"
     inkscape:cy="198.43532"
     inkscape:window-width="1440"
     inkscape:window-height="785"
     inkscape:window-x="0"
     inkscape:window-y="25"
     inkscape:window-maximized="1"
     inkscape:current-layer="svg5" />
  <rect
     x="0.24194001"
     y="0.24194001"
     width="36.130001"
     height="35.890999"
     rx="0.35701001"
     ry="0.47367999"
     fill-rule="evenodd"
     stroke="#000000"
     stroke-width="0.48388"
     id="rect1" />
  <g
     transform="translate(-0.95668206,-0.80987989)"
     id="g5">
    <path
       transform="matrix(0.35278,0,0,-0.35278,36.77,2.6566)"
       d="m 0.015058,-2.1445e-4 c 0.13562,-15.43999955 1.1053,-38.60599955 0.79502,-57.89499955 -0.31033,-19.289 -0.79475,-34.715 -0.79475,-34.715 -0.0030997,-0.34997 -0.055605,-0.6799 -0.15767,-0.99992 -0.091993,-0.31 -0.23349,-0.60006 -0.42456,-0.86031 -1.371e-5,-0.0033 -4.1e-5,-0.01 -4.1e-5,-0.01 -0.60367,-0.89079 -1.613,-1.474 -2.753,-1.4828 -15.438,-0.11875 -38.591,-0.96512 -57.884,-0.69381 -19.293,0.2713 -34.726,0.69381 -34.726,0.69381 -0.12001,9.23e-4 -0.22999,0.01173 -0.34,0.0225 -0.54102,0.06379 -1.041,0.24635 -1.4804,0.54795 -0.11009,0.0604 -0.22024,0.14076 -0.32044,0.23105 -0.72109,0.60186 -1.1853,1.5217 -1.1944,2.5415 -0.13634,15.434 -1.105197,38.571 -0.794617,57.866 0.310627,19.295 0.794617,34.73399955 0.794617,34.73399955 0.0093,1.05009995 0.49318,1.97979995 1.2545,2.59209995 0.56087,0.47163 1.2908,0.74526 2.0808,0.75134 15.438,0.11876 38.591,0.96511 57.884,0.6938 19.293,-0.27131 34.726,-0.69381 34.726,-0.69381 0.759,-0.00584 1.4598,-0.25935 2.0207,-0.70115 0.12015,-0.080381 0.23039,-0.18069 0.33066,-0.28093 0.080216,-0.080191 0.15947,-0.16037 0.21074,-0.24046 0.14054,-0.16027 0.26127,-0.34044 0.36219,-0.53055 0.050497,-0.10008 0.10095,-0.19008 0.14152,-0.29014 0.040551,-0.1 0.081236,-0.21009 0.11187,-0.31007995 0.030639,-0.10001 0.061394,-0.21005 0.082188,-0.32005 0.020795,-0.11002 0.041638,-0.22003 0.052521,-0.33004 0.010887,-0.11004 0.021727,-0.21 0.022694,-0.32004 z"
       fill="#69686d"
       id="path1" />
    <path
       transform="matrix(0.35278,0,0,-0.35278,36.77,2.6566)"
       d="m 0.015058,-2.1445e-4 c 0.13562,-15.43999955 1.1053,-38.60599955 0.79502,-57.89499955 -0.31033,-19.289 -0.79475,-34.715 -0.79475,-34.715 -0.0030997,-0.34997 -0.055605,-0.6799 -0.15767,-0.99992 -0.10193,-0.3 -0.24345,-0.59008 -0.42456,-0.86031 -1.371e-5,-0.0033 -4.1e-5,-0.01 -4.1e-5,-0.01 -0.60359,-0.87079 -1.613,-1.454 -2.753,-1.4628 -15.495,-0.11914 -38.732,-0.96712 -58.096,-0.69052 -19.364,0.2766 -34.854,0.69301 -34.854,0.69301 -0.68,0.07476 -1.2999,0.34756 -1.8009,0.779 1.1277,1.167 3.3683,3.4891 3.3683,3.4891 2.3339,1.9374 6.9787,5.7834 6.9787,5.7834 16.506,-0.26425 28.041,-0.6604 47.726,-0.47504 15.908,0.1498 28.632,0.4776 28.632,0.4776 0.29193,17.821 0.78183,29.007 0.54025,50.181 -0.19095,16.736 -0.55873,30.1219995 -0.55873,30.1219995 2.293,1.8613 6.888,5.59540005 6.888,5.59540005 1.0635,0.86733 3.1969,2.61009995 3.1969,2.61009995 0.00333,0.00332 0.00998,0.00997 0.00998,0.00997 0.12017,-0.090379 0.22941,-0.19068 0.32068,-0.2909 0.080216,-0.080191 0.15947,-0.16037 0.21074,-0.24046 0.15054,-0.16029 0.27127,-0.34045 0.36219,-0.53055 0.050497,-0.10008 0.10095,-0.19008 0.14152,-0.29014 0.040551,-0.1 0.081236,-0.21009 0.11187,-0.31007995 0.030639,-0.10001 0.061394,-0.21005 0.082188,-0.32005 0.030799,-0.11002 0.041638,-0.22003 0.052522,-0.33004 0.010887,-0.11004 0.021727,-0.21 0.022694,-0.32004 z"
       fill="#4d4d4d"
       id="path2" />
    <path
       transform="matrix(0.35278,0,0,-0.35278,4.6568,4.2122)"
       d="m -0.062202,0.060588 c -0.28776,-19.534 -0.91362,-29.716 -0.62421,-52.753 0.22079,-17.576 0.63056,-31.631 0.63056,-31.631 -2.2118,-2.2123 -6.6646,-6.6595 -6.6646,-6.6595 -0.11009,0.0604 -0.21924,0.14076 -0.32044,0.23105 -0.72109,0.60186 -1.1853,1.5217 -1.1944,2.5415 -0.13635,15.434 -1.1052,38.571 -0.79461,57.866 0.31059,19.295 0.79462,34.734 0.79462,34.734 0.00927,1.0501 0.49418,1.9798 1.2555,2.5921 0.43675,-0.43642 6.4808,-6.4849 6.9176,-6.9213 z"
       fill="#979797"
       id="path3" />
    <path
       transform="matrix(0.35278,0,0,-0.35278,35.011,35.356)"
       d="m 0.013146,-0.027125 c -14.887,-0.15217 -37.214,-0.87562 -55.818,-0.63907 -18.604,0.23655 -33.487,0.63908 -33.487,0.63908 -0.9551,0.0097606 -1.7375,0.78928 -1.7487,1.7452 -0.17436,14.884 -1.0029,37.197 -0.73205,55.805 0.27089,18.608 0.73203,33.498 0.73203,33.498 0.01118,0.95426 0.79361,1.735 1.7487,1.7447 14.887,0.15213 37.214,0.87557 55.818,0.63906 18.605,-0.23652 33.487,-0.63904 33.487,-0.63904 0.9551,-0.0098 1.7355,-0.79045 1.7467,-1.7447 0.1744,-14.889 1.0029,-37.228 0.73195,-55.828 -0.27091,-18.6 -0.73197,-33.475 -0.73197,-33.475 -0.011198,-0.95592 -0.79161,-1.7354 -1.7467,-1.7452 z"
       fill="#7e8084"
       id="path4" />
    <path
       transform="matrix(0.35278,0,0,-0.35278,35.583,3.0512)"
       d="m 0.024545,0.01199 c -0.22237,0.12161 -0.48212,0.18365 -0.74223,0.18585 -14.89,0.1262 -37.222,0.85913 -55.83,0.64414 -18.609,-0.21499 -33.495,-0.62658 -33.495,-0.62658 -0.95927,-0.010958 -1.7373,-0.78791 -1.7501,-1.7483 -0.28989,-21.767 -1.0834,-30.361 -0.69116,-55.836 0.28645,-18.602 0.71384,-33.48 0.71384,-33.48 0.0019,-0.20004 0.04269,-0.39945 0.1142,-0.58111 -0.59132,0.27527 -0.9979,0.86802 -1.0061,1.568 -0.17414,14.884 -1.003,37.197 -0.73225,55.805 0.27072,18.608 0.73205,33.498 0.73205,33.498 0.01115,0.95027 0.78866,1.7359 1.7488,1.7457 14.887,0.15211 37.214,0.87545 55.818,0.63896 18.605,-0.23648 33.487,-0.63895 33.487,-0.63895 0.75017,-0.00767 1.3952,-0.50292 1.6323,-1.1747 z"
       fill="#b3b3b3"
       id="path5" />
  </g>
</svg>
