<?xml version="1.0" encoding="UTF-8" standalone="no"?>
<!-- Created with Inkscape (http://www.inkscape.org/) -->

<svg
   width="210mm"
   height="297mm"
   viewBox="0 0 210 297"
   version="1.1"
   id="svg1"
   inkscape:version="1.3.2 (091e20e, 2023-11-25)"
   sodipodi:docname="pressed_pad.svg"
   xmlns:inkscape="http://www.inkscape.org/namespaces/inkscape"
   xmlns:sodipodi="http://sodipodi.sourceforge.net/DTD/sodipodi-0.dtd"
   xmlns="http://www.w3.org/2000/svg"
   xmlns:svg="http://www.w3.org/2000/svg">
  <sodipodi:namedview
     id="namedview1"
     pagecolor="#ffffff"
     bordercolor="#000000"
     borderopacity="0.25"
     inkscape:showpageshadow="2"
     inkscape:pageopacity="0.0"
     inkscape:pagecheckerboard="0"
     inkscape:deskcolor="#d1d1d1"
     inkscape:document-units="mm"
     inkscape:zoom="2.3786088"
     inkscape:cx="86.184833"
     inkscape:cy="46.455727"
     inkscape:window-width="1440"
     inkscape:window-height="798"
     inkscape:window-x="0"
     inkscape:window-y="25"
     inkscape:window-maximized="1"
     inkscape:current-layer="layer1" />
  <defs
     id="defs1">
    <inkscape:path-effect
       effect="lattice2"
       gridpoint0="38.652122,1.3104466"
       gridpoint1="73.666551,1.3104466"
       gridpoint2="38.652122,36.327517"
       gridpoint3="73.666551,36.327517"
       gridpoint4="47.405729,1.3104466"
       gridpoint5="64.912944,1.3104466"
       gridpoint6="47.405729,36.327517"
       gridpoint7="64.912944,36.327517"
       gridpoint8x9="56.103721,1.0009466"
       gridpoint10x11="56.103721,36.637017"
       gridpoint12="38.652122,10.064714"
       gridpoint13="73.666551,10.064714"
       gridpoint14="38.652122,27.573249"
       gridpoint15="73.666551,27.573249"
       gridpoint16="47.405729,10.064714"
       gridpoint17="64.912944,10.064714"
       gridpoint18="47.405729,27.573249"
       gridpoint19="64.912944,27.573249"
       gridpoint20x21="56.159337,10.064714"
       gridpoint22x23="56.159337,27.573249"
       gridpoint24x26="38.333165,18.818982"
       gridpoint25x27="73.985508,18.818982"
       gridpoint28x30="47.405729,18.818982"
       gridpoint29x31="64.912944,18.818982"
       gridpoint32x33x34x35="56.159337,18.818982"
       id="path-effect7"
       is_visible="true"
       lpeversion="1"
       horizontal_mirror="true"
       vertical_mirror="true"
       perimetral="false"
       live_update="true" />
    <inkscape:path-effect
       effect="lattice2"
       gridpoint0="39.797766,2.4661466"
       gridpoint1="72.475926,2.4661466"
       gridpoint2="39.797766,35.122609"
       gridpoint3="72.475926,35.122609"
       gridpoint4="47.967306,2.4661466"
       gridpoint5="64.306386,2.4661466"
       gridpoint6="47.967306,35.122609"
       gridpoint7="64.306386,35.122609"
       gridpoint8x9="56.174944,2.0718506"
       gridpoint10x11="56.174944,35.516905"
       gridpoint12="39.797766,10.630262"
       gridpoint13="72.475926,10.630262"
       gridpoint14="39.797766,26.958493"
       gridpoint15="72.475926,26.958493"
       gridpoint16="47.967306,10.630262"
       gridpoint17="64.306386,10.630262"
       gridpoint18="47.967306,26.958493"
       gridpoint19="64.306386,26.958493"
       gridpoint20x21="56.136846,10.630262"
       gridpoint22x23="56.136846,26.958493"
       gridpoint24x26="39.100564,18.794378"
       gridpoint25x27="73.173128,18.794378"
       gridpoint28x30="47.967306,18.794378"
       gridpoint29x31="64.306386,18.794378"
       gridpoint32x33x34x35="56.136846,18.794378"
       id="path-effect6"
       is_visible="true"
       lpeversion="1"
       horizontal_mirror="true"
       vertical_mirror="true"
       perimetral="false"
       live_update="true" />
    <inkscape:path-effect
       effect="lattice2"
       gridpoint0="39.813378,2.4621776"
       gridpoint1="72.528843,2.4621776"
       gridpoint2="39.813378,35.178171"
       gridpoint3="72.528843,35.178171"
       gridpoint4="47.992244,2.4621776"
       gridpoint5="64.349977,2.4621776"
       gridpoint6="47.992244,35.178171"
       gridpoint7="64.349977,35.178171"
       gridpoint8x9="56.249784,2.0351124"
       gridpoint10x11="56.249784,35.605236"
       gridpoint12="39.813378,10.641176"
       gridpoint13="72.528843,10.641176"
       gridpoint14="39.813378,26.999173"
       gridpoint15="72.528843,26.999173"
       gridpoint16="47.992244,10.641176"
       gridpoint17="64.349977,10.641176"
       gridpoint18="47.992244,26.999173"
       gridpoint19="64.349977,26.999173"
       gridpoint20x21="56.17111,10.641176"
       gridpoint22x23="56.17111,26.999173"
       gridpoint24x26="39.241701,18.977407"
       gridpoint25x27="73.10052,18.977407"
       gridpoint28x30="47.992244,18.820174"
       gridpoint29x31="64.349977,18.820174"
       gridpoint32x33x34x35="56.17111,18.820174"
       id="path-effect5"
       is_visible="true"
       lpeversion="1"
       horizontal_mirror="true"
       vertical_mirror="true"
       perimetral="false"
       live_update="true" />
    <inkscape:path-effect
       effect="bend_path"
       id="path-effect4"
       is_visible="true"
       lpeversion="1"
       bendpath="M 39.813378,18.820174 H 72.528843"
       prop_scale="1"
       scale_y_rel="false"
       vertical="false"
       hide_knot="false" />
    <inkscape:path-effect
       effect="envelope"
       id="path-effect3"
       is_visible="true"
       lpeversion="1"
       yy="true"
       xx="true"
       bendpath1="M 39.813378,2.4621776 H 72.528843"
       bendpath2="M 72.528843,2.4621776 V 35.178171"
       bendpath3="M 39.813378,35.178171 H 72.528843"
       bendpath4="M 39.813378,2.4621776 V 35.178171" />
  </defs>
  <g
     inkscape:label="Layer 1"
     inkscape:groupmode="layer"
     id="layer1">
    <path
       d="M 37.339257,1.2961586 V 36.344984 c 0,0.375179 -0.304271,0.679185 -0.679979,0.679185 H 1.6078076 c -0.375708,0 -0.67997897,-0.304006 -0.67997897,-0.679185 V 1.2961586 c 0,-0.37517895 0.30427097,-0.67918495 0.67997897,-0.67918495 H 36.659278 c 0.375708,0 0.679979,0.304006 0.679979,0.67918495 z"
       fill="#000000"
       id="path538-1"
       style="stroke-width:0.264583" />
    <path
       d="m 73.67186,2.4788456 c 0.04778,5.4461259 0.389239,13.6136814 0.279955,20.4197054 -0.109284,6.806024 -0.279867,12.250516 -0.279867,12.250516 -0.0011,0.123564 -0.02049,0.239971 -0.05562,0.352965 -0.03245,0.109284 -0.08326,0.211713 -0.1498,0.303359 -5e-6,0.0012 -1.5e-5,0.0037 -1.5e-5,0.0037 -0.213021,0.314126 -0.570214,0.520176 -0.972997,0.52361 -5.454482,0.0465 -13.681554,0.377714 -20.468498,0.271539 -6.786944,-0.106175 -12.20172,-0.271539 -12.20172,-0.271539 -0.04227,-3.62e-4 -0.0819,-0.0044 -0.118888,-0.0081 -0.190237,-0.02265 -0.367323,-0.08717 -0.523471,-0.193627 -0.03704,-0.02132 -0.07677,-0.04978 -0.111207,-0.08164 -0.254244,-0.212421 -0.419799,-0.536739 -0.422971,-0.896557 -0.04801,-5.445691 -0.389211,-13.612594 -0.279825,-20.418074 0.109387,-6.80548 0.279824,-12.2495374 0.279824,-12.2495374 0.0033,-0.370417 0.174005,-0.698331 0.444164,-0.9143554 0.195968,-0.1665158 0.455012,-0.2632064 0.732374,-0.2655784 5.437769,-0.046504 13.545807,-0.37771379 20.37091,-0.2715391 6.825103,0.1061747 12.299311,0.2715391 12.299311,0.2715391 0.267631,0.00228 0.516568,0.091808 0.712747,0.2477777 0.04241,0.028458 0.08221,0.063773 0.116714,0.099053 0.02919,0.028387 0.0584,0.056765 0.07437,0.084847 0.05048,0.056724 0.09308,0.1202879 0.127811,0.1872647 0.0187,0.035216 0.03738,0.066971 0.05082,0.1024389 0.01342,0.035185 0.02954,0.074113 0.04035,0.1092953 0.01081,0.035191 0.02166,0.07409 0.02723,0.112985 0.0082,0.038632 0.01646,0.077523 0.01941,0.1164197 0.0029,0.03863 0.0085,0.07408 0.0088,0.112713 0,0 4.5e-5,7.89e-4 4.5e-5,7.89e-4 z"
       fill="#69686d"
       id="path540-7"
       style="stroke-width:0.264583"
       inkscape:path-effect="#path-effect7"
       inkscape:original-d="M 73.666551,2.4788456 V 35.149067 c 0,0.12356 -0.01852,0.239977 -0.05292,0.352954 -0.03175,0.109273 -0.08202,0.211667 -0.148166,0.303213 v 0.0037 c -0.211667,0.313796 -0.568855,0.518583 -0.971021,0.518583 H 39.824226 c -0.04233,0 -0.08202,-0.0037 -0.119062,-0.0071 -0.1905,-0.02117 -0.367771,-0.08467 -0.523875,-0.1905 -0.03704,-0.02117 -0.07673,-0.04948 -0.111125,-0.08123 -0.254,-0.211666 -0.418042,-0.536046 -0.418042,-0.895879 V 2.4851966 c 0,-0.370417 0.169333,-0.6985 0.439208,-0.913607 0.195792,-0.165893 0.455084,-0.261143 0.732896,-0.261143 h 32.670221 c 0.267229,0 0.515937,0.08811 0.711729,0.243416 0.04233,0.02831 0.08202,0.0635 0.116417,0.09869 0.0291,0.02831 0.05821,0.05662 0.07408,0.08467 0.05027,0.05662 0.0926,0.120121 0.127,0.187061 0.01852,0.03519 0.03704,0.06694 0.05027,0.102393 0.01323,0.03519 0.0291,0.07408 0.03969,0.109273 0.01058,0.03519 0.02117,0.07408 0.02646,0.112977 0.0079,0.03863 0.01588,0.07752 0.01852,0.116417 0.0026,0.03863 0.0079,0.07408 0.0079,0.112713 z"
       transform="translate(-37.041668)" />
    <path
       d="m 71.92072,35.180448 c -5.243237,0.03855 -13.026249,0.532102 -19.616216,0.376757 -3.294983,-0.07767 -6.274779,-0.225692 -8.420541,-0.298443 -2.146062,-0.07276 -3.458974,-0.07829 -3.458974,-0.07829 -0.336168,-0.0025 -0.611353,-0.27548 -0.614677,-0.611848 -0.02896,-2.92981 -0.233164,-5.529504 -0.407155,-9.239199 -0.172604,-3.680129 -0.21008,-6.713328 -0.09711,-10.30773 0.104007,-3.309281 0.302149,-6.3163057 0.399516,-8.4754449 0.09739,-2.1597291 0.104756,-3.4733626 0.104756,-3.4733626 0.0033,-0.3376892 0.278506,-0.6105276 0.614672,-0.6130025 5.257469,-0.038705 13.222298,-0.5321109 19.755012,-0.3766748 3.266358,0.077718 6.191617,0.2257448 8.310579,0.2984708 2.118756,0.072719 3.43014,0.078224 3.43014,0.078224 0.335507,0.00247 0.607867,0.2752845 0.611184,0.612983 0.02893,2.9456858 0.233138,5.6578001 0.407135,9.4631595 0.172613,3.775084 0.210109,6.82889 0.09715,10.361161 -0.103995,3.252072 -0.302136,6.150104 -0.399509,8.255683 -0.09735,2.105156 -0.104775,3.415733 -0.104775,3.415733 -0.0033,0.336378 -0.27568,0.609361 -0.611189,0.611828 z"
       fill="#7e8084"
       id="path542-5"
       style="stroke-width:0.264583"
       inkscape:path-effect="#path-effect5"
       inkscape:original-d="M 71.920301,35.178171 H 40.424566 c -0.335756,0 -0.611188,-0.27305 -0.611188,-0.610394 V 3.0720416 c 0,-0.336814 0.275432,-0.609864 0.611188,-0.609864 h 31.495735 c 0.336021,0 0.608542,0.27305 0.608542,0.609864 V 34.567777 c 0,0.337344 -0.272521,0.610394 -0.608542,0.610394 z"
       transform="translate(-37.041668)" />
    <path
       d="m 72.477635,2.8754566 c -0.07707,-0.042322 -0.169827,-0.063617 -0.262404,-0.06389 -5.2492,-0.015525 -13.077966,-0.4790606 -19.652663,-0.3488245 -2.863029,0.056713 -6.678059,0.2117248 -8.392497,0.2665032 -2.139457,0.068358 -3.452517,0.078084 -3.452517,0.078084 -0.338932,0.00331 -0.610555,0.2758549 -0.616628,0.6144906 -0.04707,2.6252602 -0.317838,5.9064417 -0.501719,9.3515053 -0.1988,3.724557 -0.227778,6.774516 -0.0812,10.334797 0.135068,3.280787 0.373828,6.233418 0.483965,8.365851 0.110141,2.132524 0.107375,3.44467 0.107375,3.44467 2.89e-4,0.07037 0.01366,0.141087 0.03748,0.20467 -0.206455,-0.09608 -0.349416,-0.304181 -0.352116,-0.551038 -0.03208,-2.933332 -0.281639,-5.598075 -0.494855,-9.351182 -0.211835,-3.728792 -0.259064,-6.769918 -0.121707,-10.33444 0.126419,-3.280675 0.368607,-6.2332029 0.487692,-8.3655626 0.119092,-2.1324868 0.128179,-3.4445508 0.128179,-3.4445508 0.004,-0.3351955 0.276071,-0.6102076 0.614881,-0.6125163 5.253798,-0.0358 13.17178,-0.4916718 19.719176,-0.347267 3.273698,0.072202 6.212994,0.2091508 8.338886,0.2760864 2.12581,0.066933 3.437648,0.071441 3.437648,0.071441 0.264438,0.00169 0.489073,0.1749604 0.573029,0.4111727 z"
       fill="#b3b3b3"
       id="path544-5"
       inkscape:label="path544"
       style="stroke-width:0.264583"
       inkscape:path-effect="#path-effect6"
       inkscape:original-d="m 72.475926,2.8754566 c -0.07673,-0.04233 -0.169333,-0.0635 -0.261938,-0.0635 H 40.718253 c -0.338666,0 -0.608541,0.271727 -0.608541,0.610394 V 34.918086 c 0,0.07038 0.01323,0.141023 0.03704,0.204523 -0.206375,-0.09525 -0.348986,-0.303477 -0.348986,-0.550334 V 3.0765396 c 0,-0.335227 0.272257,-0.610393 0.610923,-0.610393 h 31.495735 c 0.264583,0 0.489479,0.173037 0.5715,0.40931 z"
       transform="translate(-37.041668)" />
  </g>
</svg>
