<svg class="size-6" fill="none" stroke="currentColor" stroke-width="1.5" version="1.1" viewBox="0 0 24 24" xmlns="http://www.w3.org/2000/svg">
 <path d="m12 2.25c-5.3759 0-9.75 4.3741-9.75 9.75 0 5.3759 4.3741 9.75 9.75 9.75 5.3759 0 9.75-4.3741 9.75-9.75 0-5.3759-4.3741-9.75-9.75-9.75zm0 1.5c4.5652 0 8.25 3.6848 8.25 8.25 0 4.5652-3.6848 8.25-8.25 8.25-4.5652 0-8.25-3.6848-8.25-8.25 0-4.5652 3.6848-8.25 8.25-8.25zm0 2.2363c-0.9391 0-1.8785 0.32384-2.6152 0.96875-0.31184 0.27286-0.34333 0.74689-0.070312 1.0586 0.27286 0.31184 0.74689 0.34333 1.0586 0.070312 0.86846-0.76018 2.3854-0.76018 3.2539 0 0.86959 0.76052 0.86959 1.8215 0 2.582-6.68e-4 6.65e-4 -0.0013 0.0013-2e-3 2e-3 -0.14775 0.13028-0.31669 0.24148-0.5 0.33008-6.67e-4 -1e-6 -0.0013-1e-6 -2e-3 0-0.88987 0.4312-1.871 1.2482-1.871 2.5019v0.75c0 0.41421 0.33579 0.75 0.75 0.75s0.75-0.33579 0.75-0.75v-0.75c0-0.40228 0.42536-0.86159 1.0254-1.1523 0.29589-0.14301 0.58019-0.32586 0.83789-0.55273l2e-3 -2e-3c1.4722-1.2898 1.4717-3.549-2e-3 -4.8378-0.73677-0.64491-1.6761-0.96875-2.6152-0.96875zm0 10.514c-0.4142 4.1e-5 -0.74996 0.3358-0.75 0.75v0.0078c4.1e-5 0.4142 0.3358 0.74996 0.75 0.75h0.0078c0.4142-4.1e-5 0.74996-0.3358 0.75-0.75v-0.0078c-4.1e-5 -0.4142-0.3358-0.74996-0.75-0.75z" color="#000000" fill="#000" stroke="none" style="-inkscape-stroke:none"/>
</svg>
