<svg xmlns="http://www.w3.org/2000/svg" viewBox="0 0 210 297">
  <path d="m 0,0 h -30.513 c -0.648,0 -1.174,0.526 -1.174,1.174 v 13.435 c 0,0.648 0.526,1.174 1.174,1.174 H 0 c 0.648,0 1.174,-0.526 1.174,-1.174 V 1.174 C 1.174,0.526 0.648,0 0,0" fill="#24446d" transform="matrix(0.35277776,0,0,-0.35277776,12.065666,6.3959275)"/>
  <path d="m 0,0 h -26.982 c -0.649,0 -1.174,0.526 -1.174,1.174 v 11.739 c 0,0.648 0.525,1.174 1.174,1.174 H 0 c 0.648,0 1.174,-0.526 1.174,-1.174 V 1.174 C 1.174,0.526 0.648,0 0,0" fill="#00498a" transform="matrix(0.35277776,0,0,-0.35277776,11.442946,6.0967375)"/>
  <path d="m 0,0 c -0.15,0.09 -0.33,0.13 -0.52,0.13 h -26.99 c -0.65,0 -1.17,-0.52 -1.17,-1.17 v -11.74 c 0,-0.23 0.06,-0.44 0.18,-0.62 -0.39,0.19 -0.66,0.59 -0.66,1.06 V -0.6 c 0,0.65 0.52,1.17 1.17,1.17 H -1.01 C -0.58,0.57 -0.2,0.34 0,0" fill="#999999" opacity="0.56" transform="matrix(0.35277777,0,0,-0.35277777,11.827011,1.3283827)"/>
</svg>
