<?xml version="1.0" encoding="UTF-8" standalone="no"?>
<!-- Created with Inkscape (http://www.inkscape.org/) -->

<svg
   width="210mm"
   height="297mm"
   viewBox="0 0 210 297"
   version="1.1"
   id="svg1"
   sodipodi:docname="small_key_blue_pressed.svg"
   inkscape:version="1.4 (e7c3feb1, 2024-10-09)"
   xmlns:inkscape="http://www.inkscape.org/namespaces/inkscape"
   xmlns:sodipodi="http://sodipodi.sourceforge.net/DTD/sodipodi-0.dtd"
   xmlns="http://www.w3.org/2000/svg"
   xmlns:svg="http://www.w3.org/2000/svg">
  <sodipodi:namedview
     id="namedview1"
     pagecolor="#ffffff"
     bordercolor="#000000"
     borderopacity="0.25"
     inkscape:showpageshadow="2"
     inkscape:pageopacity="0.0"
     inkscape:pagecheckerboard="0"
     inkscape:deskcolor="#d1d1d1"
     inkscape:document-units="mm"
     inkscape:zoom="13.455443"
     inkscape:cx="24.59971"
     inkscape:cy="17.985286"
     inkscape:window-width="1440"
     inkscape:window-height="785"
     inkscape:window-x="0"
     inkscape:window-y="25"
     inkscape:window-maximized="1"
     inkscape:current-layer="layer1" />
  <defs
     id="defs1" />
  <g
     inkscape:label="Layer 1"
     inkscape:groupmode="layer"
     id="layer1">
    <path
       id="path295"
       d="m 0,0 h -34.043 c -0.649,0 -1.174,0.526 -1.174,1.174 v 15.13 c 0,0.649 0.525,1.174 1.174,1.174 H 0 c 0.648,0 1.174,-0.525 1.174,-1.174 V 1.174 C 1.174,0.526 0.648,0 0,0"
       style="fill:#1a1a1a;fill-opacity:1;fill-rule:nonzero;stroke:none"
       transform="matrix(0.35277776,0,0,-0.35277776,12.688353,6.6949775)"
       clip-path="none" />
    <path
       d="m 11.442712,1.7254761 c 0.144113,0 0.271003,0.073734 0.345199,0.1855184 0.01295,0.00541 0.02732,0.00833 0.03927,0.015503 C 11.75663,1.806553 11.622312,1.7254761 11.470618,1.7254761 Z"
       style="display:inline;opacity:0.56;fill:#999999"
       id="path6" />
    <path
       d="m 1.9528524,1.7254761 c -0.2293056,0 -0.4128947,0.1835891 -0.4128947,0.4128947 v 4.1413493 c 0,0.1658055 0.095477,0.3071095 0.2330607,0.3741373 -0.042333,-0.0635 -0.063562,-0.1374524 -0.063562,-0.2185913 v -4.141866 c 0,-0.2293056 0.1835891,-0.4128947 0.4128947,-0.4128947 h 9.5213829 c 0.05189,0 0.09979,0.01194 0.144177,0.030489 -0.0742,-0.1117841 -0.201086,-0.1855184 -0.345199,-0.1855184 z"
       style="display:inline;opacity:0.56;fill:#999999"
       id="path5" />
    <path
       d="m 1.9244303,6.6951986 h 9.5182817 c 0.2286,0 0.414445,-0.185845 0.414445,-0.414445 V 2.1394043 c 0,-0.084488 -0.02575,-0.162875 -0.06925,-0.2284098 -0.04439,-0.018549 -0.09229,-0.030489 -0.144177,-0.030489 H 2.1223511 c -0.2293056,0 -0.4128947,0.1835891 -0.4128947,0.4128947 v 4.141866 c 0,0.081139 0.021229,0.1550913 0.063562,0.2185913 C 1.6354351,6.5868296 1.5399577,6.4455256 1.5399577,6.2797201 V 2.1383708 c 0,-0.2293056 0.1835891,-0.4128947 0.4128947,-0.4128947 h -0.028422 c -0.2289527,0 -0.4144449,0.1853282 -0.4144449,0.4139282 v 4.1413493 c 0,0.2286 0.1854922,0.414445 0.4144449,0.414445 z"
       style="fill:#00498a"
       id="path4" />
    <path
       d="m 1.3012126,1.4262695 c -0.2286,0 -0.41392826,0.1853283 -0.41392826,0.4139283 v 4.7397623 c 0,0.040189 0.007391,0.078484 0.0180868,0.1152385 H 1.9244303 c -0.2289527,0 -0.4144449,-0.185845 -0.4144449,-0.414445 V 2.1394043 c 0,-0.2286 0.1854922,-0.4139282 0.4144449,-0.4139282 h 0.028422 9.5177656 c 0.151694,0 0.286012,0.081077 0.356567,0.2010213 -0.01195,-0.00717 -0.02632,-0.010091 -0.03927,-0.015503 0.0435,0.065535 0.06925,0.1439221 0.06925,0.2284098 v 4.1413493 c 0,0.2286 -0.185845,0.414445 -0.414445,0.414445 h 1.01906 c 0.0107,-0.036755 0.01809,-0.075049 0.01809,-0.1152385 V 1.8401978 c 0,-0.2286 -0.185845,-0.4139283 -0.414445,-0.4139283 z"
       style="fill:#24446d"
       id="path1" />
  </g>
</svg>
