<svg xmlns="http://www.w3.org/2000/svg" viewBox="0 0 210 297">
  <path d="M 12.857526,6.6605362 H 2.0933503 c -0.2286,0 -0.414338,-0.185737 -0.414338,-0.414337 V 1.5067706 c 0,-0.2286 0.185738,-0.4140729 0.414338,-0.4140729 H 12.857526 c 0.2286,0 0.414072,0.1854729 0.414072,0.4140729 v 4.7394286 c 0,0.2286 -0.185472,0.414337 -0.414072,0.414337 z" fill="#cac2b2"/>
  <path d="M 12.235755,6.3615572 H 2.7172113 c -0.228838,0 -0.414047,-0.185711 -0.414047,-0.414311 V 1.8060408 c 0,-0.2286 0.185209,-0.4140729 0.414047,-0.4140729 h 9.5185437 c 0.2286,0 0.414337,0.1854729 0.414337,0.4140729 v 4.1412054 c 0,0.2286 -0.185737,0.414311 -0.414337,0.414311 z" fill="#fcffe9"/>
  <path d="m 12.591329,1.5930479 c -0.05292,-0.03175 -0.11639,-0.04577 -0.18333,-0.04577 H 2.8865453 c -0.229394,0 -0.41275,0.183356 -0.41275,0.412724 v 4.1414957 c 0,0.08123 0.02117,0.155311 0.0635,0.218784 -0.137584,-0.06718 -0.232834,-0.207936 -0.232834,-0.374094 V 1.8046909 c 0,-0.229367 0.183356,-0.412723 0.41275,-0.412723 h 9.5177497 c 0.151871,0 0.285724,0.08123 0.356368,0.201083 z" fill="#ffffff"/>
</svg>
