<?xml version="1.0" encoding="UTF-8" standalone="no"?>
<svg
   class="size-6"
   fill="currentColor"
   version="1.1"
   viewBox="0 0 24 24"
   id="svg1"
   sodipodi:docname="speaker_wave.svg"
   inkscape:version="1.3.2 (091e20e, 2023-11-25)"
   xmlns:inkscape="http://www.inkscape.org/namespaces/inkscape"
   xmlns:sodipodi="http://sodipodi.sourceforge.net/DTD/sodipodi-0.dtd"
   xmlns="http://www.w3.org/2000/svg"
   xmlns:svg="http://www.w3.org/2000/svg">
  <defs
     id="defs1" />
  <sodipodi:namedview
     id="namedview1"
     pagecolor="#ffffff"
     bordercolor="#000000"
     borderopacity="0.25"
     inkscape:showpageshadow="2"
     inkscape:pageopacity="0.0"
     inkscape:pagecheckerboard="0"
     inkscape:deskcolor="#d1d1d1"
     inkscape:zoom="9.8333333"
     inkscape:cx="12"
     inkscape:cy="12"
     inkscape:window-width="1312"
     inkscape:window-height="449"
     inkscape:window-x="0"
     inkscape:window-y="25"
     inkscape:window-maximized="0"
     inkscape:current-layer="svg1" />
  <g
     transform="translate(3.4142 1.0405)"
     fill="none"
     stroke="currentColor"
     stroke-width="1.5"
     id="g1"
     style="stroke:#000000;stroke-opacity:1">
    <path
       d="m15.702 4.5955a9 9 0 0 1 0 12.728m-2.651-10.076a5.25 5.25 0 0 1 0 7.424m-9.713-7.462 4.72-4.72a0.75 0.75 0 0 1 1.28 0.53v15.88a0.75 0.75 0 0 1-1.28 0.53l-4.72-4.72h-2.24c-0.88 0-1.704-0.507-1.938-1.354a9.009 9.009 0 0 1-0.322-2.396c0-0.83 0.112-1.633 0.322-2.396 0.234-0.848 1.058-1.354 1.938-1.354z"
       stroke-linecap="round"
       stroke-linejoin="round"
       id="path1"
       style="stroke:#000000;stroke-opacity:1" />
  </g>
</svg>
